<svg xmlns="http://www.w3.org/2000/svg" xmlns:xlink="http://www.w3.org/1999/xlink" width="1024" zoomAndPan="magnify" viewBox="0 0 768 576" height="768" preserveAspectRatio="xMidYMid meet" version="1.0"><defs><g/><clipPath id="id1"><path d="M 665 312 L 699.832031 312 L 699.832031 441 L 665 441 Z M 665 312 " clip-rule="nonzero"/></clipPath><clipPath id="id2"><path d="M 665 97 L 699.832031 97 L 699.832031 313 L 665 313 Z M 665 97 " clip-rule="nonzero"/></clipPath><clipPath id="id3"><path d="M 665 312 L 699.832031 312 L 699.832031 370 L 665 370 Z M 665 312 " clip-rule="nonzero"/></clipPath><clipPath id="id4"><path d="M 102.082031 312 L 137 312 L 137 342 L 102.082031 342 Z M 102.082031 312 " clip-rule="nonzero"/></clipPath></defs><path fill="#fbd38d" d="M 289.8125 312.699219 L 289.8125 286.859375 C 289.8125 286.492188 289.882812 286.136719 290.023438 285.800781 C 290.164062 285.460938 290.363281 285.160156 290.625 284.902344 C 290.882812 284.644531 291.183594 284.441406 291.519531 284.300781 C 291.859375 284.164062 292.210938 284.09375 292.578125 284.09375 L 321.605469 284.09375 C 321.972656 284.09375 322.328125 284.164062 322.664062 284.300781 C 323.003906 284.441406 323.300781 284.644531 323.5625 284.902344 C 323.820312 285.160156 324.019531 285.460938 324.160156 285.800781 C 324.300781 286.136719 324.371094 286.492188 324.371094 286.859375 L 324.371094 312.699219 Z M 289.8125 312.699219 " fill-opacity="1" fill-rule="nonzero"/><path fill="#fbd38d" d="M 327.359375 312.699219 L 327.359375 258.625 C 327.347656 258.25 327.410156 257.886719 327.542969 257.539062 C 327.679688 257.1875 327.875 256.878906 328.136719 256.609375 C 328.398438 256.339844 328.699219 256.132812 329.042969 255.984375 C 329.390625 255.839844 329.75 255.765625 330.125 255.765625 L 359.152344 255.765625 C 359.527344 255.765625 359.886719 255.839844 360.234375 255.984375 C 360.578125 256.132812 360.882812 256.339844 361.140625 256.609375 C 361.402344 256.878906 361.601562 257.1875 361.734375 257.539062 C 361.871094 257.886719 361.929688 258.25 361.917969 258.625 L 361.917969 312.699219 Z M 327.359375 312.699219 " fill-opacity="1" fill-rule="nonzero"/><path fill="#fbd38d" d="M 364.90625 312.699219 L 364.90625 202.160156 C 364.882812 201.777344 364.933594 201.40625 365.0625 201.046875 C 365.191406 200.6875 365.386719 200.367188 365.648438 200.085938 C 365.910156 199.808594 366.21875 199.59375 366.570312 199.441406 C 366.921875 199.289062 367.289062 199.214844 367.671875 199.214844 L 396.699219 199.214844 C 397.082031 199.214844 397.449219 199.289062 397.800781 199.441406 C 398.152344 199.59375 398.457031 199.808594 398.71875 200.085938 C 398.984375 200.367188 399.179688 200.6875 399.308594 201.046875 C 399.4375 201.40625 399.488281 201.777344 399.464844 202.160156 L 399.464844 312.699219 Z M 364.90625 312.699219 " fill-opacity="1" fill-rule="nonzero"/><path fill="#fbd38d" d="M 402.453125 312.699219 L 402.453125 173.929688 C 402.425781 173.546875 402.476562 173.171875 402.605469 172.8125 C 402.734375 172.449219 402.929688 172.128906 403.191406 171.847656 C 403.453125 171.566406 403.761719 171.351562 404.113281 171.199219 C 404.464844 171.046875 404.832031 170.96875 405.21875 170.96875 L 434.246094 170.96875 C 434.628906 170.96875 434.996094 171.046875 435.347656 171.199219 C 435.703125 171.351562 436.007812 171.566406 436.269531 171.847656 C 436.535156 172.128906 436.730469 172.449219 436.855469 172.8125 C 436.984375 173.171875 437.035156 173.546875 437.007812 173.929688 L 437.007812 312.699219 Z M 402.453125 312.699219 " fill-opacity="1" fill-rule="nonzero"/><path fill="#fbd38d" d="M 440 312.699219 L 440 159.8125 C 439.972656 159.429688 440.023438 159.058594 440.152344 158.695312 C 440.28125 158.335938 440.476562 158.011719 440.738281 157.734375 C 441 157.453125 441.308594 157.238281 441.660156 157.085938 C 442.011719 156.933594 442.378906 156.855469 442.761719 156.855469 L 471.789062 156.855469 C 472.175781 156.855469 472.542969 156.933594 472.894531 157.085938 C 473.246094 157.238281 473.554688 157.453125 473.816406 157.734375 C 474.078125 158.011719 474.273438 158.335938 474.402344 158.695312 C 474.53125 159.058594 474.582031 159.429688 474.554688 159.8125 L 474.554688 312.699219 Z M 440 312.699219 " fill-opacity="1" fill-rule="nonzero"/><path fill="#fbd38d" d="M 477.542969 312.699219 L 477.542969 420.414062 C 477.542969 420.722656 477.59375 421.023438 477.695312 421.316406 C 477.796875 421.609375 477.941406 421.878906 478.132812 422.121094 C 478.324219 422.363281 478.550781 422.570312 478.808594 422.738281 C 479.070312 422.90625 479.351562 423.027344 479.652344 423.101562 L 509.996094 423.101562 C 510.296875 423.027344 510.574219 422.90625 510.835938 422.738281 C 511.097656 422.570312 511.320312 422.363281 511.511719 422.121094 C 511.703125 421.878906 511.847656 421.609375 511.949219 421.316406 C 512.050781 421.023438 512.101562 420.722656 512.101562 420.414062 L 512.101562 312.699219 Z M 477.542969 312.699219 " fill-opacity="1" fill-rule="nonzero"/><path fill="#fbd38d" d="M 515.089844 312.699219 L 515.089844 427.472656 C 515.089844 427.78125 515.140625 428.082031 515.242188 428.371094 C 515.339844 428.664062 515.484375 428.929688 515.675781 429.175781 C 515.863281 429.417969 516.089844 429.621094 516.347656 429.789062 C 516.605469 429.957031 516.882812 430.082031 517.183594 430.15625 L 547.554688 430.15625 C 547.851562 430.082031 548.132812 429.957031 548.390625 429.789062 C 548.648438 429.621094 548.871094 429.417969 549.0625 429.175781 C 549.25 428.929688 549.398438 428.664062 549.496094 428.371094 C 549.597656 428.082031 549.648438 427.78125 549.648438 427.472656 L 549.648438 312.699219 Z M 515.089844 312.699219 " fill-opacity="1" fill-rule="nonzero"/><path fill="#fbd38d" d="M 552.636719 312.699219 L 552.636719 431.707031 C 552.636719 432.011719 552.6875 432.3125 552.785156 432.601562 C 552.882812 432.890625 553.027344 433.15625 553.214844 433.398438 C 553.398438 433.640625 553.621094 433.84375 553.875 434.015625 C 554.132812 434.183594 554.40625 434.304688 554.703125 434.382812 L 585.128906 434.382812 C 585.421875 434.304688 585.699219 434.183594 585.953125 434.015625 C 586.207031 433.84375 586.429688 433.640625 586.617188 433.398438 C 586.804688 433.15625 586.945312 432.890625 587.046875 432.601562 C 587.144531 432.3125 587.195312 432.011719 587.195312 431.707031 L 587.195312 312.699219 Z M 552.636719 312.699219 " fill-opacity="1" fill-rule="nonzero"/><path fill="#fbd38d" d="M 590.183594 312.699219 L 590.183594 433.117188 C 590.183594 433.425781 590.230469 433.71875 590.328125 434.007812 C 590.425781 434.296875 590.570312 434.5625 590.753906 434.804688 C 590.941406 435.046875 591.160156 435.253906 591.414062 435.421875 C 591.667969 435.589844 591.941406 435.714844 592.238281 435.792969 L 622.683594 435.792969 C 622.980469 435.714844 623.253906 435.589844 623.507812 435.421875 C 623.761719 435.253906 623.980469 435.046875 624.167969 434.804688 C 624.351562 434.5625 624.496094 434.296875 624.59375 434.007812 C 624.691406 433.71875 624.738281 433.425781 624.738281 433.117188 L 624.738281 312.699219 Z M 590.183594 312.699219 " fill-opacity="1" fill-rule="nonzero"/><path fill="#fbd38d" d="M 627.726562 312.699219 L 627.726562 434.53125 C 627.726562 434.835938 627.777344 435.128906 627.875 435.417969 C 627.972656 435.707031 628.113281 435.972656 628.296875 436.210938 C 628.484375 436.453125 628.703125 436.660156 628.953125 436.828125 C 629.207031 436.996094 629.480469 437.121094 629.773438 437.199219 L 660.242188 437.199219 C 660.535156 437.121094 660.808594 436.996094 661.058594 436.828125 C 661.3125 436.660156 661.53125 436.453125 661.714844 436.210938 C 661.898438 435.972656 662.042969 435.707031 662.140625 435.417969 C 662.238281 435.128906 662.285156 434.835938 662.285156 434.53125 L 662.285156 312.699219 Z M 627.726562 312.699219 " fill-opacity="1" fill-rule="nonzero"/><g clip-path="url(#id1)"><path fill="#fbd38d" d="M 665.273438 312.699219 L 665.273438 437.355469 C 665.273438 437.65625 665.324219 437.953125 665.421875 438.242188 C 665.519531 438.527344 665.660156 438.792969 665.84375 439.035156 C 666.027344 439.277344 666.246094 439.480469 666.5 439.648438 C 666.75 439.820312 667.023438 439.945312 667.316406 440.023438 L 697.789062 440.023438 C 698.082031 439.945312 698.355469 439.820312 698.605469 439.648438 C 698.859375 439.480469 699.078125 439.277344 699.261719 439.035156 C 699.445312 438.792969 699.585938 438.527344 699.683594 438.242188 C 699.78125 437.953125 699.832031 437.65625 699.832031 437.355469 L 699.832031 312.699219 Z M 665.273438 312.699219 " fill-opacity="1" fill-rule="nonzero"/></g><path fill="#48bb78" d="M 289.8125 312.699219 L 289.8125 286.859375 C 289.8125 286.492188 289.882812 286.136719 290.023438 285.800781 C 290.164062 285.460938 290.363281 285.160156 290.625 284.902344 C 290.882812 284.644531 291.183594 284.441406 291.519531 284.300781 C 291.859375 284.164062 292.210938 284.09375 292.578125 284.09375 L 321.605469 284.09375 C 321.972656 284.09375 322.328125 284.164062 322.664062 284.300781 C 323.003906 284.441406 323.300781 284.644531 323.5625 284.902344 C 323.820312 285.160156 324.019531 285.460938 324.160156 285.800781 C 324.300781 286.136719 324.371094 286.492188 324.371094 286.859375 L 324.371094 312.699219 Z M 289.8125 312.699219 " fill-opacity="1" fill-rule="nonzero"/><path fill="#48bb78" d="M 327.359375 312.699219 L 327.359375 258.625 C 327.347656 258.25 327.410156 257.886719 327.542969 257.539062 C 327.679688 257.1875 327.875 256.878906 328.136719 256.609375 C 328.398438 256.339844 328.699219 256.132812 329.042969 255.984375 C 329.390625 255.839844 329.75 255.765625 330.125 255.765625 L 359.152344 255.765625 C 359.527344 255.765625 359.886719 255.839844 360.234375 255.984375 C 360.578125 256.132812 360.882812 256.339844 361.140625 256.609375 C 361.402344 256.878906 361.601562 257.1875 361.734375 257.539062 C 361.871094 257.886719 361.929688 258.25 361.917969 258.625 L 361.917969 312.699219 Z M 327.359375 312.699219 " fill-opacity="1" fill-rule="nonzero"/><path fill="#48bb78" d="M 364.90625 312.699219 L 364.90625 202.160156 C 364.882812 201.777344 364.933594 201.40625 365.0625 201.046875 C 365.191406 200.6875 365.386719 200.367188 365.648438 200.085938 C 365.910156 199.808594 366.21875 199.59375 366.570312 199.441406 C 366.921875 199.289062 367.289062 199.214844 367.671875 199.214844 L 396.699219 199.214844 C 397.082031 199.214844 397.449219 199.289062 397.800781 199.441406 C 398.152344 199.59375 398.457031 199.808594 398.71875 200.085938 C 398.984375 200.367188 399.179688 200.6875 399.308594 201.046875 C 399.4375 201.40625 399.488281 201.777344 399.464844 202.160156 L 399.464844 312.699219 Z M 364.90625 312.699219 " fill-opacity="1" fill-rule="nonzero"/><path fill="#48bb78" d="M 402.453125 312.699219 L 402.453125 173.929688 C 402.425781 173.546875 402.476562 173.171875 402.605469 172.8125 C 402.734375 172.449219 402.929688 172.128906 403.191406 171.847656 C 403.453125 171.566406 403.761719 171.351562 404.113281 171.199219 C 404.464844 171.046875 404.832031 170.96875 405.21875 170.96875 L 434.246094 170.96875 C 434.628906 170.96875 434.996094 171.046875 435.347656 171.199219 C 435.703125 171.351562 436.007812 171.566406 436.269531 171.847656 C 436.535156 172.128906 436.730469 172.449219 436.855469 172.8125 C 436.984375 173.171875 437.035156 173.546875 437.007812 173.929688 L 437.007812 312.699219 Z M 402.453125 312.699219 " fill-opacity="1" fill-rule="nonzero"/><path fill="#48bb78" d="M 440 312.699219 L 440 159.8125 C 439.972656 159.429688 440.023438 159.058594 440.152344 158.695312 C 440.28125 158.335938 440.476562 158.011719 440.738281 157.734375 C 441 157.453125 441.308594 157.238281 441.660156 157.085938 C 442.011719 156.933594 442.378906 156.855469 442.761719 156.855469 L 471.789062 156.855469 C 472.175781 156.855469 472.542969 156.933594 472.894531 157.085938 C 473.246094 157.238281 473.554688 157.453125 473.816406 157.734375 C 474.078125 158.011719 474.273438 158.335938 474.402344 158.695312 C 474.53125 159.058594 474.582031 159.429688 474.554688 159.8125 L 474.554688 312.699219 Z M 440 312.699219 " fill-opacity="1" fill-rule="nonzero"/><path fill="#48bb78" d="M 477.542969 312.699219 L 477.542969 145.695312 C 477.535156 145.324219 477.597656 144.960938 477.730469 144.613281 C 477.867188 144.265625 478.066406 143.957031 478.324219 143.691406 C 478.585938 143.421875 478.886719 143.214844 479.230469 143.070312 C 479.578125 142.925781 479.933594 142.851562 480.308594 142.851562 L 509.335938 142.851562 C 509.710938 142.851562 510.070312 142.925781 510.414062 143.070312 C 510.757812 143.214844 511.058594 143.421875 511.320312 143.691406 C 511.582031 143.957031 511.777344 144.265625 511.914062 144.613281 C 512.050781 144.960938 512.113281 145.324219 512.101562 145.695312 L 512.101562 312.699219 Z M 477.542969 312.699219 " fill-opacity="1" fill-rule="nonzero"/><path fill="#48bb78" d="M 515.089844 312.699219 L 515.089844 131.582031 C 515.078125 131.207031 515.140625 130.84375 515.277344 130.496094 C 515.410156 130.148438 515.609375 129.839844 515.871094 129.570312 C 516.128906 129.304688 516.433594 129.097656 516.777344 128.949219 C 517.121094 128.804688 517.480469 128.730469 517.855469 128.734375 L 546.882812 128.734375 C 547.257812 128.730469 547.617188 128.804688 547.960938 128.949219 C 548.304688 129.097656 548.605469 129.304688 548.867188 129.570312 C 549.128906 129.839844 549.324219 130.148438 549.460938 130.496094 C 549.597656 130.84375 549.660156 131.207031 549.648438 131.582031 L 549.648438 312.699219 Z M 515.089844 312.699219 " fill-opacity="1" fill-rule="nonzero"/><path fill="#48bb78" d="M 552.636719 312.699219 L 552.636719 117.464844 C 552.625 117.089844 552.683594 116.726562 552.820312 116.378906 C 552.957031 116.03125 553.152344 115.71875 553.414062 115.449219 C 553.675781 115.183594 553.976562 114.972656 554.320312 114.828125 C 554.667969 114.683594 555.027344 114.609375 555.402344 114.609375 L 584.429688 114.609375 C 584.804688 114.609375 585.164062 114.683594 585.507812 114.828125 C 585.851562 114.972656 586.15625 115.183594 586.417969 115.449219 C 586.675781 115.71875 586.875 116.03125 587.007812 116.378906 C 587.144531 116.726562 587.207031 117.089844 587.195312 117.464844 L 587.195312 312.699219 Z M 552.636719 312.699219 " fill-opacity="1" fill-rule="nonzero"/><path fill="#48bb78" d="M 590.183594 312.699219 L 590.183594 111.816406 C 590.167969 111.445312 590.230469 111.082031 590.367188 110.730469 C 590.5 110.382812 590.699219 110.070312 590.957031 109.800781 C 591.21875 109.535156 591.523438 109.324219 591.867188 109.179688 C 592.210938 109.03125 592.570312 108.960938 592.945312 108.960938 L 621.976562 108.960938 C 622.351562 108.960938 622.710938 109.03125 623.054688 109.179688 C 623.398438 109.324219 623.703125 109.535156 623.964844 109.800781 C 624.222656 110.070312 624.421875 110.382812 624.554688 110.730469 C 624.691406 111.082031 624.753906 111.445312 624.738281 111.816406 L 624.738281 312.699219 Z M 590.183594 312.699219 " fill-opacity="1" fill-rule="nonzero"/><path fill="#48bb78" d="M 627.726562 312.699219 L 627.726562 106.171875 C 627.714844 105.796875 627.777344 105.433594 627.910156 105.085938 C 628.046875 104.734375 628.242188 104.425781 628.503906 104.15625 C 628.765625 103.882812 629.066406 103.675781 629.414062 103.53125 C 629.757812 103.382812 630.117188 103.3125 630.492188 103.3125 L 659.519531 103.3125 C 659.894531 103.3125 660.257812 103.382812 660.601562 103.53125 C 660.945312 103.675781 661.25 103.882812 661.511719 104.15625 C 661.769531 104.425781 661.96875 104.734375 662.101562 105.085938 C 662.238281 105.433594 662.296875 105.796875 662.285156 106.171875 L 662.285156 312.699219 Z M 627.726562 312.699219 " fill-opacity="1" fill-rule="nonzero"/><g clip-path="url(#id2)"><path fill="#48bb78" d="M 665.273438 312.699219 L 665.273438 100.527344 C 665.261719 100.152344 665.320312 99.789062 665.457031 99.4375 C 665.589844 99.085938 665.789062 98.777344 666.050781 98.507812 C 666.308594 98.238281 666.613281 98.03125 666.957031 97.882812 C 667.304688 97.738281 667.664062 97.664062 668.039062 97.664062 L 697.066406 97.664062 C 697.441406 97.664062 697.800781 97.738281 698.148438 97.882812 C 698.492188 98.03125 698.796875 98.238281 699.054688 98.507812 C 699.316406 98.777344 699.515625 99.085938 699.648438 99.4375 C 699.785156 99.789062 699.84375 100.152344 699.832031 100.527344 L 699.832031 312.699219 Z M 665.273438 312.699219 " fill-opacity="1" fill-rule="nonzero"/></g><path fill="#feb2b2" d="M 289.8125 312.699219 L 289.8125 338.542969 C 289.8125 338.90625 289.882812 339.261719 290.023438 339.597656 C 290.164062 339.9375 290.363281 340.238281 290.625 340.496094 C 290.882812 340.757812 291.183594 340.957031 291.519531 341.097656 C 291.859375 341.238281 292.210938 341.308594 292.578125 341.308594 L 321.605469 341.308594 C 321.972656 341.308594 322.328125 341.238281 322.664062 341.097656 C 323.003906 340.957031 323.300781 340.757812 323.5625 340.496094 C 323.820312 340.238281 324.019531 339.9375 324.160156 339.597656 C 324.300781 339.261719 324.371094 338.90625 324.371094 338.542969 L 324.371094 312.699219 Z M 289.8125 312.699219 " fill-opacity="1" fill-rule="nonzero"/><path fill="#feb2b2" d="M 327.359375 312.699219 L 327.359375 344.1875 C 327.359375 344.492188 327.410156 344.789062 327.507812 345.078125 C 327.605469 345.367188 327.746094 345.628906 327.933594 345.871094 C 328.117188 346.113281 328.335938 346.320312 328.589844 346.488281 C 328.84375 346.65625 329.117188 346.78125 329.410156 346.859375 L 359.867188 346.859375 C 360.160156 346.78125 360.433594 346.65625 360.6875 346.488281 C 360.941406 346.320312 361.160156 346.113281 361.347656 345.871094 C 361.53125 345.628906 361.671875 345.367188 361.769531 345.078125 C 361.867188 344.789062 361.917969 344.492188 361.917969 344.1875 L 361.917969 312.699219 Z M 327.359375 312.699219 " fill-opacity="1" fill-rule="nonzero"/><path fill="#feb2b2" d="M 364.90625 312.699219 L 364.90625 349.835938 C 364.90625 350.40625 365.070312 350.929688 365.394531 351.402344 C 365.722656 351.875 366.152344 352.214844 366.6875 352.417969 L 397.683594 352.417969 C 398.21875 352.214844 398.648438 351.875 398.976562 351.402344 C 399.300781 350.929688 399.464844 350.40625 399.464844 349.835938 L 399.464844 312.699219 Z M 364.90625 312.699219 " fill-opacity="1" fill-rule="nonzero"/><path fill="#feb2b2" d="M 402.453125 312.699219 L 402.453125 355.480469 C 402.453125 356.046875 402.613281 356.566406 402.929688 357.035156 C 403.25 357.503906 403.671875 357.84375 404.203125 358.050781 L 435.261719 358.050781 C 435.789062 357.84375 436.210938 357.503906 436.53125 357.035156 C 436.851562 356.566406 437.007812 356.046875 437.007812 355.480469 L 437.007812 312.699219 Z M 402.453125 312.699219 " fill-opacity="1" fill-rule="nonzero"/><path fill="#feb2b2" d="M 440 312.699219 L 440 361.125 C 440 361.695312 440.160156 362.214844 440.480469 362.6875 C 440.800781 363.15625 441.226562 363.496094 441.753906 363.703125 L 472.796875 363.703125 C 473.328125 363.496094 473.753906 363.15625 474.074219 362.6875 C 474.394531 362.214844 474.554688 361.695312 474.554688 361.125 L 474.554688 312.699219 Z M 440 312.699219 " fill-opacity="1" fill-rule="nonzero"/><path fill="#feb2b2" d="M 477.542969 366.484375 L 512.101562 366.484375 L 512.101562 312.699219 L 477.542969 312.699219 Z M 477.542969 366.484375 " fill-opacity="1" fill-rule="nonzero"/><path fill="#feb2b2" d="M 515.089844 367.890625 L 549.648438 367.890625 L 549.648438 312.699219 L 515.089844 312.699219 Z M 515.089844 367.890625 " fill-opacity="1" fill-rule="nonzero"/><path fill="#feb2b2" d="M 552.636719 369.296875 L 587.195312 369.296875 L 587.195312 312.699219 L 552.636719 312.699219 Z M 552.636719 369.296875 " fill-opacity="1" fill-rule="nonzero"/><path fill="#feb2b2" d="M 590.183594 369.292969 L 624.738281 369.292969 L 624.738281 312.699219 L 590.183594 312.699219 Z M 590.183594 369.292969 " fill-opacity="1" fill-rule="nonzero"/><path fill="#feb2b2" d="M 627.726562 369.289062 L 662.285156 369.289062 L 662.285156 312.699219 L 627.726562 312.699219 Z M 627.726562 369.289062 " fill-opacity="1" fill-rule="nonzero"/><g clip-path="url(#id3)"><path fill="#feb2b2" d="M 665.273438 369.289062 L 699.832031 369.289062 L 699.832031 312.699219 L 665.273438 312.699219 Z M 665.273438 369.289062 " fill-opacity="1" fill-rule="nonzero"/></g><g clip-path="url(#id4)"><path fill="#f34c88" d="M 102.085938 312.699219 L 102.085938 338.542969 C 102.058594 338.738281 102.050781 338.933594 102.066406 339.132812 C 102.082031 339.332031 102.121094 339.523438 102.175781 339.714844 C 102.234375 339.90625 102.3125 340.085938 102.40625 340.261719 C 102.503906 340.433594 102.617188 340.59375 102.75 340.746094 C 102.878906 340.894531 103.023438 341.027344 103.183594 341.144531 C 103.34375 341.261719 103.515625 341.359375 103.695312 341.441406 C 103.878906 341.523438 104.066406 341.582031 104.261719 341.625 C 104.453125 341.664062 104.652344 341.683594 104.847656 341.683594 L 133.878906 341.683594 C 134.074219 341.683594 134.273438 341.664062 134.464844 341.625 C 134.660156 341.582031 134.847656 341.523438 135.03125 341.441406 C 135.210938 341.359375 135.382812 341.261719 135.542969 341.144531 C 135.699219 341.027344 135.847656 340.894531 135.976562 340.746094 C 136.109375 340.59375 136.222656 340.433594 136.320312 340.261719 C 136.414062 340.085938 136.492188 339.90625 136.550781 339.714844 C 136.605469 339.523438 136.644531 339.332031 136.660156 339.132812 C 136.675781 338.933594 136.667969 338.738281 136.640625 338.542969 L 136.640625 312.699219 Z M 102.085938 312.699219 " fill-opacity="1" fill-rule="nonzero"/></g><path fill="#f34c88" d="M 139.628906 312.699219 L 139.628906 395.003906 C 139.605469 395.203125 139.597656 395.398438 139.613281 395.597656 C 139.628906 395.796875 139.664062 395.988281 139.722656 396.179688 C 139.78125 396.371094 139.855469 396.550781 139.953125 396.726562 C 140.050781 396.898438 140.164062 397.058594 140.292969 397.207031 C 140.425781 397.359375 140.570312 397.492188 140.730469 397.609375 C 140.890625 397.726562 141.0625 397.824219 141.242188 397.90625 C 141.425781 397.988281 141.613281 398.046875 141.804688 398.089844 C 142 398.128906 142.195312 398.148438 142.394531 398.144531 L 171.421875 398.144531 C 171.621094 398.148438 171.816406 398.128906 172.011719 398.089844 C 172.207031 398.046875 172.394531 397.988281 172.574219 397.90625 C 172.757812 397.824219 172.925781 397.726562 173.085938 397.609375 C 173.246094 397.492188 173.390625 397.359375 173.523438 397.207031 C 173.65625 397.058594 173.769531 396.898438 173.863281 396.726562 C 173.960938 396.550781 174.039062 396.371094 174.09375 396.179688 C 174.152344 395.988281 174.1875 395.796875 174.203125 395.597656 C 174.21875 395.398438 174.214844 395.203125 174.1875 395.003906 L 174.1875 312.699219 Z M 139.628906 312.699219 " fill-opacity="1" fill-rule="nonzero"/><path fill="#f34c88" d="M 177.175781 312.699219 L 177.175781 451.46875 C 177.148438 451.667969 177.144531 451.863281 177.160156 452.0625 C 177.175781 452.257812 177.210938 452.453125 177.269531 452.644531 C 177.324219 452.832031 177.402344 453.015625 177.5 453.1875 C 177.597656 453.363281 177.710938 453.523438 177.839844 453.671875 C 177.972656 453.820312 178.117188 453.953125 178.277344 454.074219 C 178.4375 454.191406 178.609375 454.289062 178.789062 454.371094 C 178.96875 454.453125 179.15625 454.511719 179.351562 454.550781 C 179.546875 454.59375 179.742188 454.613281 179.941406 454.609375 L 208.96875 454.609375 C 209.167969 454.613281 209.363281 454.59375 209.558594 454.550781 C 209.753906 454.511719 209.941406 454.453125 210.121094 454.371094 C 210.300781 454.289062 210.472656 454.191406 210.632812 454.074219 C 210.792969 453.953125 210.9375 453.820312 211.070312 453.671875 C 211.199219 453.523438 211.316406 453.363281 211.410156 453.1875 C 211.507812 453.015625 211.585938 452.832031 211.640625 452.644531 C 211.699219 452.453125 211.734375 452.257812 211.75 452.0625 C 211.765625 451.863281 211.761719 451.667969 211.734375 451.46875 L 211.734375 312.699219 Z M 177.175781 312.699219 " fill-opacity="1" fill-rule="nonzero"/><path fill="#f34c88" d="M 214.722656 312.699219 L 214.722656 395.003906 C 214.695312 395.203125 214.691406 395.398438 214.707031 395.597656 C 214.722656 395.796875 214.757812 395.988281 214.816406 396.179688 C 214.871094 396.371094 214.949219 396.550781 215.046875 396.726562 C 215.140625 396.898438 215.253906 397.058594 215.386719 397.207031 C 215.519531 397.359375 215.664062 397.492188 215.824219 397.609375 C 215.984375 397.726562 216.152344 397.824219 216.335938 397.90625 C 216.515625 397.988281 216.703125 398.046875 216.898438 398.089844 C 217.09375 398.128906 217.289062 398.148438 217.488281 398.144531 L 246.515625 398.144531 C 246.714844 398.148438 246.910156 398.128906 247.105469 398.089844 C 247.296875 398.046875 247.484375 397.988281 247.667969 397.90625 C 247.847656 397.824219 248.019531 397.726562 248.179688 397.609375 C 248.339844 397.492188 248.484375 397.359375 248.617188 397.207031 C 248.746094 397.058594 248.859375 396.898438 248.957031 396.726562 C 249.054688 396.550781 249.128906 396.371094 249.1875 396.179688 C 249.246094 395.988281 249.28125 395.796875 249.296875 395.597656 C 249.3125 395.398438 249.308594 395.203125 249.28125 395.003906 L 249.28125 312.699219 Z M 214.722656 312.699219 " fill-opacity="1" fill-rule="nonzero"/><path fill="#f34c88" d="M 252.269531 312.699219 L 252.269531 366.773438 C 252.242188 366.96875 252.234375 367.167969 252.25 367.367188 C 252.265625 367.5625 252.304688 367.757812 252.359375 367.945312 C 252.417969 368.136719 252.496094 368.320312 252.589844 368.492188 C 252.6875 368.667969 252.800781 368.828125 252.933594 368.976562 C 253.0625 369.125 253.210938 369.257812 253.367188 369.375 C 253.527344 369.492188 253.699219 369.59375 253.878906 369.675781 C 254.0625 369.753906 254.25 369.816406 254.445312 369.855469 C 254.636719 369.898438 254.835938 369.914062 255.03125 369.914062 L 284.0625 369.914062 C 284.257812 369.914062 284.457031 369.898438 284.648438 369.855469 C 284.84375 369.816406 285.03125 369.753906 285.214844 369.675781 C 285.394531 369.59375 285.566406 369.492188 285.726562 369.375 C 285.886719 369.257812 286.03125 369.125 286.160156 368.976562 C 286.292969 368.828125 286.40625 368.667969 286.503906 368.492188 C 286.597656 368.320312 286.675781 368.136719 286.734375 367.945312 C 286.789062 367.757812 286.828125 367.5625 286.84375 367.367188 C 286.859375 367.167969 286.851562 366.96875 286.824219 366.773438 L 286.824219 312.699219 Z M 252.269531 312.699219 " fill-opacity="1" fill-rule="nonzero"/><g fill="#ffffff" fill-opacity="1"><g transform="translate(292.5691, 518.726014)"><g><path d="M 11.953125 -10.84375 C 11.953125 -9.570312 11.515625 -8.515625 10.640625 -7.671875 C 9.765625 -6.828125 8.429688 -6.40625 6.640625 -6.40625 L 3.703125 -6.40625 L 3.703125 0 L 1.6875 0 L 1.6875 -15.328125 L 6.640625 -15.328125 C 8.367188 -15.328125 9.6875 -14.910156 10.59375 -14.078125 C 11.5 -13.242188 11.953125 -12.164062 11.953125 -10.84375 Z M 6.640625 -8.046875 C 7.753906 -8.046875 8.578125 -8.285156 9.109375 -8.765625 C 9.640625 -9.253906 9.90625 -9.945312 9.90625 -10.84375 C 9.90625 -12.738281 8.816406 -13.6875 6.640625 -13.6875 L 3.703125 -13.6875 L 3.703125 -8.046875 Z M 6.640625 -8.046875 "/></g></g></g><g fill="#ffffff" fill-opacity="1"><g transform="translate(305.304829, 518.726014)"><g><path d="M 3.703125 -10.09375 C 4.046875 -10.78125 4.546875 -11.316406 5.203125 -11.703125 C 5.859375 -12.085938 6.65625 -12.28125 7.59375 -12.28125 L 7.59375 -10.203125 L 7.0625 -10.203125 C 4.820312 -10.203125 3.703125 -8.988281 3.703125 -6.5625 L 3.703125 0 L 1.6875 0 L 1.6875 -12.0625 L 3.703125 -12.0625 Z M 3.703125 -10.09375 "/></g></g></g><g fill="#ffffff" fill-opacity="1"><g transform="translate(313.509361, 518.726014)"><g><path d="M 6.953125 0.203125 C 5.828125 0.203125 4.804688 -0.0507812 3.890625 -0.5625 C 2.972656 -1.082031 2.253906 -1.816406 1.734375 -2.765625 C 1.210938 -3.710938 0.953125 -4.804688 0.953125 -6.046875 C 0.953125 -7.273438 1.21875 -8.363281 1.75 -9.3125 C 2.28125 -10.257812 3.007812 -10.984375 3.9375 -11.484375 C 4.863281 -11.992188 5.898438 -12.25 7.046875 -12.25 C 8.179688 -12.25 9.210938 -11.992188 10.140625 -11.484375 C 11.066406 -10.984375 11.796875 -10.265625 12.328125 -9.328125 C 12.867188 -8.390625 13.140625 -7.296875 13.140625 -6.046875 C 13.140625 -4.804688 12.863281 -3.710938 12.3125 -2.765625 C 11.757812 -1.816406 11.015625 -1.082031 10.078125 -0.5625 C 9.140625 -0.0507812 8.097656 0.203125 6.953125 0.203125 Z M 6.953125 -1.5625 C 7.671875 -1.5625 8.34375 -1.726562 8.96875 -2.0625 C 9.601562 -2.40625 10.113281 -2.910156 10.5 -3.578125 C 10.894531 -4.253906 11.09375 -5.078125 11.09375 -6.046875 C 11.09375 -7.015625 10.898438 -7.835938 10.515625 -8.515625 C 10.128906 -9.191406 9.628906 -9.691406 9.015625 -10.015625 C 8.398438 -10.347656 7.734375 -10.515625 7.015625 -10.515625 C 6.285156 -10.515625 5.613281 -10.347656 5 -10.015625 C 4.394531 -9.691406 3.90625 -9.191406 3.53125 -8.515625 C 3.164062 -7.835938 2.984375 -7.015625 2.984375 -6.046875 C 2.984375 -5.066406 3.160156 -4.238281 3.515625 -3.5625 C 3.878906 -2.882812 4.363281 -2.378906 4.96875 -2.046875 C 5.570312 -1.722656 6.234375 -1.5625 6.953125 -1.5625 Z M 6.953125 -1.5625 "/></g></g></g><g fill="#ffffff" fill-opacity="1"><g transform="translate(327.586852, 518.726014)"><g><path d="M 2.765625 -14.015625 C 2.390625 -14.015625 2.070312 -14.144531 1.8125 -14.40625 C 1.5625 -14.675781 1.4375 -15 1.4375 -15.375 C 1.4375 -15.757812 1.5625 -16.082031 1.8125 -16.34375 C 2.070312 -16.601562 2.390625 -16.734375 2.765625 -16.734375 C 3.148438 -16.734375 3.46875 -16.601562 3.71875 -16.34375 C 3.976562 -16.082031 4.109375 -15.757812 4.109375 -15.375 C 4.109375 -15 3.976562 -14.675781 3.71875 -14.40625 C 3.46875 -14.144531 3.148438 -14.015625 2.765625 -14.015625 Z M 3.765625 2.625 C 3.765625 3.6875 3.492188 4.46875 2.953125 4.96875 C 2.410156 5.46875 1.617188 5.71875 0.578125 5.71875 L -0.59375 5.71875 L -0.59375 4.03125 L 0.234375 4.03125 C 0.796875 4.03125 1.191406 3.914062 1.421875 3.6875 C 1.648438 3.46875 1.765625 3.097656 1.765625 2.578125 L 1.765625 -12.0625 L 3.765625 -12.0625 Z M 3.765625 2.625 "/></g></g></g><g fill="#ffffff" fill-opacity="1"><g transform="translate(333.041884, 518.726014)"><g><path d="M 12.6875 -6.484375 C 12.6875 -6.109375 12.664062 -5.707031 12.625 -5.28125 L 2.984375 -5.28125 C 3.066406 -4.09375 3.476562 -3.164062 4.21875 -2.5 C 4.957031 -1.832031 5.851562 -1.5 6.90625 -1.5 C 7.769531 -1.5 8.488281 -1.695312 9.0625 -2.09375 C 9.644531 -2.5 10.054688 -3.039062 10.296875 -3.71875 L 12.453125 -3.71875 C 12.128906 -2.5625 11.484375 -1.617188 10.515625 -0.890625 C 9.546875 -0.160156 8.34375 0.203125 6.90625 0.203125 C 5.757812 0.203125 4.734375 -0.0507812 3.828125 -0.5625 C 2.929688 -1.082031 2.226562 -1.816406 1.71875 -2.765625 C 1.207031 -3.710938 0.953125 -4.804688 0.953125 -6.046875 C 0.953125 -7.296875 1.195312 -8.390625 1.6875 -9.328125 C 2.1875 -10.265625 2.882812 -10.984375 3.78125 -11.484375 C 4.6875 -11.992188 5.726562 -12.25 6.90625 -12.25 C 8.050781 -12.25 9.0625 -12 9.9375 -11.5 C 10.820312 -11.007812 11.5 -10.328125 11.96875 -9.453125 C 12.445312 -8.578125 12.6875 -7.585938 12.6875 -6.484375 Z M 10.625 -6.90625 C 10.625 -7.664062 10.453125 -8.320312 10.109375 -8.875 C 9.773438 -9.425781 9.316406 -9.84375 8.734375 -10.125 C 8.160156 -10.414062 7.519531 -10.5625 6.8125 -10.5625 C 5.800781 -10.5625 4.941406 -10.238281 4.234375 -9.59375 C 3.523438 -8.945312 3.117188 -8.050781 3.015625 -6.90625 Z M 10.625 -6.90625 "/></g></g></g><g fill="#ffffff" fill-opacity="1"><g transform="translate(346.679453, 518.726014)"><g><path d="M 0.953125 -6.046875 C 0.953125 -7.296875 1.195312 -8.382812 1.6875 -9.3125 C 2.1875 -10.25 2.878906 -10.972656 3.765625 -11.484375 C 4.660156 -11.992188 5.675781 -12.25 6.8125 -12.25 C 8.300781 -12.25 9.523438 -11.890625 10.484375 -11.171875 C 11.441406 -10.453125 12.078125 -9.457031 12.390625 -8.1875 L 10.234375 -8.1875 C 10.023438 -8.914062 9.625 -9.492188 9.03125 -9.921875 C 8.4375 -10.347656 7.695312 -10.5625 6.8125 -10.5625 C 5.675781 -10.5625 4.753906 -10.164062 4.046875 -9.375 C 3.335938 -8.59375 2.984375 -7.484375 2.984375 -6.046875 C 2.984375 -4.597656 3.335938 -3.476562 4.046875 -2.6875 C 4.753906 -1.894531 5.675781 -1.5 6.8125 -1.5 C 7.695312 -1.5 8.429688 -1.703125 9.015625 -2.109375 C 9.609375 -2.523438 10.015625 -3.113281 10.234375 -3.875 L 12.390625 -3.875 C 12.066406 -2.644531 11.421875 -1.65625 10.453125 -0.90625 C 9.484375 -0.164062 8.269531 0.203125 6.8125 0.203125 C 5.675781 0.203125 4.660156 -0.0507812 3.765625 -0.5625 C 2.878906 -1.082031 2.1875 -1.8125 1.6875 -2.75 C 1.195312 -3.6875 0.953125 -4.785156 0.953125 -6.046875 Z M 0.953125 -6.046875 "/></g></g></g><g fill="#ffffff" fill-opacity="1"><g transform="translate(360.031069, 518.726014)"><g><path d="M 4.140625 -10.40625 L 4.140625 -3.296875 C 4.140625 -2.710938 4.265625 -2.296875 4.515625 -2.046875 C 4.765625 -1.804688 5.195312 -1.6875 5.8125 -1.6875 L 7.28125 -1.6875 L 7.28125 0 L 5.484375 0 C 4.367188 0 3.53125 -0.253906 2.96875 -0.765625 C 2.414062 -1.285156 2.140625 -2.128906 2.140625 -3.296875 L 2.140625 -10.40625 L 0.578125 -10.40625 L 0.578125 -12.0625 L 2.140625 -12.0625 L 2.140625 -15.09375 L 4.140625 -15.09375 L 4.140625 -12.0625 L 7.28125 -12.0625 L 7.28125 -10.40625 Z M 4.140625 -10.40625 "/></g></g></g><g fill="#ffffff" fill-opacity="1"><g transform="translate(368.037641, 518.726014)"><g/></g></g><g fill="#ffffff" fill-opacity="1"><g transform="translate(373.9106, 518.726014)"><g><path d="M 3.703125 -1.625 L 9.0625 -1.625 L 9.0625 0 L 1.6875 0 L 1.6875 -15.328125 L 3.703125 -15.328125 Z M 3.703125 -1.625 "/></g></g></g><g fill="#ffffff" fill-opacity="1"><g transform="translate(383.412904, 518.726014)"><g><path d="M 2.734375 -14.015625 C 2.347656 -14.015625 2.019531 -14.144531 1.75 -14.40625 C 1.488281 -14.675781 1.359375 -15 1.359375 -15.375 C 1.359375 -15.757812 1.488281 -16.082031 1.75 -16.34375 C 2.019531 -16.601562 2.347656 -16.734375 2.734375 -16.734375 C 3.097656 -16.734375 3.40625 -16.601562 3.65625 -16.34375 C 3.914062 -16.082031 4.046875 -15.757812 4.046875 -15.375 C 4.046875 -15 3.914062 -14.675781 3.65625 -14.40625 C 3.40625 -14.144531 3.097656 -14.015625 2.734375 -14.015625 Z M 3.703125 -12.0625 L 3.703125 0 L 1.6875 0 L 1.6875 -12.0625 Z M 3.703125 -12.0625 "/></g></g></g><g fill="#ffffff" fill-opacity="1"><g transform="translate(388.823945, 518.726014)"><g><path d="M 6.59375 -10.40625 L 4.0625 -10.40625 L 4.0625 0 L 2.0625 0 L 2.0625 -10.40625 L 0.5 -10.40625 L 0.5 -12.0625 L 2.0625 -12.0625 L 2.0625 -12.90625 C 2.0625 -14.257812 2.410156 -15.25 3.109375 -15.875 C 3.804688 -16.5 4.925781 -16.8125 6.46875 -16.8125 L 6.46875 -15.140625 C 5.582031 -15.140625 4.957031 -14.96875 4.59375 -14.625 C 4.238281 -14.28125 4.0625 -13.707031 4.0625 -12.90625 L 4.0625 -12.0625 L 6.59375 -12.0625 Z M 6.59375 -10.40625 "/></g></g></g><g fill="#ffffff" fill-opacity="1"><g transform="translate(396.06065, 518.726014)"><g><path d="M 12.6875 -6.484375 C 12.6875 -6.109375 12.664062 -5.707031 12.625 -5.28125 L 2.984375 -5.28125 C 3.066406 -4.09375 3.476562 -3.164062 4.21875 -2.5 C 4.957031 -1.832031 5.851562 -1.5 6.90625 -1.5 C 7.769531 -1.5 8.488281 -1.695312 9.0625 -2.09375 C 9.644531 -2.5 10.054688 -3.039062 10.296875 -3.71875 L 12.453125 -3.71875 C 12.128906 -2.5625 11.484375 -1.617188 10.515625 -0.890625 C 9.546875 -0.160156 8.34375 0.203125 6.90625 0.203125 C 5.757812 0.203125 4.734375 -0.0507812 3.828125 -0.5625 C 2.929688 -1.082031 2.226562 -1.816406 1.71875 -2.765625 C 1.207031 -3.710938 0.953125 -4.804688 0.953125 -6.046875 C 0.953125 -7.296875 1.195312 -8.390625 1.6875 -9.328125 C 2.1875 -10.265625 2.882812 -10.984375 3.78125 -11.484375 C 4.6875 -11.992188 5.726562 -12.25 6.90625 -12.25 C 8.050781 -12.25 9.0625 -12 9.9375 -11.5 C 10.820312 -11.007812 11.5 -10.328125 11.96875 -9.453125 C 12.445312 -8.578125 12.6875 -7.585938 12.6875 -6.484375 Z M 10.625 -6.90625 C 10.625 -7.664062 10.453125 -8.320312 10.109375 -8.875 C 9.773438 -9.425781 9.316406 -9.84375 8.734375 -10.125 C 8.160156 -10.414062 7.519531 -10.5625 6.8125 -10.5625 C 5.800781 -10.5625 4.941406 -10.238281 4.234375 -9.59375 C 3.523438 -8.945312 3.117188 -8.050781 3.015625 -6.90625 Z M 10.625 -6.90625 "/></g></g></g><g fill="#ffffff" fill-opacity="1"><g transform="translate(409.698219, 518.726014)"><g/></g></g><g fill="#ffffff" fill-opacity="1"><g transform="translate(415.571178, 518.726014)"><g><path d="M 6.84375 4.09375 C 5.4375 2.71875 4.335938 0.96875 3.546875 -1.15625 C 2.765625 -3.289062 2.375 -5.585938 2.375 -8.046875 C 2.375 -10.578125 2.785156 -12.9375 3.609375 -15.125 C 4.441406 -17.3125 5.628906 -19.117188 7.171875 -20.546875 L 9.265625 -20.546875 L 9.265625 -20.34375 C 7.617188 -18.8125 6.378906 -16.960938 5.546875 -14.796875 C 4.722656 -12.628906 4.3125 -10.378906 4.3125 -8.046875 C 4.3125 -5.773438 4.703125 -3.601562 5.484375 -1.53125 C 6.273438 0.53125 7.425781 2.335938 8.9375 3.890625 L 8.9375 4.09375 Z M 6.84375 4.09375 "/></g></g></g><g fill="#ffffff" fill-opacity="1"><g transform="translate(425.557395, 518.726014)"><g><path d="M 12.4375 -15.328125 L 7.4375 -5.78125 L 7.4375 0 L 5.4375 0 L 5.4375 -5.78125 L 0.421875 -15.328125 L 2.640625 -15.328125 L 6.421875 -7.5625 L 10.203125 -15.328125 Z M 12.4375 -15.328125 "/></g></g></g><g fill="#ffffff" fill-opacity="1"><g transform="translate(438.403101, 518.726014)"><g><path d="M 12.6875 -6.484375 C 12.6875 -6.109375 12.664062 -5.707031 12.625 -5.28125 L 2.984375 -5.28125 C 3.066406 -4.09375 3.476562 -3.164062 4.21875 -2.5 C 4.957031 -1.832031 5.851562 -1.5 6.90625 -1.5 C 7.769531 -1.5 8.488281 -1.695312 9.0625 -2.09375 C 9.644531 -2.5 10.054688 -3.039062 10.296875 -3.71875 L 12.453125 -3.71875 C 12.128906 -2.5625 11.484375 -1.617188 10.515625 -0.890625 C 9.546875 -0.160156 8.34375 0.203125 6.90625 0.203125 C 5.757812 0.203125 4.734375 -0.0507812 3.828125 -0.5625 C 2.929688 -1.082031 2.226562 -1.816406 1.71875 -2.765625 C 1.207031 -3.710938 0.953125 -4.804688 0.953125 -6.046875 C 0.953125 -7.296875 1.195312 -8.390625 1.6875 -9.328125 C 2.1875 -10.265625 2.882812 -10.984375 3.78125 -11.484375 C 4.6875 -11.992188 5.726562 -12.25 6.90625 -12.25 C 8.050781 -12.25 9.0625 -12 9.9375 -11.5 C 10.820312 -11.007812 11.5 -10.328125 11.96875 -9.453125 C 12.445312 -8.578125 12.6875 -7.585938 12.6875 -6.484375 Z M 10.625 -6.90625 C 10.625 -7.664062 10.453125 -8.320312 10.109375 -8.875 C 9.773438 -9.425781 9.316406 -9.84375 8.734375 -10.125 C 8.160156 -10.414062 7.519531 -10.5625 6.8125 -10.5625 C 5.800781 -10.5625 4.941406 -10.238281 4.234375 -9.59375 C 3.523438 -8.945312 3.117188 -8.050781 3.015625 -6.90625 Z M 10.625 -6.90625 "/></g></g></g><g fill="#ffffff" fill-opacity="1"><g transform="translate(452.04067, 518.726014)"><g><path d="M 0.953125 -6.078125 C 0.953125 -7.304688 1.195312 -8.382812 1.6875 -9.3125 C 2.1875 -10.25 2.875 -10.972656 3.75 -11.484375 C 4.625 -11.992188 5.597656 -12.25 6.671875 -12.25 C 7.722656 -12.25 8.632812 -12.019531 9.40625 -11.5625 C 10.1875 -11.113281 10.769531 -10.546875 11.15625 -9.859375 L 11.15625 -12.0625 L 13.171875 -12.0625 L 13.171875 0 L 11.15625 0 L 11.15625 -2.25 C 10.757812 -1.539062 10.164062 -0.953125 9.375 -0.484375 C 8.59375 -0.0234375 7.679688 0.203125 6.640625 0.203125 C 5.566406 0.203125 4.597656 -0.0625 3.734375 -0.59375 C 2.867188 -1.125 2.1875 -1.863281 1.6875 -2.8125 C 1.195312 -3.769531 0.953125 -4.859375 0.953125 -6.078125 Z M 11.15625 -6.046875 C 11.15625 -6.953125 10.96875 -7.742188 10.59375 -8.421875 C 10.226562 -9.097656 9.734375 -9.613281 9.109375 -9.96875 C 8.492188 -10.332031 7.8125 -10.515625 7.0625 -10.515625 C 6.3125 -10.515625 5.628906 -10.335938 5.015625 -9.984375 C 4.398438 -9.628906 3.90625 -9.113281 3.53125 -8.4375 C 3.164062 -7.769531 2.984375 -6.984375 2.984375 -6.078125 C 2.984375 -5.148438 3.164062 -4.34375 3.53125 -3.65625 C 3.90625 -2.976562 4.398438 -2.457031 5.015625 -2.09375 C 5.628906 -1.738281 6.3125 -1.5625 7.0625 -1.5625 C 7.8125 -1.5625 8.492188 -1.738281 9.109375 -2.09375 C 9.734375 -2.457031 10.226562 -2.976562 10.59375 -3.65625 C 10.96875 -4.34375 11.15625 -5.140625 11.15625 -6.046875 Z M 11.15625 -6.046875 "/></g></g></g><g fill="#ffffff" fill-opacity="1"><g transform="translate(466.910024, 518.726014)"><g><path d="M 3.703125 -10.09375 C 4.046875 -10.78125 4.546875 -11.316406 5.203125 -11.703125 C 5.859375 -12.085938 6.65625 -12.28125 7.59375 -12.28125 L 7.59375 -10.203125 L 7.0625 -10.203125 C 4.820312 -10.203125 3.703125 -8.988281 3.703125 -6.5625 L 3.703125 0 L 1.6875 0 L 1.6875 -12.0625 L 3.703125 -12.0625 Z M 3.703125 -10.09375 "/></g></g></g><g fill="#ffffff" fill-opacity="1"><g transform="translate(475.114557, 518.726014)"><g><path d="M 5.96875 0.203125 C 5.039062 0.203125 4.207031 0.046875 3.46875 -0.265625 C 2.738281 -0.585938 2.160156 -1.03125 1.734375 -1.59375 C 1.304688 -2.15625 1.070312 -2.804688 1.03125 -3.546875 L 3.109375 -3.546875 C 3.160156 -2.941406 3.4375 -2.445312 3.9375 -2.0625 C 4.445312 -1.6875 5.113281 -1.5 5.9375 -1.5 C 6.695312 -1.5 7.296875 -1.664062 7.734375 -2 C 8.179688 -2.34375 8.40625 -2.769531 8.40625 -3.28125 C 8.40625 -3.800781 8.171875 -4.191406 7.703125 -4.453125 C 7.234375 -4.710938 6.503906 -4.96875 5.515625 -5.21875 C 4.628906 -5.445312 3.898438 -5.679688 3.328125 -5.921875 C 2.765625 -6.171875 2.28125 -6.53125 1.875 -7 C 1.476562 -7.476562 1.28125 -8.109375 1.28125 -8.890625 C 1.28125 -9.503906 1.460938 -10.066406 1.828125 -10.578125 C 2.191406 -11.097656 2.710938 -11.503906 3.390625 -11.796875 C 4.066406 -12.097656 4.835938 -12.25 5.703125 -12.25 C 7.035156 -12.25 8.109375 -11.910156 8.921875 -11.234375 C 9.742188 -10.566406 10.1875 -9.644531 10.25 -8.46875 L 8.25 -8.46875 C 8.207031 -9.101562 7.953125 -9.609375 7.484375 -9.984375 C 7.023438 -10.367188 6.40625 -10.5625 5.625 -10.5625 C 4.90625 -10.5625 4.332031 -10.40625 3.90625 -10.09375 C 3.488281 -9.789062 3.28125 -9.390625 3.28125 -8.890625 C 3.28125 -8.492188 3.40625 -8.164062 3.65625 -7.90625 C 3.914062 -7.65625 4.238281 -7.453125 4.625 -7.296875 C 5.019531 -7.140625 5.5625 -6.96875 6.25 -6.78125 C 7.113281 -6.539062 7.816406 -6.304688 8.359375 -6.078125 C 8.898438 -5.847656 9.363281 -5.503906 9.75 -5.046875 C 10.144531 -4.597656 10.347656 -4.007812 10.359375 -3.28125 C 10.359375 -2.613281 10.175781 -2.015625 9.8125 -1.484375 C 9.445312 -0.960938 8.929688 -0.550781 8.265625 -0.25 C 7.597656 0.0507812 6.832031 0.203125 5.96875 0.203125 Z M 5.96875 0.203125 "/></g></g></g><g fill="#ffffff" fill-opacity="1"><g transform="translate(486.596505, 518.726014)"><g><path d="M 1.0625 4.09375 L 1.0625 3.890625 C 2.570312 2.335938 3.71875 0.53125 4.5 -1.53125 C 5.28125 -3.601562 5.671875 -5.773438 5.671875 -8.046875 C 5.671875 -10.378906 5.253906 -12.628906 4.421875 -14.796875 C 3.597656 -16.960938 2.363281 -18.8125 0.71875 -20.34375 L 0.71875 -20.546875 L 2.8125 -20.546875 C 4.351562 -19.117188 5.535156 -17.3125 6.359375 -15.125 C 7.191406 -12.9375 7.609375 -10.578125 7.609375 -8.046875 C 7.609375 -5.585938 7.21875 -3.289062 6.4375 -1.15625 C 5.65625 0.96875 4.554688 2.71875 3.140625 4.09375 Z M 1.0625 4.09375 "/></g></g></g><g fill="#ffffff" fill-opacity="1"><g transform="translate(78.653126, 329.660632)"><g><path d="M -7.671875 -0.953125 C -9.171875 -0.953125 -10.519531 -1.285156 -11.71875 -1.953125 C -12.914062 -2.628906 -13.847656 -3.550781 -14.515625 -4.71875 C -15.191406 -5.882812 -15.53125 -7.179688 -15.53125 -8.609375 C -15.53125 -10.273438 -15.125 -11.726562 -14.3125 -12.96875 C -13.507812 -14.21875 -12.367188 -15.128906 -10.890625 -15.703125 L -10.890625 -13.3125 C -11.816406 -12.882812 -12.523438 -12.269531 -13.015625 -11.46875 C -13.515625 -10.675781 -13.765625 -9.722656 -13.765625 -8.609375 C -13.765625 -7.535156 -13.515625 -6.570312 -13.015625 -5.71875 C -12.523438 -4.863281 -11.820312 -4.191406 -10.90625 -3.703125 C -9.988281 -3.222656 -8.910156 -2.984375 -7.671875 -2.984375 C -6.460938 -2.984375 -5.398438 -3.222656 -4.484375 -3.703125 C -3.566406 -4.191406 -2.859375 -4.863281 -2.359375 -5.71875 C -1.859375 -6.570312 -1.609375 -7.535156 -1.609375 -8.609375 C -1.609375 -9.722656 -1.851562 -10.675781 -2.34375 -11.46875 C -2.832031 -12.269531 -3.539062 -12.882812 -4.46875 -13.3125 L -4.46875 -15.703125 C -3 -15.128906 -1.863281 -14.21875 -1.0625 -12.96875 C -0.269531 -11.726562 0.125 -10.273438 0.125 -8.609375 C 0.125 -7.179688 -0.207031 -5.882812 -0.875 -4.71875 C -1.539062 -3.550781 -2.46875 -2.628906 -3.65625 -1.953125 C -4.84375 -1.285156 -6.179688 -0.953125 -7.671875 -0.953125 Z M -7.671875 -0.953125 "/></g></g></g><g fill="#ffffff" fill-opacity="1"><g transform="translate(78.653126, 312.67966)"><g><path d="M -6.078125 -0.953125 C -7.304688 -0.953125 -8.382812 -1.195312 -9.3125 -1.6875 C -10.25 -2.1875 -10.972656 -2.875 -11.484375 -3.75 C -11.992188 -4.625 -12.25 -5.597656 -12.25 -6.671875 C -12.25 -7.722656 -12.019531 -8.632812 -11.5625 -9.40625 C -11.113281 -10.1875 -10.546875 -10.769531 -9.859375 -11.15625 L -12.0625 -11.15625 L -12.0625 -13.171875 L 0 -13.171875 L 0 -11.15625 L -2.25 -11.15625 C -1.539062 -10.757812 -0.953125 -10.164062 -0.484375 -9.375 C -0.0234375 -8.59375 0.203125 -7.679688 0.203125 -6.640625 C 0.203125 -5.566406 -0.0625 -4.597656 -0.59375 -3.734375 C -1.125 -2.867188 -1.863281 -2.1875 -2.8125 -1.6875 C -3.769531 -1.195312 -4.859375 -0.953125 -6.078125 -0.953125 Z M -6.046875 -11.15625 C -6.953125 -11.15625 -7.742188 -10.96875 -8.421875 -10.59375 C -9.097656 -10.226562 -9.613281 -9.734375 -9.96875 -9.109375 C -10.332031 -8.492188 -10.515625 -7.8125 -10.515625 -7.0625 C -10.515625 -6.3125 -10.335938 -5.628906 -9.984375 -5.015625 C -9.628906 -4.398438 -9.113281 -3.90625 -8.4375 -3.53125 C -7.769531 -3.164062 -6.984375 -2.984375 -6.078125 -2.984375 C -5.148438 -2.984375 -4.34375 -3.164062 -3.65625 -3.53125 C -2.976562 -3.90625 -2.457031 -4.398438 -2.09375 -5.015625 C -1.738281 -5.628906 -1.5625 -6.3125 -1.5625 -7.0625 C -1.5625 -7.8125 -1.738281 -8.492188 -2.09375 -9.109375 C -2.457031 -9.734375 -2.976562 -10.226562 -3.65625 -10.59375 C -4.34375 -10.96875 -5.140625 -11.15625 -6.046875 -11.15625 Z M -6.046875 -11.15625 "/></g></g></g><g fill="#ffffff" fill-opacity="1"><g transform="translate(78.653126, 297.810306)"><g><path d="M 0.203125 -5.96875 C 0.203125 -5.039062 0.046875 -4.207031 -0.265625 -3.46875 C -0.585938 -2.738281 -1.03125 -2.160156 -1.59375 -1.734375 C -2.15625 -1.304688 -2.804688 -1.070312 -3.546875 -1.03125 L -3.546875 -3.109375 C -2.941406 -3.160156 -2.445312 -3.4375 -2.0625 -3.9375 C -1.6875 -4.445312 -1.5 -5.113281 -1.5 -5.9375 C -1.5 -6.695312 -1.664062 -7.296875 -2 -7.734375 C -2.34375 -8.179688 -2.769531 -8.40625 -3.28125 -8.40625 C -3.800781 -8.40625 -4.191406 -8.171875 -4.453125 -7.703125 C -4.710938 -7.234375 -4.96875 -6.503906 -5.21875 -5.515625 C -5.445312 -4.628906 -5.679688 -3.898438 -5.921875 -3.328125 C -6.171875 -2.765625 -6.53125 -2.28125 -7 -1.875 C -7.476562 -1.476562 -8.109375 -1.28125 -8.890625 -1.28125 C -9.503906 -1.28125 -10.066406 -1.460938 -10.578125 -1.828125 C -11.097656 -2.191406 -11.503906 -2.710938 -11.796875 -3.390625 C -12.097656 -4.066406 -12.25 -4.835938 -12.25 -5.703125 C -12.25 -7.035156 -11.910156 -8.109375 -11.234375 -8.921875 C -10.566406 -9.742188 -9.644531 -10.1875 -8.46875 -10.25 L -8.46875 -8.25 C -9.101562 -8.207031 -9.609375 -7.953125 -9.984375 -7.484375 C -10.367188 -7.023438 -10.5625 -6.40625 -10.5625 -5.625 C -10.5625 -4.90625 -10.40625 -4.332031 -10.09375 -3.90625 C -9.789062 -3.488281 -9.390625 -3.28125 -8.890625 -3.28125 C -8.492188 -3.28125 -8.164062 -3.40625 -7.90625 -3.65625 C -7.65625 -3.914062 -7.453125 -4.238281 -7.296875 -4.625 C -7.140625 -5.019531 -6.96875 -5.5625 -6.78125 -6.25 C -6.539062 -7.113281 -6.304688 -7.816406 -6.078125 -8.359375 C -5.847656 -8.898438 -5.503906 -9.363281 -5.046875 -9.75 C -4.597656 -10.144531 -4.007812 -10.347656 -3.28125 -10.359375 C -2.613281 -10.359375 -2.015625 -10.175781 -1.484375 -9.8125 C -0.960938 -9.445312 -0.550781 -8.929688 -0.25 -8.265625 C 0.0507812 -7.597656 0.203125 -6.832031 0.203125 -5.96875 Z M 0.203125 -5.96875 "/></g></g></g><g fill="#ffffff" fill-opacity="1"><g transform="translate(78.653126, 286.328358)"><g><path d="M -12.28125 -7.671875 C -12.28125 -8.585938 -12.082031 -9.410156 -11.6875 -10.140625 C -11.300781 -10.867188 -10.71875 -11.441406 -9.9375 -11.859375 C -9.164062 -12.285156 -8.222656 -12.5 -7.109375 -12.5 L 0 -12.5 L 0 -10.515625 L -6.8125 -10.515625 C -8.019531 -10.515625 -8.941406 -10.210938 -9.578125 -9.609375 C -10.210938 -9.015625 -10.53125 -8.195312 -10.53125 -7.15625 C -10.53125 -6.09375 -10.203125 -5.25 -9.546875 -4.625 C -8.890625 -4.007812 -7.929688 -3.703125 -6.671875 -3.703125 L 0 -3.703125 L 0 -1.6875 L -16.28125 -1.6875 L -16.28125 -3.703125 L -10.34375 -3.703125 C -10.957031 -4.097656 -11.429688 -4.640625 -11.765625 -5.328125 C -12.109375 -6.023438 -12.28125 -6.804688 -12.28125 -7.671875 Z M -12.28125 -7.671875 "/></g></g></g><g fill="#ffffff" fill-opacity="1"><g transform="translate(78.653126, 272.250867)"><g/></g></g><g fill="#ffffff" fill-opacity="1"><g transform="translate(78.653126, 266.377908)"><g><path d="M -15.328125 -10.359375 L -13.703125 -10.359375 L -13.703125 -3.703125 L -8.53125 -3.703125 L -8.53125 -9.109375 L -6.90625 -9.109375 L -6.90625 -3.703125 L 0 -3.703125 L 0 -1.6875 L -15.328125 -1.6875 Z M -15.328125 -10.359375 "/></g></g></g><g fill="#ffffff" fill-opacity="1"><g transform="translate(78.653126, 255.291879)"><g><path d="M -16.28125 -3.703125 L 0 -3.703125 L 0 -1.6875 L -16.28125 -1.6875 Z M -16.28125 -3.703125 "/></g></g></g><g fill="#ffffff" fill-opacity="1"><g transform="translate(78.653126, 249.880838)"><g><path d="M 0.203125 -6.953125 C 0.203125 -5.828125 -0.0507812 -4.804688 -0.5625 -3.890625 C -1.082031 -2.972656 -1.816406 -2.253906 -2.765625 -1.734375 C -3.710938 -1.210938 -4.804688 -0.953125 -6.046875 -0.953125 C -7.273438 -0.953125 -8.363281 -1.21875 -9.3125 -1.75 C -10.257812 -2.28125 -10.984375 -3.007812 -11.484375 -3.9375 C -11.992188 -4.863281 -12.25 -5.898438 -12.25 -7.046875 C -12.25 -8.179688 -11.992188 -9.210938 -11.484375 -10.140625 C -10.984375 -11.066406 -10.265625 -11.796875 -9.328125 -12.328125 C -8.390625 -12.867188 -7.296875 -13.140625 -6.046875 -13.140625 C -4.804688 -13.140625 -3.710938 -12.863281 -2.765625 -12.3125 C -1.816406 -11.757812 -1.082031 -11.015625 -0.5625 -10.078125 C -0.0507812 -9.140625 0.203125 -8.097656 0.203125 -6.953125 Z M -1.5625 -6.953125 C -1.5625 -7.671875 -1.726562 -8.34375 -2.0625 -8.96875 C -2.40625 -9.601562 -2.910156 -10.113281 -3.578125 -10.5 C -4.253906 -10.894531 -5.078125 -11.09375 -6.046875 -11.09375 C -7.015625 -11.09375 -7.835938 -10.898438 -8.515625 -10.515625 C -9.191406 -10.128906 -9.691406 -9.628906 -10.015625 -9.015625 C -10.347656 -8.398438 -10.515625 -7.734375 -10.515625 -7.015625 C -10.515625 -6.285156 -10.347656 -5.613281 -10.015625 -5 C -9.691406 -4.394531 -9.191406 -3.90625 -8.515625 -3.53125 C -7.835938 -3.164062 -7.015625 -2.984375 -6.046875 -2.984375 C -5.066406 -2.984375 -4.238281 -3.160156 -3.5625 -3.515625 C -2.882812 -3.878906 -2.378906 -4.363281 -2.046875 -4.96875 C -1.722656 -5.570312 -1.5625 -6.234375 -1.5625 -6.953125 Z M -1.5625 -6.953125 "/></g></g></g><g fill="#ffffff" fill-opacity="1"><g transform="translate(78.653126, 235.803347)"><g><path d="M -12.0625 -17.75 L 0 -13.984375 L 0 -11.921875 L -9.5625 -9.015625 L 0 -6.109375 L 0 -4.046875 L -12.0625 -0.265625 L -12.0625 -2.3125 L -1.9375 -5.078125 L -12.0625 -8.078125 L -12.0625 -10.125 L -1.90625 -13.046875 L -12.0625 -15.78125 Z M -12.0625 -17.75 "/></g></g></g><path stroke-linecap="butt" transform="matrix(3.750955, 0, 0, 3.75, 102.083002, 311.548836)" fill="none" stroke-linejoin="miter" d="M -0.00025884 0.000518782 L 159.360181 0.000518782 " stroke="#ffffff" stroke-width="1" stroke-opacity="1" stroke-miterlimit="4"/><g fill="#ffffff" fill-opacity="1"><g transform="translate(300.175768, 397.286955)"><g><path d="M 8.640625 0.15625 C 7.222656 0.15625 5.925781 -0.175781 4.75 -0.84375 C 3.570312 -1.507812 2.644531 -2.441406 1.96875 -3.640625 C 1.289062 -4.835938 0.953125 -6.179688 0.953125 -7.671875 C 0.953125 -9.171875 1.289062 -10.519531 1.96875 -11.71875 C 2.644531 -12.914062 3.570312 -13.847656 4.75 -14.515625 C 5.925781 -15.179688 7.222656 -15.515625 8.640625 -15.515625 C 10.078125 -15.515625 11.382812 -15.179688 12.5625 -14.515625 C 13.738281 -13.847656 14.660156 -12.914062 15.328125 -11.71875 C 16.003906 -10.53125 16.34375 -9.179688 16.34375 -7.671875 C 16.34375 -6.160156 16.003906 -4.8125 15.328125 -3.625 C 14.660156 -2.4375 13.738281 -1.507812 12.5625 -0.84375 C 11.382812 -0.175781 10.078125 0.15625 8.640625 0.15625 Z M 8.640625 -1.578125 C 9.710938 -1.578125 10.675781 -1.828125 11.53125 -2.328125 C 12.394531 -2.828125 13.070312 -3.539062 13.5625 -4.46875 C 14.050781 -5.394531 14.296875 -6.460938 14.296875 -7.671875 C 14.296875 -8.910156 14.050781 -9.988281 13.5625 -10.90625 C 13.070312 -11.820312 12.398438 -12.523438 11.546875 -13.015625 C 10.703125 -13.515625 9.734375 -13.765625 8.640625 -13.765625 C 7.554688 -13.765625 6.585938 -13.515625 5.734375 -13.015625 C 4.890625 -12.523438 4.21875 -11.820312 3.71875 -10.90625 C 3.226562 -9.988281 2.984375 -8.910156 2.984375 -7.671875 C 2.984375 -6.460938 3.226562 -5.394531 3.71875 -4.46875 C 4.21875 -3.539062 4.894531 -2.828125 5.75 -2.328125 C 6.613281 -1.828125 7.578125 -1.578125 8.640625 -1.578125 Z M 8.640625 -1.578125 "/></g></g></g><g fill="#ffffff" fill-opacity="1"><g transform="translate(317.464688, 397.286955)"><g><path d="M 3.703125 -9.828125 C 4.097656 -10.523438 4.6875 -11.101562 5.46875 -11.5625 C 6.25 -12.019531 7.160156 -12.25 8.203125 -12.25 C 9.273438 -12.25 10.25 -11.992188 11.125 -11.484375 C 12 -10.972656 12.679688 -10.25 13.171875 -9.3125 C 13.671875 -8.382812 13.921875 -7.304688 13.921875 -6.078125 C 13.921875 -4.859375 13.671875 -3.769531 13.171875 -2.8125 C 12.679688 -1.863281 12 -1.125 11.125 -0.59375 C 10.25 -0.0625 9.273438 0.203125 8.203125 0.203125 C 7.179688 0.203125 6.273438 -0.0234375 5.484375 -0.484375 C 4.703125 -0.953125 4.109375 -1.53125 3.703125 -2.21875 L 3.703125 5.71875 L 1.6875 5.71875 L 1.6875 -12.0625 L 3.703125 -12.0625 Z M 11.875 -6.078125 C 11.875 -6.984375 11.691406 -7.769531 11.328125 -8.4375 C 10.960938 -9.113281 10.46875 -9.628906 9.84375 -9.984375 C 9.21875 -10.335938 8.53125 -10.515625 7.78125 -10.515625 C 7.050781 -10.515625 6.375 -10.332031 5.75 -9.96875 C 5.125 -9.613281 4.625 -9.09375 4.25 -8.40625 C 3.882812 -7.726562 3.703125 -6.941406 3.703125 -6.046875 C 3.703125 -5.140625 3.882812 -4.34375 4.25 -3.65625 C 4.625 -2.976562 5.125 -2.457031 5.75 -2.09375 C 6.375 -1.738281 7.050781 -1.5625 7.78125 -1.5625 C 8.53125 -1.5625 9.21875 -1.738281 9.84375 -2.09375 C 10.46875 -2.457031 10.960938 -2.976562 11.328125 -3.65625 C 11.691406 -4.34375 11.875 -5.148438 11.875 -6.078125 Z M 11.875 -6.078125 "/></g></g></g><g fill="#ffffff" fill-opacity="1"><g transform="translate(332.334042, 397.286955)"><g><path d="M 12.6875 -6.484375 C 12.6875 -6.109375 12.664062 -5.707031 12.625 -5.28125 L 2.984375 -5.28125 C 3.066406 -4.09375 3.476562 -3.164062 4.21875 -2.5 C 4.957031 -1.832031 5.851562 -1.5 6.90625 -1.5 C 7.769531 -1.5 8.488281 -1.695312 9.0625 -2.09375 C 9.644531 -2.5 10.054688 -3.039062 10.296875 -3.71875 L 12.453125 -3.71875 C 12.128906 -2.5625 11.484375 -1.617188 10.515625 -0.890625 C 9.546875 -0.160156 8.34375 0.203125 6.90625 0.203125 C 5.757812 0.203125 4.734375 -0.0507812 3.828125 -0.5625 C 2.929688 -1.082031 2.226562 -1.816406 1.71875 -2.765625 C 1.207031 -3.710938 0.953125 -4.804688 0.953125 -6.046875 C 0.953125 -7.296875 1.195312 -8.390625 1.6875 -9.328125 C 2.1875 -10.265625 2.882812 -10.984375 3.78125 -11.484375 C 4.6875 -11.992188 5.726562 -12.25 6.90625 -12.25 C 8.050781 -12.25 9.0625 -12 9.9375 -11.5 C 10.820312 -11.007812 11.5 -10.328125 11.96875 -9.453125 C 12.445312 -8.578125 12.6875 -7.585938 12.6875 -6.484375 Z M 10.625 -6.90625 C 10.625 -7.664062 10.453125 -8.320312 10.109375 -8.875 C 9.773438 -9.425781 9.316406 -9.84375 8.734375 -10.125 C 8.160156 -10.414062 7.519531 -10.5625 6.8125 -10.5625 C 5.800781 -10.5625 4.941406 -10.238281 4.234375 -9.59375 C 3.523438 -8.945312 3.117188 -8.050781 3.015625 -6.90625 Z M 10.625 -6.90625 "/></g></g></g><g fill="#ffffff" fill-opacity="1"><g transform="translate(345.971611, 397.286955)"><g><path d="M 3.703125 -10.09375 C 4.046875 -10.78125 4.546875 -11.316406 5.203125 -11.703125 C 5.859375 -12.085938 6.65625 -12.28125 7.59375 -12.28125 L 7.59375 -10.203125 L 7.0625 -10.203125 C 4.820312 -10.203125 3.703125 -8.988281 3.703125 -6.5625 L 3.703125 0 L 1.6875 0 L 1.6875 -12.0625 L 3.703125 -12.0625 Z M 3.703125 -10.09375 "/></g></g></g><g fill="#ffffff" fill-opacity="1"><g transform="translate(354.176143, 397.286955)"><g><path d="M 0.953125 -6.078125 C 0.953125 -7.304688 1.195312 -8.382812 1.6875 -9.3125 C 2.1875 -10.25 2.875 -10.972656 3.75 -11.484375 C 4.625 -11.992188 5.597656 -12.25 6.671875 -12.25 C 7.722656 -12.25 8.632812 -12.019531 9.40625 -11.5625 C 10.1875 -11.113281 10.769531 -10.546875 11.15625 -9.859375 L 11.15625 -12.0625 L 13.171875 -12.0625 L 13.171875 0 L 11.15625 0 L 11.15625 -2.25 C 10.757812 -1.539062 10.164062 -0.953125 9.375 -0.484375 C 8.59375 -0.0234375 7.679688 0.203125 6.640625 0.203125 C 5.566406 0.203125 4.597656 -0.0625 3.734375 -0.59375 C 2.867188 -1.125 2.1875 -1.863281 1.6875 -2.8125 C 1.195312 -3.769531 0.953125 -4.859375 0.953125 -6.078125 Z M 11.15625 -6.046875 C 11.15625 -6.953125 10.96875 -7.742188 10.59375 -8.421875 C 10.226562 -9.097656 9.734375 -9.613281 9.109375 -9.96875 C 8.492188 -10.332031 7.8125 -10.515625 7.0625 -10.515625 C 6.3125 -10.515625 5.628906 -10.335938 5.015625 -9.984375 C 4.398438 -9.628906 3.90625 -9.113281 3.53125 -8.4375 C 3.164062 -7.769531 2.984375 -6.984375 2.984375 -6.078125 C 2.984375 -5.148438 3.164062 -4.34375 3.53125 -3.65625 C 3.90625 -2.976562 4.398438 -2.457031 5.015625 -2.09375 C 5.628906 -1.738281 6.3125 -1.5625 7.0625 -1.5625 C 7.8125 -1.5625 8.492188 -1.738281 9.109375 -2.09375 C 9.734375 -2.457031 10.226562 -2.976562 10.59375 -3.65625 C 10.96875 -4.34375 11.15625 -5.140625 11.15625 -6.046875 Z M 11.15625 -6.046875 "/></g></g></g><g fill="#ffffff" fill-opacity="1"><g transform="translate(369.045497, 397.286955)"><g><path d="M 4.140625 -10.40625 L 4.140625 -3.296875 C 4.140625 -2.710938 4.265625 -2.296875 4.515625 -2.046875 C 4.765625 -1.804688 5.195312 -1.6875 5.8125 -1.6875 L 7.28125 -1.6875 L 7.28125 0 L 5.484375 0 C 4.367188 0 3.53125 -0.253906 2.96875 -0.765625 C 2.414062 -1.285156 2.140625 -2.128906 2.140625 -3.296875 L 2.140625 -10.40625 L 0.578125 -10.40625 L 0.578125 -12.0625 L 2.140625 -12.0625 L 2.140625 -15.09375 L 4.140625 -15.09375 L 4.140625 -12.0625 L 7.28125 -12.0625 L 7.28125 -10.40625 Z M 4.140625 -10.40625 "/></g></g></g><g fill="#ffffff" fill-opacity="1"><g transform="translate(377.05207, 397.286955)"><g><path d="M 2.734375 -14.015625 C 2.347656 -14.015625 2.019531 -14.144531 1.75 -14.40625 C 1.488281 -14.675781 1.359375 -15 1.359375 -15.375 C 1.359375 -15.757812 1.488281 -16.082031 1.75 -16.34375 C 2.019531 -16.601562 2.347656 -16.734375 2.734375 -16.734375 C 3.097656 -16.734375 3.40625 -16.601562 3.65625 -16.34375 C 3.914062 -16.082031 4.046875 -15.757812 4.046875 -15.375 C 4.046875 -15 3.914062 -14.675781 3.65625 -14.40625 C 3.40625 -14.144531 3.097656 -14.015625 2.734375 -14.015625 Z M 3.703125 -12.0625 L 3.703125 0 L 1.6875 0 L 1.6875 -12.0625 Z M 3.703125 -12.0625 "/></g></g></g><g fill="#ffffff" fill-opacity="1"><g transform="translate(382.463111, 397.286955)"><g><path d="M 7.5625 -12.28125 C 9.03125 -12.28125 10.21875 -11.832031 11.125 -10.9375 C 12.039062 -10.050781 12.5 -8.773438 12.5 -7.109375 L 12.5 0 L 10.515625 0 L 10.515625 -6.8125 C 10.515625 -8.019531 10.210938 -8.941406 9.609375 -9.578125 C 9.015625 -10.210938 8.195312 -10.53125 7.15625 -10.53125 C 6.09375 -10.53125 5.25 -10.203125 4.625 -9.546875 C 4.007812 -8.890625 3.703125 -7.929688 3.703125 -6.671875 L 3.703125 0 L 1.6875 0 L 1.6875 -12.0625 L 3.703125 -12.0625 L 3.703125 -10.34375 C 4.097656 -10.957031 4.632812 -11.429688 5.3125 -11.765625 C 6 -12.109375 6.75 -12.28125 7.5625 -12.28125 Z M 7.5625 -12.28125 "/></g></g></g><g fill="#ffffff" fill-opacity="1"><g transform="translate(396.540602, 397.286955)"><g><path d="M 6.671875 -12.25 C 7.710938 -12.25 8.625 -12.019531 9.40625 -11.5625 C 10.1875 -11.113281 10.769531 -10.546875 11.15625 -9.859375 L 11.15625 -12.0625 L 13.171875 -12.0625 L 13.171875 0.265625 C 13.171875 1.359375 12.9375 2.332031 12.46875 3.1875 C 12 4.050781 11.328125 4.722656 10.453125 5.203125 C 9.585938 5.691406 8.570312 5.9375 7.40625 5.9375 C 5.820312 5.9375 4.503906 5.5625 3.453125 4.8125 C 2.398438 4.070312 1.773438 3.054688 1.578125 1.765625 L 3.5625 1.765625 C 3.78125 2.492188 4.234375 3.082031 4.921875 3.53125 C 5.617188 3.976562 6.445312 4.203125 7.40625 4.203125 C 8.507812 4.203125 9.410156 3.859375 10.109375 3.171875 C 10.804688 2.484375 11.15625 1.515625 11.15625 0.265625 L 11.15625 -2.265625 C 10.757812 -1.554688 10.171875 -0.96875 9.390625 -0.5 C 8.617188 -0.03125 7.710938 0.203125 6.671875 0.203125 C 5.597656 0.203125 4.625 -0.0625 3.75 -0.59375 C 2.875 -1.125 2.1875 -1.863281 1.6875 -2.8125 C 1.195312 -3.769531 0.953125 -4.859375 0.953125 -6.078125 C 0.953125 -7.304688 1.195312 -8.382812 1.6875 -9.3125 C 2.1875 -10.25 2.875 -10.972656 3.75 -11.484375 C 4.625 -11.992188 5.597656 -12.25 6.671875 -12.25 Z M 11.15625 -6.046875 C 11.15625 -6.953125 10.96875 -7.742188 10.59375 -8.421875 C 10.226562 -9.097656 9.734375 -9.613281 9.109375 -9.96875 C 8.492188 -10.332031 7.8125 -10.515625 7.0625 -10.515625 C 6.3125 -10.515625 5.628906 -10.335938 5.015625 -9.984375 C 4.398438 -9.628906 3.90625 -9.113281 3.53125 -8.4375 C 3.164062 -7.769531 2.984375 -6.984375 2.984375 -6.078125 C 2.984375 -5.148438 3.164062 -4.34375 3.53125 -3.65625 C 3.90625 -2.976562 4.398438 -2.457031 5.015625 -2.09375 C 5.628906 -1.738281 6.3125 -1.5625 7.0625 -1.5625 C 7.8125 -1.5625 8.492188 -1.738281 9.109375 -2.09375 C 9.734375 -2.457031 10.226562 -2.976562 10.59375 -3.65625 C 10.96875 -4.34375 11.15625 -5.140625 11.15625 -6.046875 Z M 11.15625 -6.046875 "/></g></g></g><g fill="#ffffff" fill-opacity="1"><g transform="translate(411.409956, 397.286955)"><g/></g></g><g fill="#ffffff" fill-opacity="1"><g transform="translate(417.282915, 397.286955)"><g><path d="M 0.953125 -7.671875 C 0.953125 -9.171875 1.285156 -10.519531 1.953125 -11.71875 C 2.628906 -12.914062 3.550781 -13.847656 4.71875 -14.515625 C 5.882812 -15.191406 7.179688 -15.53125 8.609375 -15.53125 C 10.273438 -15.53125 11.726562 -15.125 12.96875 -14.3125 C 14.21875 -13.507812 15.128906 -12.367188 15.703125 -10.890625 L 13.3125 -10.890625 C 12.882812 -11.816406 12.269531 -12.523438 11.46875 -13.015625 C 10.675781 -13.515625 9.722656 -13.765625 8.609375 -13.765625 C 7.535156 -13.765625 6.570312 -13.515625 5.71875 -13.015625 C 4.863281 -12.523438 4.191406 -11.820312 3.703125 -10.90625 C 3.222656 -9.988281 2.984375 -8.910156 2.984375 -7.671875 C 2.984375 -6.460938 3.222656 -5.398438 3.703125 -4.484375 C 4.191406 -3.566406 4.863281 -2.859375 5.71875 -2.359375 C 6.570312 -1.859375 7.535156 -1.609375 8.609375 -1.609375 C 9.722656 -1.609375 10.675781 -1.851562 11.46875 -2.34375 C 12.269531 -2.832031 12.882812 -3.539062 13.3125 -4.46875 L 15.703125 -4.46875 C 15.128906 -3 14.21875 -1.863281 12.96875 -1.0625 C 11.726562 -0.269531 10.273438 0.125 8.609375 0.125 C 7.179688 0.125 5.882812 -0.207031 4.71875 -0.875 C 3.550781 -1.539062 2.628906 -2.46875 1.953125 -3.65625 C 1.285156 -4.84375 0.953125 -6.179688 0.953125 -7.671875 Z M 0.953125 -7.671875 "/></g></g></g><g fill="#ffffff" fill-opacity="1"><g transform="translate(434.263886, 397.286955)"><g><path d="M 6.953125 0.203125 C 5.828125 0.203125 4.804688 -0.0507812 3.890625 -0.5625 C 2.972656 -1.082031 2.253906 -1.816406 1.734375 -2.765625 C 1.210938 -3.710938 0.953125 -4.804688 0.953125 -6.046875 C 0.953125 -7.273438 1.21875 -8.363281 1.75 -9.3125 C 2.28125 -10.257812 3.007812 -10.984375 3.9375 -11.484375 C 4.863281 -11.992188 5.898438 -12.25 7.046875 -12.25 C 8.179688 -12.25 9.210938 -11.992188 10.140625 -11.484375 C 11.066406 -10.984375 11.796875 -10.265625 12.328125 -9.328125 C 12.867188 -8.390625 13.140625 -7.296875 13.140625 -6.046875 C 13.140625 -4.804688 12.863281 -3.710938 12.3125 -2.765625 C 11.757812 -1.816406 11.015625 -1.082031 10.078125 -0.5625 C 9.140625 -0.0507812 8.097656 0.203125 6.953125 0.203125 Z M 6.953125 -1.5625 C 7.671875 -1.5625 8.34375 -1.726562 8.96875 -2.0625 C 9.601562 -2.40625 10.113281 -2.910156 10.5 -3.578125 C 10.894531 -4.253906 11.09375 -5.078125 11.09375 -6.046875 C 11.09375 -7.015625 10.898438 -7.835938 10.515625 -8.515625 C 10.128906 -9.191406 9.628906 -9.691406 9.015625 -10.015625 C 8.398438 -10.347656 7.734375 -10.515625 7.015625 -10.515625 C 6.285156 -10.515625 5.613281 -10.347656 5 -10.015625 C 4.394531 -9.691406 3.90625 -9.191406 3.53125 -8.515625 C 3.164062 -7.835938 2.984375 -7.015625 2.984375 -6.046875 C 2.984375 -5.066406 3.160156 -4.238281 3.515625 -3.5625 C 3.878906 -2.882812 4.363281 -2.378906 4.96875 -2.046875 C 5.570312 -1.722656 6.234375 -1.5625 6.953125 -1.5625 Z M 6.953125 -1.5625 "/></g></g></g><g fill="#ffffff" fill-opacity="1"><g transform="translate(448.341377, 397.286955)"><g><path d="M 5.96875 0.203125 C 5.039062 0.203125 4.207031 0.046875 3.46875 -0.265625 C 2.738281 -0.585938 2.160156 -1.03125 1.734375 -1.59375 C 1.304688 -2.15625 1.070312 -2.804688 1.03125 -3.546875 L 3.109375 -3.546875 C 3.160156 -2.941406 3.4375 -2.445312 3.9375 -2.0625 C 4.445312 -1.6875 5.113281 -1.5 5.9375 -1.5 C 6.695312 -1.5 7.296875 -1.664062 7.734375 -2 C 8.179688 -2.34375 8.40625 -2.769531 8.40625 -3.28125 C 8.40625 -3.800781 8.171875 -4.191406 7.703125 -4.453125 C 7.234375 -4.710938 6.503906 -4.96875 5.515625 -5.21875 C 4.628906 -5.445312 3.898438 -5.679688 3.328125 -5.921875 C 2.765625 -6.171875 2.28125 -6.53125 1.875 -7 C 1.476562 -7.476562 1.28125 -8.109375 1.28125 -8.890625 C 1.28125 -9.503906 1.460938 -10.066406 1.828125 -10.578125 C 2.191406 -11.097656 2.710938 -11.503906 3.390625 -11.796875 C 4.066406 -12.097656 4.835938 -12.25 5.703125 -12.25 C 7.035156 -12.25 8.109375 -11.910156 8.921875 -11.234375 C 9.742188 -10.566406 10.1875 -9.644531 10.25 -8.46875 L 8.25 -8.46875 C 8.207031 -9.101562 7.953125 -9.609375 7.484375 -9.984375 C 7.023438 -10.367188 6.40625 -10.5625 5.625 -10.5625 C 4.90625 -10.5625 4.332031 -10.40625 3.90625 -10.09375 C 3.488281 -9.789062 3.28125 -9.390625 3.28125 -8.890625 C 3.28125 -8.492188 3.40625 -8.164062 3.65625 -7.90625 C 3.914062 -7.65625 4.238281 -7.453125 4.625 -7.296875 C 5.019531 -7.140625 5.5625 -6.96875 6.25 -6.78125 C 7.113281 -6.539062 7.816406 -6.304688 8.359375 -6.078125 C 8.898438 -5.847656 9.363281 -5.503906 9.75 -5.046875 C 10.144531 -4.597656 10.347656 -4.007812 10.359375 -3.28125 C 10.359375 -2.613281 10.175781 -2.015625 9.8125 -1.484375 C 9.445312 -0.960938 8.929688 -0.550781 8.265625 -0.25 C 7.597656 0.0507812 6.832031 0.203125 5.96875 0.203125 Z M 5.96875 0.203125 "/></g></g></g><g fill="#ffffff" fill-opacity="1"><g transform="translate(459.823326, 397.286955)"><g><path d="M 4.140625 -10.40625 L 4.140625 -3.296875 C 4.140625 -2.710938 4.265625 -2.296875 4.515625 -2.046875 C 4.765625 -1.804688 5.195312 -1.6875 5.8125 -1.6875 L 7.28125 -1.6875 L 7.28125 0 L 5.484375 0 C 4.367188 0 3.53125 -0.253906 2.96875 -0.765625 C 2.414062 -1.285156 2.140625 -2.128906 2.140625 -3.296875 L 2.140625 -10.40625 L 0.578125 -10.40625 L 0.578125 -12.0625 L 2.140625 -12.0625 L 2.140625 -15.09375 L 4.140625 -15.09375 L 4.140625 -12.0625 L 7.28125 -12.0625 L 7.28125 -10.40625 Z M 4.140625 -10.40625 "/></g></g></g><g fill="#ffffff" fill-opacity="1"><g transform="translate(433.035901, 107.892438)"><g><path d="M 9.765625 0 L 6.109375 -6.265625 L 3.703125 -6.265625 L 3.703125 0 L 1.6875 0 L 1.6875 -15.328125 L 6.640625 -15.328125 C 7.796875 -15.328125 8.773438 -15.128906 9.578125 -14.734375 C 10.378906 -14.335938 10.976562 -13.800781 11.375 -13.125 C 11.769531 -12.457031 11.96875 -11.691406 11.96875 -10.828125 C 11.96875 -9.765625 11.660156 -8.828125 11.046875 -8.015625 C 10.441406 -7.210938 9.53125 -6.679688 8.3125 -6.421875 L 12.171875 0 Z M 3.703125 -7.875 L 6.640625 -7.875 C 7.722656 -7.875 8.535156 -8.140625 9.078125 -8.671875 C 9.628906 -9.210938 9.90625 -9.929688 9.90625 -10.828125 C 9.90625 -11.734375 9.632812 -12.4375 9.09375 -12.9375 C 8.5625 -13.4375 7.742188 -13.6875 6.640625 -13.6875 L 3.703125 -13.6875 Z M 3.703125 -7.875 "/></g></g></g><g fill="#ffffff" fill-opacity="1"><g transform="translate(446.409523, 107.892438)"><g><path d="M 12.6875 -6.484375 C 12.6875 -6.109375 12.664062 -5.707031 12.625 -5.28125 L 2.984375 -5.28125 C 3.066406 -4.09375 3.476562 -3.164062 4.21875 -2.5 C 4.957031 -1.832031 5.851562 -1.5 6.90625 -1.5 C 7.769531 -1.5 8.488281 -1.695312 9.0625 -2.09375 C 9.644531 -2.5 10.054688 -3.039062 10.296875 -3.71875 L 12.453125 -3.71875 C 12.128906 -2.5625 11.484375 -1.617188 10.515625 -0.890625 C 9.546875 -0.160156 8.34375 0.203125 6.90625 0.203125 C 5.757812 0.203125 4.734375 -0.0507812 3.828125 -0.5625 C 2.929688 -1.082031 2.226562 -1.816406 1.71875 -2.765625 C 1.207031 -3.710938 0.953125 -4.804688 0.953125 -6.046875 C 0.953125 -7.296875 1.195312 -8.390625 1.6875 -9.328125 C 2.1875 -10.265625 2.882812 -10.984375 3.78125 -11.484375 C 4.6875 -11.992188 5.726562 -12.25 6.90625 -12.25 C 8.050781 -12.25 9.0625 -12 9.9375 -11.5 C 10.820312 -11.007812 11.5 -10.328125 11.96875 -9.453125 C 12.445312 -8.578125 12.6875 -7.585938 12.6875 -6.484375 Z M 10.625 -6.90625 C 10.625 -7.664062 10.453125 -8.320312 10.109375 -8.875 C 9.773438 -9.425781 9.316406 -9.84375 8.734375 -10.125 C 8.160156 -10.414062 7.519531 -10.5625 6.8125 -10.5625 C 5.800781 -10.5625 4.941406 -10.238281 4.234375 -9.59375 C 3.523438 -8.945312 3.117188 -8.050781 3.015625 -6.90625 Z M 10.625 -6.90625 "/></g></g></g><g fill="#ffffff" fill-opacity="1"><g transform="translate(460.047092, 107.892438)"><g><path d="M 6.1875 -1.84375 L 9.921875 -12.0625 L 12.0625 -12.0625 L 7.328125 0 L 5 0 L 0.265625 -12.0625 L 2.421875 -12.0625 Z M 6.1875 -1.84375 "/></g></g></g><g fill="#ffffff" fill-opacity="1"><g transform="translate(472.386889, 107.892438)"><g><path d="M 12.6875 -6.484375 C 12.6875 -6.109375 12.664062 -5.707031 12.625 -5.28125 L 2.984375 -5.28125 C 3.066406 -4.09375 3.476562 -3.164062 4.21875 -2.5 C 4.957031 -1.832031 5.851562 -1.5 6.90625 -1.5 C 7.769531 -1.5 8.488281 -1.695312 9.0625 -2.09375 C 9.644531 -2.5 10.054688 -3.039062 10.296875 -3.71875 L 12.453125 -3.71875 C 12.128906 -2.5625 11.484375 -1.617188 10.515625 -0.890625 C 9.546875 -0.160156 8.34375 0.203125 6.90625 0.203125 C 5.757812 0.203125 4.734375 -0.0507812 3.828125 -0.5625 C 2.929688 -1.082031 2.226562 -1.816406 1.71875 -2.765625 C 1.207031 -3.710938 0.953125 -4.804688 0.953125 -6.046875 C 0.953125 -7.296875 1.195312 -8.390625 1.6875 -9.328125 C 2.1875 -10.265625 2.882812 -10.984375 3.78125 -11.484375 C 4.6875 -11.992188 5.726562 -12.25 6.90625 -12.25 C 8.050781 -12.25 9.0625 -12 9.9375 -11.5 C 10.820312 -11.007812 11.5 -10.328125 11.96875 -9.453125 C 12.445312 -8.578125 12.6875 -7.585938 12.6875 -6.484375 Z M 10.625 -6.90625 C 10.625 -7.664062 10.453125 -8.320312 10.109375 -8.875 C 9.773438 -9.425781 9.316406 -9.84375 8.734375 -10.125 C 8.160156 -10.414062 7.519531 -10.5625 6.8125 -10.5625 C 5.800781 -10.5625 4.941406 -10.238281 4.234375 -9.59375 C 3.523438 -8.945312 3.117188 -8.050781 3.015625 -6.90625 Z M 10.625 -6.90625 "/></g></g></g><g fill="#ffffff" fill-opacity="1"><g transform="translate(486.024458, 107.892438)"><g><path d="M 7.5625 -12.28125 C 9.03125 -12.28125 10.21875 -11.832031 11.125 -10.9375 C 12.039062 -10.050781 12.5 -8.773438 12.5 -7.109375 L 12.5 0 L 10.515625 0 L 10.515625 -6.8125 C 10.515625 -8.019531 10.210938 -8.941406 9.609375 -9.578125 C 9.015625 -10.210938 8.195312 -10.53125 7.15625 -10.53125 C 6.09375 -10.53125 5.25 -10.203125 4.625 -9.546875 C 4.007812 -8.890625 3.703125 -7.929688 3.703125 -6.671875 L 3.703125 0 L 1.6875 0 L 1.6875 -12.0625 L 3.703125 -12.0625 L 3.703125 -10.34375 C 4.097656 -10.957031 4.632812 -11.429688 5.3125 -11.765625 C 6 -12.109375 6.75 -12.28125 7.5625 -12.28125 Z M 7.5625 -12.28125 "/></g></g></g><g fill="#ffffff" fill-opacity="1"><g transform="translate(500.101949, 107.892438)"><g><path d="M 12.390625 -12.0625 L 12.390625 0 L 10.390625 0 L 10.390625 -1.78125 C 10.003906 -1.164062 9.46875 -0.6875 8.78125 -0.34375 C 8.101562 0 7.351562 0.171875 6.53125 0.171875 C 5.59375 0.171875 4.75 -0.0195312 4 -0.40625 C 3.25 -0.789062 2.65625 -1.375 2.21875 -2.15625 C 1.789062 -2.9375 1.578125 -3.882812 1.578125 -5 L 1.578125 -12.0625 L 3.5625 -12.0625 L 3.5625 -5.265625 C 3.5625 -4.066406 3.863281 -3.148438 4.46875 -2.515625 C 5.070312 -1.878906 5.894531 -1.5625 6.9375 -1.5625 C 8 -1.5625 8.835938 -1.890625 9.453125 -2.546875 C 10.078125 -3.210938 10.390625 -4.175781 10.390625 -5.4375 L 10.390625 -12.0625 Z M 12.390625 -12.0625 "/></g></g></g><g fill="#ffffff" fill-opacity="1"><g transform="translate(514.179441, 107.892438)"><g><path d="M 12.6875 -6.484375 C 12.6875 -6.109375 12.664062 -5.707031 12.625 -5.28125 L 2.984375 -5.28125 C 3.066406 -4.09375 3.476562 -3.164062 4.21875 -2.5 C 4.957031 -1.832031 5.851562 -1.5 6.90625 -1.5 C 7.769531 -1.5 8.488281 -1.695312 9.0625 -2.09375 C 9.644531 -2.5 10.054688 -3.039062 10.296875 -3.71875 L 12.453125 -3.71875 C 12.128906 -2.5625 11.484375 -1.617188 10.515625 -0.890625 C 9.546875 -0.160156 8.34375 0.203125 6.90625 0.203125 C 5.757812 0.203125 4.734375 -0.0507812 3.828125 -0.5625 C 2.929688 -1.082031 2.226562 -1.816406 1.71875 -2.765625 C 1.207031 -3.710938 0.953125 -4.804688 0.953125 -6.046875 C 0.953125 -7.296875 1.195312 -8.390625 1.6875 -9.328125 C 2.1875 -10.265625 2.882812 -10.984375 3.78125 -11.484375 C 4.6875 -11.992188 5.726562 -12.25 6.90625 -12.25 C 8.050781 -12.25 9.0625 -12 9.9375 -11.5 C 10.820312 -11.007812 11.5 -10.328125 11.96875 -9.453125 C 12.445312 -8.578125 12.6875 -7.585938 12.6875 -6.484375 Z M 10.625 -6.90625 C 10.625 -7.664062 10.453125 -8.320312 10.109375 -8.875 C 9.773438 -9.425781 9.316406 -9.84375 8.734375 -10.125 C 8.160156 -10.414062 7.519531 -10.5625 6.8125 -10.5625 C 5.800781 -10.5625 4.941406 -10.238281 4.234375 -9.59375 C 3.523438 -8.945312 3.117188 -8.050781 3.015625 -6.90625 Z M 10.625 -6.90625 "/></g></g></g><g fill="#ffffff" fill-opacity="1"><g transform="translate(581.829576, 468.586632)"><g><path d="M 11.125 -15.328125 L 11.125 -13.703125 L 6.953125 -13.703125 L 6.953125 0 L 4.953125 0 L 4.953125 -13.703125 L 0.75 -13.703125 L 0.75 -15.328125 Z M 11.125 -15.328125 "/></g></g></g><g fill="#ffffff" fill-opacity="1"><g transform="translate(593.729451, 468.586632)"><g><path d="M 0.953125 -6.078125 C 0.953125 -7.304688 1.195312 -8.382812 1.6875 -9.3125 C 2.1875 -10.25 2.875 -10.972656 3.75 -11.484375 C 4.625 -11.992188 5.597656 -12.25 6.671875 -12.25 C 7.722656 -12.25 8.632812 -12.019531 9.40625 -11.5625 C 10.1875 -11.113281 10.769531 -10.546875 11.15625 -9.859375 L 11.15625 -12.0625 L 13.171875 -12.0625 L 13.171875 0 L 11.15625 0 L 11.15625 -2.25 C 10.757812 -1.539062 10.164062 -0.953125 9.375 -0.484375 C 8.59375 -0.0234375 7.679688 0.203125 6.640625 0.203125 C 5.566406 0.203125 4.597656 -0.0625 3.734375 -0.59375 C 2.867188 -1.125 2.1875 -1.863281 1.6875 -2.8125 C 1.195312 -3.769531 0.953125 -4.859375 0.953125 -6.078125 Z M 11.15625 -6.046875 C 11.15625 -6.953125 10.96875 -7.742188 10.59375 -8.421875 C 10.226562 -9.097656 9.734375 -9.613281 9.109375 -9.96875 C 8.492188 -10.332031 7.8125 -10.515625 7.0625 -10.515625 C 6.3125 -10.515625 5.628906 -10.335938 5.015625 -9.984375 C 4.398438 -9.628906 3.90625 -9.113281 3.53125 -8.4375 C 3.164062 -7.769531 2.984375 -6.984375 2.984375 -6.078125 C 2.984375 -5.148438 3.164062 -4.34375 3.53125 -3.65625 C 3.90625 -2.976562 4.398438 -2.457031 5.015625 -2.09375 C 5.628906 -1.738281 6.3125 -1.5625 7.0625 -1.5625 C 7.8125 -1.5625 8.492188 -1.738281 9.109375 -2.09375 C 9.734375 -2.457031 10.226562 -2.976562 10.59375 -3.65625 C 10.96875 -4.34375 11.15625 -5.140625 11.15625 -6.046875 Z M 11.15625 -6.046875 "/></g></g></g><g fill="#ffffff" fill-opacity="1"><g transform="translate(608.598805, 468.586632)"><g><path d="M 7.984375 0 L 5.125 -4.484375 L 2.375 0 L 0.28125 0 L 4.1875 -5.984375 L 0.28125 -12.0625 L 2.546875 -12.0625 L 5.40625 -7.59375 L 8.140625 -12.0625 L 10.234375 -12.0625 L 6.359375 -6.09375 L 10.25 0 Z M 7.984375 0 "/></g></g></g><path stroke-linecap="butt" transform="matrix(0.00000000000000023, -3.748378, 3.75, 0.00000000000000023, 100.203248, 545.315613)" fill="none" stroke-linejoin="miter" d="M -0.000211551 -0.0000327533 L 130.059169 -0.0000327533 " stroke="#ffffff" stroke-width="1" stroke-opacity="1" stroke-miterlimit="4"/><g fill="#ffffff" fill-opacity="1"><g transform="translate(125.631734, 296.160243)"><g><path d="M 0.953125 -7.671875 C 0.953125 -9.171875 1.285156 -10.519531 1.953125 -11.71875 C 2.628906 -12.914062 3.550781 -13.847656 4.71875 -14.515625 C 5.882812 -15.191406 7.179688 -15.53125 8.609375 -15.53125 C 10.273438 -15.53125 11.726562 -15.125 12.96875 -14.3125 C 14.21875 -13.507812 15.128906 -12.367188 15.703125 -10.890625 L 13.3125 -10.890625 C 12.882812 -11.816406 12.269531 -12.523438 11.46875 -13.015625 C 10.675781 -13.515625 9.722656 -13.765625 8.609375 -13.765625 C 7.535156 -13.765625 6.570312 -13.515625 5.71875 -13.015625 C 4.863281 -12.523438 4.191406 -11.820312 3.703125 -10.90625 C 3.222656 -9.988281 2.984375 -8.910156 2.984375 -7.671875 C 2.984375 -6.460938 3.222656 -5.398438 3.703125 -4.484375 C 4.191406 -3.566406 4.863281 -2.859375 5.71875 -2.359375 C 6.570312 -1.859375 7.535156 -1.609375 8.609375 -1.609375 C 9.722656 -1.609375 10.675781 -1.851562 11.46875 -2.34375 C 12.269531 -2.832031 12.882812 -3.539062 13.3125 -4.46875 L 15.703125 -4.46875 C 15.128906 -3 14.21875 -1.863281 12.96875 -1.0625 C 11.726562 -0.269531 10.273438 0.125 8.609375 0.125 C 7.179688 0.125 5.882812 -0.207031 4.71875 -0.875 C 3.550781 -1.539062 2.628906 -2.46875 1.953125 -3.65625 C 1.285156 -4.84375 0.953125 -6.179688 0.953125 -7.671875 Z M 0.953125 -7.671875 "/></g></g></g><g fill="#ffffff" fill-opacity="1"><g transform="translate(142.612705, 296.160243)"><g><path d="M 0.953125 -6.078125 C 0.953125 -7.304688 1.195312 -8.382812 1.6875 -9.3125 C 2.1875 -10.25 2.875 -10.972656 3.75 -11.484375 C 4.625 -11.992188 5.597656 -12.25 6.671875 -12.25 C 7.722656 -12.25 8.632812 -12.019531 9.40625 -11.5625 C 10.1875 -11.113281 10.769531 -10.546875 11.15625 -9.859375 L 11.15625 -12.0625 L 13.171875 -12.0625 L 13.171875 0 L 11.15625 0 L 11.15625 -2.25 C 10.757812 -1.539062 10.164062 -0.953125 9.375 -0.484375 C 8.59375 -0.0234375 7.679688 0.203125 6.640625 0.203125 C 5.566406 0.203125 4.597656 -0.0625 3.734375 -0.59375 C 2.867188 -1.125 2.1875 -1.863281 1.6875 -2.8125 C 1.195312 -3.769531 0.953125 -4.859375 0.953125 -6.078125 Z M 11.15625 -6.046875 C 11.15625 -6.953125 10.96875 -7.742188 10.59375 -8.421875 C 10.226562 -9.097656 9.734375 -9.613281 9.109375 -9.96875 C 8.492188 -10.332031 7.8125 -10.515625 7.0625 -10.515625 C 6.3125 -10.515625 5.628906 -10.335938 5.015625 -9.984375 C 4.398438 -9.628906 3.90625 -9.113281 3.53125 -8.4375 C 3.164062 -7.769531 2.984375 -6.984375 2.984375 -6.078125 C 2.984375 -5.148438 3.164062 -4.34375 3.53125 -3.65625 C 3.90625 -2.976562 4.398438 -2.457031 5.015625 -2.09375 C 5.628906 -1.738281 6.3125 -1.5625 7.0625 -1.5625 C 7.8125 -1.5625 8.492188 -1.738281 9.109375 -2.09375 C 9.734375 -2.457031 10.226562 -2.976562 10.59375 -3.65625 C 10.96875 -4.34375 11.15625 -5.140625 11.15625 -6.046875 Z M 11.15625 -6.046875 "/></g></g></g><g fill="#ffffff" fill-opacity="1"><g transform="translate(157.482059, 296.160243)"><g><path d="M 3.703125 -9.828125 C 4.097656 -10.523438 4.6875 -11.101562 5.46875 -11.5625 C 6.25 -12.019531 7.160156 -12.25 8.203125 -12.25 C 9.273438 -12.25 10.25 -11.992188 11.125 -11.484375 C 12 -10.972656 12.679688 -10.25 13.171875 -9.3125 C 13.671875 -8.382812 13.921875 -7.304688 13.921875 -6.078125 C 13.921875 -4.859375 13.671875 -3.769531 13.171875 -2.8125 C 12.679688 -1.863281 12 -1.125 11.125 -0.59375 C 10.25 -0.0625 9.273438 0.203125 8.203125 0.203125 C 7.179688 0.203125 6.273438 -0.0234375 5.484375 -0.484375 C 4.703125 -0.953125 4.109375 -1.53125 3.703125 -2.21875 L 3.703125 5.71875 L 1.6875 5.71875 L 1.6875 -12.0625 L 3.703125 -12.0625 Z M 11.875 -6.078125 C 11.875 -6.984375 11.691406 -7.769531 11.328125 -8.4375 C 10.960938 -9.113281 10.46875 -9.628906 9.84375 -9.984375 C 9.21875 -10.335938 8.53125 -10.515625 7.78125 -10.515625 C 7.050781 -10.515625 6.375 -10.332031 5.75 -9.96875 C 5.125 -9.613281 4.625 -9.09375 4.25 -8.40625 C 3.882812 -7.726562 3.703125 -6.941406 3.703125 -6.046875 C 3.703125 -5.140625 3.882812 -4.34375 4.25 -3.65625 C 4.625 -2.976562 5.125 -2.457031 5.75 -2.09375 C 6.375 -1.738281 7.050781 -1.5625 7.78125 -1.5625 C 8.53125 -1.5625 9.21875 -1.738281 9.84375 -2.09375 C 10.46875 -2.457031 10.960938 -2.976562 11.328125 -3.65625 C 11.691406 -4.34375 11.875 -5.148438 11.875 -6.078125 Z M 11.875 -6.078125 "/></g></g></g><g fill="#ffffff" fill-opacity="1"><g transform="translate(172.351413, 296.160243)"><g><path d="M 2.734375 -14.015625 C 2.347656 -14.015625 2.019531 -14.144531 1.75 -14.40625 C 1.488281 -14.675781 1.359375 -15 1.359375 -15.375 C 1.359375 -15.757812 1.488281 -16.082031 1.75 -16.34375 C 2.019531 -16.601562 2.347656 -16.734375 2.734375 -16.734375 C 3.097656 -16.734375 3.40625 -16.601562 3.65625 -16.34375 C 3.914062 -16.082031 4.046875 -15.757812 4.046875 -15.375 C 4.046875 -15 3.914062 -14.675781 3.65625 -14.40625 C 3.40625 -14.144531 3.097656 -14.015625 2.734375 -14.015625 Z M 3.703125 -12.0625 L 3.703125 0 L 1.6875 0 L 1.6875 -12.0625 Z M 3.703125 -12.0625 "/></g></g></g><g fill="#ffffff" fill-opacity="1"><g transform="translate(177.762454, 296.160243)"><g><path d="M 4.140625 -10.40625 L 4.140625 -3.296875 C 4.140625 -2.710938 4.265625 -2.296875 4.515625 -2.046875 C 4.765625 -1.804688 5.195312 -1.6875 5.8125 -1.6875 L 7.28125 -1.6875 L 7.28125 0 L 5.484375 0 C 4.367188 0 3.53125 -0.253906 2.96875 -0.765625 C 2.414062 -1.285156 2.140625 -2.128906 2.140625 -3.296875 L 2.140625 -10.40625 L 0.578125 -10.40625 L 0.578125 -12.0625 L 2.140625 -12.0625 L 2.140625 -15.09375 L 4.140625 -15.09375 L 4.140625 -12.0625 L 7.28125 -12.0625 L 7.28125 -10.40625 Z M 4.140625 -10.40625 "/></g></g></g><g fill="#ffffff" fill-opacity="1"><g transform="translate(185.769026, 296.160243)"><g><path d="M 0.953125 -6.078125 C 0.953125 -7.304688 1.195312 -8.382812 1.6875 -9.3125 C 2.1875 -10.25 2.875 -10.972656 3.75 -11.484375 C 4.625 -11.992188 5.597656 -12.25 6.671875 -12.25 C 7.722656 -12.25 8.632812 -12.019531 9.40625 -11.5625 C 10.1875 -11.113281 10.769531 -10.546875 11.15625 -9.859375 L 11.15625 -12.0625 L 13.171875 -12.0625 L 13.171875 0 L 11.15625 0 L 11.15625 -2.25 C 10.757812 -1.539062 10.164062 -0.953125 9.375 -0.484375 C 8.59375 -0.0234375 7.679688 0.203125 6.640625 0.203125 C 5.566406 0.203125 4.597656 -0.0625 3.734375 -0.59375 C 2.867188 -1.125 2.1875 -1.863281 1.6875 -2.8125 C 1.195312 -3.769531 0.953125 -4.859375 0.953125 -6.078125 Z M 11.15625 -6.046875 C 11.15625 -6.953125 10.96875 -7.742188 10.59375 -8.421875 C 10.226562 -9.097656 9.734375 -9.613281 9.109375 -9.96875 C 8.492188 -10.332031 7.8125 -10.515625 7.0625 -10.515625 C 6.3125 -10.515625 5.628906 -10.335938 5.015625 -9.984375 C 4.398438 -9.628906 3.90625 -9.113281 3.53125 -8.4375 C 3.164062 -7.769531 2.984375 -6.984375 2.984375 -6.078125 C 2.984375 -5.148438 3.164062 -4.34375 3.53125 -3.65625 C 3.90625 -2.976562 4.398438 -2.457031 5.015625 -2.09375 C 5.628906 -1.738281 6.3125 -1.5625 7.0625 -1.5625 C 7.8125 -1.5625 8.492188 -1.738281 9.109375 -2.09375 C 9.734375 -2.457031 10.226562 -2.976562 10.59375 -3.65625 C 10.96875 -4.34375 11.15625 -5.140625 11.15625 -6.046875 Z M 11.15625 -6.046875 "/></g></g></g><g fill="#ffffff" fill-opacity="1"><g transform="translate(200.63838, 296.160243)"><g><path d="M 3.703125 -16.28125 L 3.703125 0 L 1.6875 0 L 1.6875 -16.28125 Z M 3.703125 -16.28125 "/></g></g></g><g fill="#ffffff" fill-opacity="1"><g transform="translate(206.049421, 296.160243)"><g/></g></g><g fill="#ffffff" fill-opacity="1"><g transform="translate(211.92238, 296.160243)"><g><path d="M 0.953125 -7.671875 C 0.953125 -9.171875 1.285156 -10.519531 1.953125 -11.71875 C 2.628906 -12.914062 3.550781 -13.847656 4.71875 -14.515625 C 5.882812 -15.191406 7.179688 -15.53125 8.609375 -15.53125 C 10.273438 -15.53125 11.726562 -15.125 12.96875 -14.3125 C 14.21875 -13.507812 15.128906 -12.367188 15.703125 -10.890625 L 13.3125 -10.890625 C 12.882812 -11.816406 12.269531 -12.523438 11.46875 -13.015625 C 10.675781 -13.515625 9.722656 -13.765625 8.609375 -13.765625 C 7.535156 -13.765625 6.570312 -13.515625 5.71875 -13.015625 C 4.863281 -12.523438 4.191406 -11.820312 3.703125 -10.90625 C 3.222656 -9.988281 2.984375 -8.910156 2.984375 -7.671875 C 2.984375 -6.460938 3.222656 -5.398438 3.703125 -4.484375 C 4.191406 -3.566406 4.863281 -2.859375 5.71875 -2.359375 C 6.570312 -1.859375 7.535156 -1.609375 8.609375 -1.609375 C 9.722656 -1.609375 10.675781 -1.851562 11.46875 -2.34375 C 12.269531 -2.832031 12.882812 -3.539062 13.3125 -4.46875 L 15.703125 -4.46875 C 15.128906 -3 14.21875 -1.863281 12.96875 -1.0625 C 11.726562 -0.269531 10.273438 0.125 8.609375 0.125 C 7.179688 0.125 5.882812 -0.207031 4.71875 -0.875 C 3.550781 -1.539062 2.628906 -2.46875 1.953125 -3.65625 C 1.285156 -4.84375 0.953125 -6.179688 0.953125 -7.671875 Z M 0.953125 -7.671875 "/></g></g></g><g fill="#ffffff" fill-opacity="1"><g transform="translate(228.903351, 296.160243)"><g><path d="M 6.953125 0.203125 C 5.828125 0.203125 4.804688 -0.0507812 3.890625 -0.5625 C 2.972656 -1.082031 2.253906 -1.816406 1.734375 -2.765625 C 1.210938 -3.710938 0.953125 -4.804688 0.953125 -6.046875 C 0.953125 -7.273438 1.21875 -8.363281 1.75 -9.3125 C 2.28125 -10.257812 3.007812 -10.984375 3.9375 -11.484375 C 4.863281 -11.992188 5.898438 -12.25 7.046875 -12.25 C 8.179688 -12.25 9.210938 -11.992188 10.140625 -11.484375 C 11.066406 -10.984375 11.796875 -10.265625 12.328125 -9.328125 C 12.867188 -8.390625 13.140625 -7.296875 13.140625 -6.046875 C 13.140625 -4.804688 12.863281 -3.710938 12.3125 -2.765625 C 11.757812 -1.816406 11.015625 -1.082031 10.078125 -0.5625 C 9.140625 -0.0507812 8.097656 0.203125 6.953125 0.203125 Z M 6.953125 -1.5625 C 7.671875 -1.5625 8.34375 -1.726562 8.96875 -2.0625 C 9.601562 -2.40625 10.113281 -2.910156 10.5 -3.578125 C 10.894531 -4.253906 11.09375 -5.078125 11.09375 -6.046875 C 11.09375 -7.015625 10.898438 -7.835938 10.515625 -8.515625 C 10.128906 -9.191406 9.628906 -9.691406 9.015625 -10.015625 C 8.398438 -10.347656 7.734375 -10.515625 7.015625 -10.515625 C 6.285156 -10.515625 5.613281 -10.347656 5 -10.015625 C 4.394531 -9.691406 3.90625 -9.191406 3.53125 -8.515625 C 3.164062 -7.835938 2.984375 -7.015625 2.984375 -6.046875 C 2.984375 -5.066406 3.160156 -4.238281 3.515625 -3.5625 C 3.878906 -2.882812 4.363281 -2.378906 4.96875 -2.046875 C 5.570312 -1.722656 6.234375 -1.5625 6.953125 -1.5625 Z M 6.953125 -1.5625 "/></g></g></g><g fill="#ffffff" fill-opacity="1"><g transform="translate(242.980842, 296.160243)"><g><path d="M 5.96875 0.203125 C 5.039062 0.203125 4.207031 0.046875 3.46875 -0.265625 C 2.738281 -0.585938 2.160156 -1.03125 1.734375 -1.59375 C 1.304688 -2.15625 1.070312 -2.804688 1.03125 -3.546875 L 3.109375 -3.546875 C 3.160156 -2.941406 3.4375 -2.445312 3.9375 -2.0625 C 4.445312 -1.6875 5.113281 -1.5 5.9375 -1.5 C 6.695312 -1.5 7.296875 -1.664062 7.734375 -2 C 8.179688 -2.34375 8.40625 -2.769531 8.40625 -3.28125 C 8.40625 -3.800781 8.171875 -4.191406 7.703125 -4.453125 C 7.234375 -4.710938 6.503906 -4.96875 5.515625 -5.21875 C 4.628906 -5.445312 3.898438 -5.679688 3.328125 -5.921875 C 2.765625 -6.171875 2.28125 -6.53125 1.875 -7 C 1.476562 -7.476562 1.28125 -8.109375 1.28125 -8.890625 C 1.28125 -9.503906 1.460938 -10.066406 1.828125 -10.578125 C 2.191406 -11.097656 2.710938 -11.503906 3.390625 -11.796875 C 4.066406 -12.097656 4.835938 -12.25 5.703125 -12.25 C 7.035156 -12.25 8.109375 -11.910156 8.921875 -11.234375 C 9.742188 -10.566406 10.1875 -9.644531 10.25 -8.46875 L 8.25 -8.46875 C 8.207031 -9.101562 7.953125 -9.609375 7.484375 -9.984375 C 7.023438 -10.367188 6.40625 -10.5625 5.625 -10.5625 C 4.90625 -10.5625 4.332031 -10.40625 3.90625 -10.09375 C 3.488281 -9.789062 3.28125 -9.390625 3.28125 -8.890625 C 3.28125 -8.492188 3.40625 -8.164062 3.65625 -7.90625 C 3.914062 -7.65625 4.238281 -7.453125 4.625 -7.296875 C 5.019531 -7.140625 5.5625 -6.96875 6.25 -6.78125 C 7.113281 -6.539062 7.816406 -6.304688 8.359375 -6.078125 C 8.898438 -5.847656 9.363281 -5.503906 9.75 -5.046875 C 10.144531 -4.597656 10.347656 -4.007812 10.359375 -3.28125 C 10.359375 -2.613281 10.175781 -2.015625 9.8125 -1.484375 C 9.445312 -0.960938 8.929688 -0.550781 8.265625 -0.25 C 7.597656 0.0507812 6.832031 0.203125 5.96875 0.203125 Z M 5.96875 0.203125 "/></g></g></g><g fill="#ffffff" fill-opacity="1"><g transform="translate(254.462791, 296.160243)"><g><path d="M 4.140625 -10.40625 L 4.140625 -3.296875 C 4.140625 -2.710938 4.265625 -2.296875 4.515625 -2.046875 C 4.765625 -1.804688 5.195312 -1.6875 5.8125 -1.6875 L 7.28125 -1.6875 L 7.28125 0 L 5.484375 0 C 4.367188 0 3.53125 -0.253906 2.96875 -0.765625 C 2.414062 -1.285156 2.140625 -2.128906 2.140625 -3.296875 L 2.140625 -10.40625 L 0.578125 -10.40625 L 0.578125 -12.0625 L 2.140625 -12.0625 L 2.140625 -15.09375 L 4.140625 -15.09375 L 4.140625 -12.0625 L 7.28125 -12.0625 L 7.28125 -10.40625 Z M 4.140625 -10.40625 "/></g></g></g></svg>