<svg xmlns="http://www.w3.org/2000/svg" xmlns:xlink="http://www.w3.org/1999/xlink" width="1024" zoomAndPan="magnify" viewBox="0 0 768 576" height="768" preserveAspectRatio="xMidYMid meet" version="1.0"><defs><g/><clipPath id="id1"><path d="M 127.074219 98 L 228 98 L 228 473.773438 L 127.074219 473.773438 Z M 127.074219 98 " clip-rule="nonzero"/></clipPath><clipPath id="id2"><path d="M 349 166 L 450 166 L 450 473.773438 L 349 473.773438 Z M 349 166 " clip-rule="nonzero"/></clipPath><clipPath id="id3"><path d="M 572 166 L 672.324219 166 L 672.324219 473.773438 L 572 473.773438 Z M 572 166 " clip-rule="nonzero"/></clipPath><clipPath id="id4"><path d="M 127.074219 166 L 228 166 L 228 473.773438 L 127.074219 473.773438 Z M 127.074219 166 " clip-rule="nonzero"/></clipPath><clipPath id="id5"><path d="M 349 200 L 450 200 L 450 473.773438 L 349 473.773438 Z M 349 200 " clip-rule="nonzero"/></clipPath><clipPath id="id6"><path d="M 572 200 L 672.324219 200 L 672.324219 473.773438 L 572 473.773438 Z M 572 200 " clip-rule="nonzero"/></clipPath><clipPath id="id7"><path d="M 127.074219 235 L 228 235 L 228 473.773438 L 127.074219 473.773438 Z M 127.074219 235 " clip-rule="nonzero"/></clipPath><clipPath id="id8"><path d="M 349 337 L 450 337 L 450 473.773438 L 349 473.773438 Z M 349 337 " clip-rule="nonzero"/></clipPath><clipPath id="id9"><path d="M 572 371 L 672.324219 371 L 672.324219 473.773438 L 572 473.773438 Z M 572 371 " clip-rule="nonzero"/></clipPath></defs><g clip-path="url(#id1)"><path fill="#bee3f8" d="M 127.078125 473.773438 L 127.078125 123.714844 C 127.078125 122.894531 127.117188 122.078125 127.199219 121.261719 C 127.277344 120.449219 127.398438 119.640625 127.558594 118.835938 C 127.71875 118.03125 127.917969 117.238281 128.152344 116.457031 C 128.390625 115.671875 128.667969 114.902344 128.980469 114.144531 C 129.292969 113.390625 129.644531 112.648438 130.027344 111.925781 C 130.414062 111.207031 130.835938 110.503906 131.289062 109.824219 C 131.746094 109.140625 132.230469 108.484375 132.75 107.851562 C 133.269531 107.21875 133.820312 106.613281 134.398438 106.035156 C 134.976562 105.453125 135.582031 104.90625 136.214844 104.386719 C 136.847656 103.867188 137.503906 103.378906 138.183594 102.925781 C 138.863281 102.46875 139.566406 102.046875 140.289062 101.664062 C 141.007812 101.277344 141.75 100.925781 142.503906 100.613281 C 143.261719 100.300781 144.03125 100.023438 144.8125 99.785156 C 145.597656 99.550781 146.390625 99.351562 147.191406 99.191406 C 147.996094 99.03125 148.804688 98.910156 149.617188 98.832031 C 150.433594 98.75 151.25 98.710938 152.066406 98.710938 L 202.046875 98.710938 C 202.867188 98.710938 203.683594 98.75 204.5 98.832031 C 205.3125 98.910156 206.121094 99.03125 206.925781 99.191406 C 207.726562 99.351562 208.519531 99.550781 209.304688 99.785156 C 210.085938 100.023438 210.855469 100.300781 211.613281 100.613281 C 212.367188 100.925781 213.105469 101.277344 213.828125 101.664062 C 214.550781 102.046875 215.25 102.46875 215.933594 102.925781 C 216.613281 103.378906 217.269531 103.867188 217.902344 104.386719 C 218.535156 104.90625 219.140625 105.453125 219.71875 106.035156 C 220.296875 106.613281 220.847656 107.21875 221.367188 107.851562 C 221.886719 108.484375 222.371094 109.140625 222.828125 109.824219 C 223.28125 110.503906 223.703125 111.207031 224.089844 111.925781 C 224.472656 112.648438 224.824219 113.390625 225.136719 114.144531 C 225.449219 114.902344 225.726562 115.671875 225.960938 116.457031 C 226.199219 117.238281 226.398438 118.03125 226.558594 118.835938 C 226.71875 119.640625 226.839844 120.449219 226.917969 121.261719 C 227 122.078125 227.039062 122.894531 227.039062 123.714844 L 227.039062 473.773438 Z M 127.078125 473.773438 " fill-opacity="1" fill-rule="nonzero"/></g><g clip-path="url(#id2)"><path fill="#bee3f8" d="M 349.71875 473.773438 L 349.71875 191.839844 C 349.71875 191.019531 349.757812 190.203125 349.839844 189.386719 C 349.917969 188.574219 350.039062 187.765625 350.199219 186.960938 C 350.359375 186.15625 350.554688 185.363281 350.792969 184.582031 C 351.03125 183.796875 351.308594 183.027344 351.621094 182.269531 C 351.933594 181.515625 352.28125 180.773438 352.667969 180.050781 C 353.054688 179.332031 353.476562 178.628906 353.929688 177.949219 C 354.382812 177.265625 354.871094 176.609375 355.390625 175.976562 C 355.910156 175.34375 356.457031 174.738281 357.039062 174.160156 C 357.617188 173.578125 358.222656 173.03125 358.855469 172.511719 C 359.488281 171.992188 360.144531 171.503906 360.824219 171.050781 C 361.503906 170.59375 362.207031 170.171875 362.929688 169.789062 C 363.648438 169.402344 364.390625 169.050781 365.144531 168.738281 C 365.902344 168.425781 366.671875 168.148438 367.453125 167.910156 C 368.238281 167.675781 369.03125 167.476562 369.832031 167.316406 C 370.636719 167.15625 371.445312 167.035156 372.257812 166.957031 C 373.074219 166.875 373.890625 166.835938 374.707031 166.835938 L 424.6875 166.835938 C 425.507812 166.835938 426.324219 166.875 427.136719 166.957031 C 427.953125 167.035156 428.761719 167.15625 429.5625 167.316406 C 430.367188 167.476562 431.160156 167.675781 431.941406 167.910156 C 432.726562 168.148438 433.496094 168.425781 434.253906 168.738281 C 435.007812 169.050781 435.746094 169.402344 436.46875 169.789062 C 437.191406 170.171875 437.890625 170.59375 438.574219 171.050781 C 439.253906 171.503906 439.910156 171.992188 440.542969 172.511719 C 441.175781 173.03125 441.78125 173.578125 442.359375 174.160156 C 442.9375 174.738281 443.488281 175.34375 444.007812 175.976562 C 444.527344 176.609375 445.011719 177.265625 445.46875 177.949219 C 445.921875 178.628906 446.34375 179.332031 446.726562 180.050781 C 447.113281 180.773438 447.464844 181.515625 447.777344 182.269531 C 448.089844 183.027344 448.367188 183.796875 448.601562 184.582031 C 448.839844 185.363281 449.039062 186.15625 449.199219 186.960938 C 449.359375 187.765625 449.476562 188.574219 449.558594 189.386719 C 449.640625 190.203125 449.679688 191.019531 449.679688 191.839844 L 449.679688 473.773438 Z M 349.71875 473.773438 " fill-opacity="1" fill-rule="nonzero"/></g><g clip-path="url(#id3)"><path fill="#bee3f8" d="M 572.359375 473.773438 L 572.359375 191.839844 C 572.359375 191.019531 572.398438 190.203125 572.480469 189.386719 C 572.558594 188.574219 572.679688 187.765625 572.839844 186.960938 C 573 186.15625 573.195312 185.363281 573.433594 184.582031 C 573.671875 183.796875 573.949219 183.027344 574.261719 182.269531 C 574.574219 181.515625 574.921875 180.773438 575.308594 180.050781 C 575.695312 179.332031 576.117188 178.628906 576.570312 177.949219 C 577.023438 177.265625 577.511719 176.609375 578.03125 175.976562 C 578.550781 175.34375 579.097656 174.738281 579.679688 174.160156 C 580.257812 173.578125 580.863281 173.03125 581.496094 172.511719 C 582.128906 171.992188 582.785156 171.503906 583.464844 171.050781 C 584.144531 170.59375 584.847656 170.171875 585.566406 169.789062 C 586.289062 169.402344 587.027344 169.050781 587.785156 168.738281 C 588.542969 168.425781 589.3125 168.148438 590.09375 167.910156 C 590.878906 167.675781 591.671875 167.476562 592.472656 167.316406 C 593.277344 167.15625 594.085938 167.035156 594.898438 166.957031 C 595.714844 166.875 596.53125 166.835938 597.347656 166.835938 L 647.328125 166.835938 C 648.148438 166.835938 648.964844 166.875 649.777344 166.957031 C 650.59375 167.035156 651.402344 167.15625 652.203125 167.316406 C 653.007812 167.476562 653.800781 167.675781 654.582031 167.910156 C 655.367188 168.148438 656.136719 168.425781 656.890625 168.738281 C 657.648438 169.050781 658.386719 169.402344 659.109375 169.789062 C 659.832031 170.171875 660.53125 170.59375 661.210938 171.050781 C 661.894531 171.503906 662.550781 171.992188 663.183594 172.511719 C 663.816406 173.03125 664.421875 173.578125 665 174.160156 C 665.578125 174.738281 666.128906 175.34375 666.648438 175.976562 C 667.164062 176.609375 667.652344 177.265625 668.109375 177.949219 C 668.5625 178.628906 668.984375 179.332031 669.367188 180.050781 C 669.753906 180.773438 670.105469 181.515625 670.417969 182.269531 C 670.730469 183.027344 671.003906 183.796875 671.242188 184.582031 C 671.480469 185.363281 671.679688 186.15625 671.839844 186.960938 C 672 187.765625 672.117188 188.574219 672.199219 189.386719 C 672.277344 190.203125 672.320312 191.019531 672.320312 191.839844 L 672.320312 473.773438 Z M 572.359375 473.773438 " fill-opacity="1" fill-rule="nonzero"/></g><g clip-path="url(#id4)"><path fill="#63b3ed" d="M 127.078125 166.902344 L 227.039062 166.902344 L 227.039062 473.773438 L 127.078125 473.773438 Z M 127.078125 166.902344 " fill-opacity="1" fill-rule="nonzero"/></g><g clip-path="url(#id5)"><path fill="#63b3ed" d="M 349.71875 200.941406 L 449.679688 200.941406 L 449.679688 473.773438 L 349.71875 473.773438 Z M 349.71875 200.941406 " fill-opacity="1" fill-rule="nonzero"/></g><g clip-path="url(#id6)"><path fill="#63b3ed" d="M 572.359375 200.941406 L 672.320312 200.941406 L 672.320312 473.773438 L 572.359375 473.773438 Z M 572.359375 200.941406 " fill-opacity="1" fill-rule="nonzero"/></g><g clip-path="url(#id7)"><path fill="#2a4365" d="M 127.078125 235.097656 L 227.039062 235.097656 L 227.039062 473.773438 L 127.078125 473.773438 Z M 127.078125 235.097656 " fill-opacity="1" fill-rule="nonzero"/></g><g clip-path="url(#id8)"><path fill="#2a4365" d="M 349.71875 337.355469 L 449.679688 337.355469 L 449.679688 473.773438 L 349.71875 473.773438 Z M 349.71875 337.355469 " fill-opacity="1" fill-rule="nonzero"/></g><g clip-path="url(#id9)"><path fill="#2a4365" d="M 572.359375 371.460938 L 672.320312 371.460938 L 672.320312 473.773438 L 572.359375 473.773438 Z M 572.359375 371.460938 " fill-opacity="1" fill-rule="nonzero"/></g><g fill="#000000" fill-opacity="1"><g transform="translate(134.212378, 510.876983)"><g><path d="M 8.640625 0.15625 C 7.222656 0.15625 5.925781 -0.175781 4.75 -0.84375 C 3.570312 -1.507812 2.644531 -2.441406 1.96875 -3.640625 C 1.289062 -4.835938 0.953125 -6.179688 0.953125 -7.671875 C 0.953125 -9.171875 1.289062 -10.519531 1.96875 -11.71875 C 2.644531 -12.914062 3.570312 -13.847656 4.75 -14.515625 C 5.925781 -15.179688 7.222656 -15.515625 8.640625 -15.515625 C 10.078125 -15.515625 11.382812 -15.179688 12.5625 -14.515625 C 13.738281 -13.847656 14.660156 -12.914062 15.328125 -11.71875 C 16.003906 -10.53125 16.34375 -9.179688 16.34375 -7.671875 C 16.34375 -6.160156 16.003906 -4.8125 15.328125 -3.625 C 14.660156 -2.4375 13.738281 -1.507812 12.5625 -0.84375 C 11.382812 -0.175781 10.078125 0.15625 8.640625 0.15625 Z M 8.640625 -1.578125 C 9.710938 -1.578125 10.675781 -1.828125 11.53125 -2.328125 C 12.394531 -2.828125 13.070312 -3.539062 13.5625 -4.46875 C 14.050781 -5.394531 14.296875 -6.460938 14.296875 -7.671875 C 14.296875 -8.910156 14.050781 -9.988281 13.5625 -10.90625 C 13.070312 -11.820312 12.398438 -12.523438 11.546875 -13.015625 C 10.703125 -13.515625 9.734375 -13.765625 8.640625 -13.765625 C 7.554688 -13.765625 6.585938 -13.515625 5.734375 -13.015625 C 4.890625 -12.523438 4.21875 -11.820312 3.71875 -10.90625 C 3.226562 -9.988281 2.984375 -8.910156 2.984375 -7.671875 C 2.984375 -6.460938 3.226562 -5.394531 3.71875 -4.46875 C 4.21875 -3.539062 4.894531 -2.828125 5.75 -2.328125 C 6.613281 -1.828125 7.578125 -1.578125 8.640625 -1.578125 Z M 8.640625 -1.578125 "/></g></g></g><g fill="#000000" fill-opacity="1"><g transform="translate(151.501299, 510.876983)"><g><path d="M 3.703125 -9.828125 C 4.097656 -10.523438 4.6875 -11.101562 5.46875 -11.5625 C 6.25 -12.019531 7.160156 -12.25 8.203125 -12.25 C 9.273438 -12.25 10.25 -11.992188 11.125 -11.484375 C 12 -10.972656 12.679688 -10.25 13.171875 -9.3125 C 13.671875 -8.382812 13.921875 -7.304688 13.921875 -6.078125 C 13.921875 -4.859375 13.671875 -3.769531 13.171875 -2.8125 C 12.679688 -1.863281 12 -1.125 11.125 -0.59375 C 10.25 -0.0625 9.273438 0.203125 8.203125 0.203125 C 7.179688 0.203125 6.273438 -0.0234375 5.484375 -0.484375 C 4.703125 -0.953125 4.109375 -1.53125 3.703125 -2.21875 L 3.703125 5.71875 L 1.6875 5.71875 L 1.6875 -12.0625 L 3.703125 -12.0625 Z M 11.875 -6.078125 C 11.875 -6.984375 11.691406 -7.769531 11.328125 -8.4375 C 10.960938 -9.113281 10.46875 -9.628906 9.84375 -9.984375 C 9.21875 -10.335938 8.53125 -10.515625 7.78125 -10.515625 C 7.050781 -10.515625 6.375 -10.332031 5.75 -9.96875 C 5.125 -9.613281 4.625 -9.09375 4.25 -8.40625 C 3.882812 -7.726562 3.703125 -6.941406 3.703125 -6.046875 C 3.703125 -5.140625 3.882812 -4.34375 4.25 -3.65625 C 4.625 -2.976562 5.125 -2.457031 5.75 -2.09375 C 6.375 -1.738281 7.050781 -1.5625 7.78125 -1.5625 C 8.53125 -1.5625 9.21875 -1.738281 9.84375 -2.09375 C 10.46875 -2.457031 10.960938 -2.976562 11.328125 -3.65625 C 11.691406 -4.34375 11.875 -5.148438 11.875 -6.078125 Z M 11.875 -6.078125 "/></g></g></g><g fill="#000000" fill-opacity="1"><g transform="translate(166.370653, 510.876983)"><g><path d="M 4.140625 -10.40625 L 4.140625 -3.296875 C 4.140625 -2.710938 4.265625 -2.296875 4.515625 -2.046875 C 4.765625 -1.804688 5.195312 -1.6875 5.8125 -1.6875 L 7.28125 -1.6875 L 7.28125 0 L 5.484375 0 C 4.367188 0 3.53125 -0.253906 2.96875 -0.765625 C 2.414062 -1.285156 2.140625 -2.128906 2.140625 -3.296875 L 2.140625 -10.40625 L 0.578125 -10.40625 L 0.578125 -12.0625 L 2.140625 -12.0625 L 2.140625 -15.09375 L 4.140625 -15.09375 L 4.140625 -12.0625 L 7.28125 -12.0625 L 7.28125 -10.40625 Z M 4.140625 -10.40625 "/></g></g></g><g fill="#000000" fill-opacity="1"><g transform="translate(174.377225, 510.876983)"><g><path d="M 2.734375 -14.015625 C 2.347656 -14.015625 2.019531 -14.144531 1.75 -14.40625 C 1.488281 -14.675781 1.359375 -15 1.359375 -15.375 C 1.359375 -15.757812 1.488281 -16.082031 1.75 -16.34375 C 2.019531 -16.601562 2.347656 -16.734375 2.734375 -16.734375 C 3.097656 -16.734375 3.40625 -16.601562 3.65625 -16.34375 C 3.914062 -16.082031 4.046875 -15.757812 4.046875 -15.375 C 4.046875 -15 3.914062 -14.675781 3.65625 -14.40625 C 3.40625 -14.144531 3.097656 -14.015625 2.734375 -14.015625 Z M 3.703125 -12.0625 L 3.703125 0 L 1.6875 0 L 1.6875 -12.0625 Z M 3.703125 -12.0625 "/></g></g></g><g fill="#000000" fill-opacity="1"><g transform="translate(179.788266, 510.876983)"><g><path d="M 6.953125 0.203125 C 5.828125 0.203125 4.804688 -0.0507812 3.890625 -0.5625 C 2.972656 -1.082031 2.253906 -1.816406 1.734375 -2.765625 C 1.210938 -3.710938 0.953125 -4.804688 0.953125 -6.046875 C 0.953125 -7.273438 1.21875 -8.363281 1.75 -9.3125 C 2.28125 -10.257812 3.007812 -10.984375 3.9375 -11.484375 C 4.863281 -11.992188 5.898438 -12.25 7.046875 -12.25 C 8.179688 -12.25 9.210938 -11.992188 10.140625 -11.484375 C 11.066406 -10.984375 11.796875 -10.265625 12.328125 -9.328125 C 12.867188 -8.390625 13.140625 -7.296875 13.140625 -6.046875 C 13.140625 -4.804688 12.863281 -3.710938 12.3125 -2.765625 C 11.757812 -1.816406 11.015625 -1.082031 10.078125 -0.5625 C 9.140625 -0.0507812 8.097656 0.203125 6.953125 0.203125 Z M 6.953125 -1.5625 C 7.671875 -1.5625 8.34375 -1.726562 8.96875 -2.0625 C 9.601562 -2.40625 10.113281 -2.910156 10.5 -3.578125 C 10.894531 -4.253906 11.09375 -5.078125 11.09375 -6.046875 C 11.09375 -7.015625 10.898438 -7.835938 10.515625 -8.515625 C 10.128906 -9.191406 9.628906 -9.691406 9.015625 -10.015625 C 8.398438 -10.347656 7.734375 -10.515625 7.015625 -10.515625 C 6.285156 -10.515625 5.613281 -10.347656 5 -10.015625 C 4.394531 -9.691406 3.90625 -9.191406 3.53125 -8.515625 C 3.164062 -7.835938 2.984375 -7.015625 2.984375 -6.046875 C 2.984375 -5.066406 3.160156 -4.238281 3.515625 -3.5625 C 3.878906 -2.882812 4.363281 -2.378906 4.96875 -2.046875 C 5.570312 -1.722656 6.234375 -1.5625 6.953125 -1.5625 Z M 6.953125 -1.5625 "/></g></g></g><g fill="#000000" fill-opacity="1"><g transform="translate(193.865757, 510.876983)"><g><path d="M 7.5625 -12.28125 C 9.03125 -12.28125 10.21875 -11.832031 11.125 -10.9375 C 12.039062 -10.050781 12.5 -8.773438 12.5 -7.109375 L 12.5 0 L 10.515625 0 L 10.515625 -6.8125 C 10.515625 -8.019531 10.210938 -8.941406 9.609375 -9.578125 C 9.015625 -10.210938 8.195312 -10.53125 7.15625 -10.53125 C 6.09375 -10.53125 5.25 -10.203125 4.625 -9.546875 C 4.007812 -8.890625 3.703125 -7.929688 3.703125 -6.671875 L 3.703125 0 L 1.6875 0 L 1.6875 -12.0625 L 3.703125 -12.0625 L 3.703125 -10.34375 C 4.097656 -10.957031 4.632812 -11.429688 5.3125 -11.765625 C 6 -12.109375 6.75 -12.28125 7.5625 -12.28125 Z M 7.5625 -12.28125 "/></g></g></g><g fill="#000000" fill-opacity="1"><g transform="translate(207.943248, 510.876983)"><g/></g></g><g fill="#000000" fill-opacity="1"><g transform="translate(213.816207, 510.876983)"><g><path d="M 0.84375 -14.078125 L 0.84375 -15.90625 L 4.96875 -15.90625 L 4.96875 0 L 2.953125 0 L 2.953125 -14.078125 Z M 0.84375 -14.078125 "/></g></g></g><g fill="#000000" fill-opacity="1"><g transform="translate(356.681674, 510.876983)"><g><path d="M 8.640625 0.15625 C 7.222656 0.15625 5.925781 -0.175781 4.75 -0.84375 C 3.570312 -1.507812 2.644531 -2.441406 1.96875 -3.640625 C 1.289062 -4.835938 0.953125 -6.179688 0.953125 -7.671875 C 0.953125 -9.171875 1.289062 -10.519531 1.96875 -11.71875 C 2.644531 -12.914062 3.570312 -13.847656 4.75 -14.515625 C 5.925781 -15.179688 7.222656 -15.515625 8.640625 -15.515625 C 10.078125 -15.515625 11.382812 -15.179688 12.5625 -14.515625 C 13.738281 -13.847656 14.660156 -12.914062 15.328125 -11.71875 C 16.003906 -10.53125 16.34375 -9.179688 16.34375 -7.671875 C 16.34375 -6.160156 16.003906 -4.8125 15.328125 -3.625 C 14.660156 -2.4375 13.738281 -1.507812 12.5625 -0.84375 C 11.382812 -0.175781 10.078125 0.15625 8.640625 0.15625 Z M 8.640625 -1.578125 C 9.710938 -1.578125 10.675781 -1.828125 11.53125 -2.328125 C 12.394531 -2.828125 13.070312 -3.539062 13.5625 -4.46875 C 14.050781 -5.394531 14.296875 -6.460938 14.296875 -7.671875 C 14.296875 -8.910156 14.050781 -9.988281 13.5625 -10.90625 C 13.070312 -11.820312 12.398438 -12.523438 11.546875 -13.015625 C 10.703125 -13.515625 9.734375 -13.765625 8.640625 -13.765625 C 7.554688 -13.765625 6.585938 -13.515625 5.734375 -13.015625 C 4.890625 -12.523438 4.21875 -11.820312 3.71875 -10.90625 C 3.226562 -9.988281 2.984375 -8.910156 2.984375 -7.671875 C 2.984375 -6.460938 3.226562 -5.394531 3.71875 -4.46875 C 4.21875 -3.539062 4.894531 -2.828125 5.75 -2.328125 C 6.613281 -1.828125 7.578125 -1.578125 8.640625 -1.578125 Z M 8.640625 -1.578125 "/></g></g></g><g fill="#000000" fill-opacity="1"><g transform="translate(373.970595, 510.876983)"><g><path d="M 3.703125 -9.828125 C 4.097656 -10.523438 4.6875 -11.101562 5.46875 -11.5625 C 6.25 -12.019531 7.160156 -12.25 8.203125 -12.25 C 9.273438 -12.25 10.25 -11.992188 11.125 -11.484375 C 12 -10.972656 12.679688 -10.25 13.171875 -9.3125 C 13.671875 -8.382812 13.921875 -7.304688 13.921875 -6.078125 C 13.921875 -4.859375 13.671875 -3.769531 13.171875 -2.8125 C 12.679688 -1.863281 12 -1.125 11.125 -0.59375 C 10.25 -0.0625 9.273438 0.203125 8.203125 0.203125 C 7.179688 0.203125 6.273438 -0.0234375 5.484375 -0.484375 C 4.703125 -0.953125 4.109375 -1.53125 3.703125 -2.21875 L 3.703125 5.71875 L 1.6875 5.71875 L 1.6875 -12.0625 L 3.703125 -12.0625 Z M 11.875 -6.078125 C 11.875 -6.984375 11.691406 -7.769531 11.328125 -8.4375 C 10.960938 -9.113281 10.46875 -9.628906 9.84375 -9.984375 C 9.21875 -10.335938 8.53125 -10.515625 7.78125 -10.515625 C 7.050781 -10.515625 6.375 -10.332031 5.75 -9.96875 C 5.125 -9.613281 4.625 -9.09375 4.25 -8.40625 C 3.882812 -7.726562 3.703125 -6.941406 3.703125 -6.046875 C 3.703125 -5.140625 3.882812 -4.34375 4.25 -3.65625 C 4.625 -2.976562 5.125 -2.457031 5.75 -2.09375 C 6.375 -1.738281 7.050781 -1.5625 7.78125 -1.5625 C 8.53125 -1.5625 9.21875 -1.738281 9.84375 -2.09375 C 10.46875 -2.457031 10.960938 -2.976562 11.328125 -3.65625 C 11.691406 -4.34375 11.875 -5.148438 11.875 -6.078125 Z M 11.875 -6.078125 "/></g></g></g><g fill="#000000" fill-opacity="1"><g transform="translate(388.839948, 510.876983)"><g><path d="M 4.140625 -10.40625 L 4.140625 -3.296875 C 4.140625 -2.710938 4.265625 -2.296875 4.515625 -2.046875 C 4.765625 -1.804688 5.195312 -1.6875 5.8125 -1.6875 L 7.28125 -1.6875 L 7.28125 0 L 5.484375 0 C 4.367188 0 3.53125 -0.253906 2.96875 -0.765625 C 2.414062 -1.285156 2.140625 -2.128906 2.140625 -3.296875 L 2.140625 -10.40625 L 0.578125 -10.40625 L 0.578125 -12.0625 L 2.140625 -12.0625 L 2.140625 -15.09375 L 4.140625 -15.09375 L 4.140625 -12.0625 L 7.28125 -12.0625 L 7.28125 -10.40625 Z M 4.140625 -10.40625 "/></g></g></g><g fill="#000000" fill-opacity="1"><g transform="translate(396.846521, 510.876983)"><g><path d="M 2.734375 -14.015625 C 2.347656 -14.015625 2.019531 -14.144531 1.75 -14.40625 C 1.488281 -14.675781 1.359375 -15 1.359375 -15.375 C 1.359375 -15.757812 1.488281 -16.082031 1.75 -16.34375 C 2.019531 -16.601562 2.347656 -16.734375 2.734375 -16.734375 C 3.097656 -16.734375 3.40625 -16.601562 3.65625 -16.34375 C 3.914062 -16.082031 4.046875 -15.757812 4.046875 -15.375 C 4.046875 -15 3.914062 -14.675781 3.65625 -14.40625 C 3.40625 -14.144531 3.097656 -14.015625 2.734375 -14.015625 Z M 3.703125 -12.0625 L 3.703125 0 L 1.6875 0 L 1.6875 -12.0625 Z M 3.703125 -12.0625 "/></g></g></g><g fill="#000000" fill-opacity="1"><g transform="translate(402.257562, 510.876983)"><g><path d="M 6.953125 0.203125 C 5.828125 0.203125 4.804688 -0.0507812 3.890625 -0.5625 C 2.972656 -1.082031 2.253906 -1.816406 1.734375 -2.765625 C 1.210938 -3.710938 0.953125 -4.804688 0.953125 -6.046875 C 0.953125 -7.273438 1.21875 -8.363281 1.75 -9.3125 C 2.28125 -10.257812 3.007812 -10.984375 3.9375 -11.484375 C 4.863281 -11.992188 5.898438 -12.25 7.046875 -12.25 C 8.179688 -12.25 9.210938 -11.992188 10.140625 -11.484375 C 11.066406 -10.984375 11.796875 -10.265625 12.328125 -9.328125 C 12.867188 -8.390625 13.140625 -7.296875 13.140625 -6.046875 C 13.140625 -4.804688 12.863281 -3.710938 12.3125 -2.765625 C 11.757812 -1.816406 11.015625 -1.082031 10.078125 -0.5625 C 9.140625 -0.0507812 8.097656 0.203125 6.953125 0.203125 Z M 6.953125 -1.5625 C 7.671875 -1.5625 8.34375 -1.726562 8.96875 -2.0625 C 9.601562 -2.40625 10.113281 -2.910156 10.5 -3.578125 C 10.894531 -4.253906 11.09375 -5.078125 11.09375 -6.046875 C 11.09375 -7.015625 10.898438 -7.835938 10.515625 -8.515625 C 10.128906 -9.191406 9.628906 -9.691406 9.015625 -10.015625 C 8.398438 -10.347656 7.734375 -10.515625 7.015625 -10.515625 C 6.285156 -10.515625 5.613281 -10.347656 5 -10.015625 C 4.394531 -9.691406 3.90625 -9.191406 3.53125 -8.515625 C 3.164062 -7.835938 2.984375 -7.015625 2.984375 -6.046875 C 2.984375 -5.066406 3.160156 -4.238281 3.515625 -3.5625 C 3.878906 -2.882812 4.363281 -2.378906 4.96875 -2.046875 C 5.570312 -1.722656 6.234375 -1.5625 6.953125 -1.5625 Z M 6.953125 -1.5625 "/></g></g></g><g fill="#000000" fill-opacity="1"><g transform="translate(416.335053, 510.876983)"><g><path d="M 7.5625 -12.28125 C 9.03125 -12.28125 10.21875 -11.832031 11.125 -10.9375 C 12.039062 -10.050781 12.5 -8.773438 12.5 -7.109375 L 12.5 0 L 10.515625 0 L 10.515625 -6.8125 C 10.515625 -8.019531 10.210938 -8.941406 9.609375 -9.578125 C 9.015625 -10.210938 8.195312 -10.53125 7.15625 -10.53125 C 6.09375 -10.53125 5.25 -10.203125 4.625 -9.546875 C 4.007812 -8.890625 3.703125 -7.929688 3.703125 -6.671875 L 3.703125 0 L 1.6875 0 L 1.6875 -12.0625 L 3.703125 -12.0625 L 3.703125 -10.34375 C 4.097656 -10.957031 4.632812 -11.429688 5.3125 -11.765625 C 6 -12.109375 6.75 -12.28125 7.5625 -12.28125 Z M 7.5625 -12.28125 "/></g></g></g><g fill="#000000" fill-opacity="1"><g transform="translate(430.412544, 510.876983)"><g/></g></g><g fill="#000000" fill-opacity="1"><g transform="translate(436.285503, 510.876983)"><g><path d="M 1.125 -1.609375 C 2.988281 -3.097656 4.445312 -4.320312 5.5 -5.28125 C 6.550781 -6.25 7.441406 -7.253906 8.171875 -8.296875 C 8.898438 -9.347656 9.265625 -10.378906 9.265625 -11.390625 C 9.265625 -12.347656 9.03125 -13.097656 8.5625 -13.640625 C 8.101562 -14.191406 7.363281 -14.46875 6.34375 -14.46875 C 5.34375 -14.46875 4.566406 -14.15625 4.015625 -13.53125 C 3.460938 -12.914062 3.164062 -12.085938 3.125 -11.046875 L 1.1875 -11.046875 C 1.25 -12.691406 1.75 -13.957031 2.6875 -14.84375 C 3.625 -15.738281 4.832031 -16.1875 6.3125 -16.1875 C 7.820312 -16.1875 9.019531 -15.769531 9.90625 -14.9375 C 10.789062 -14.101562 11.234375 -12.953125 11.234375 -11.484375 C 11.234375 -10.265625 10.867188 -9.078125 10.140625 -7.921875 C 9.421875 -6.773438 8.597656 -5.765625 7.671875 -4.890625 C 6.753906 -4.023438 5.578125 -3.007812 4.140625 -1.84375 L 11.703125 -1.84375 L 11.703125 -0.171875 L 1.125 -0.171875 Z M 1.125 -1.609375 "/></g></g></g><g fill="#000000" fill-opacity="1"><g transform="translate(581.799415, 510.876983)"><g><path d="M 8.640625 0.15625 C 7.222656 0.15625 5.925781 -0.175781 4.75 -0.84375 C 3.570312 -1.507812 2.644531 -2.441406 1.96875 -3.640625 C 1.289062 -4.835938 0.953125 -6.179688 0.953125 -7.671875 C 0.953125 -9.171875 1.289062 -10.519531 1.96875 -11.71875 C 2.644531 -12.914062 3.570312 -13.847656 4.75 -14.515625 C 5.925781 -15.179688 7.222656 -15.515625 8.640625 -15.515625 C 10.078125 -15.515625 11.382812 -15.179688 12.5625 -14.515625 C 13.738281 -13.847656 14.660156 -12.914062 15.328125 -11.71875 C 16.003906 -10.53125 16.34375 -9.179688 16.34375 -7.671875 C 16.34375 -6.160156 16.003906 -4.8125 15.328125 -3.625 C 14.660156 -2.4375 13.738281 -1.507812 12.5625 -0.84375 C 11.382812 -0.175781 10.078125 0.15625 8.640625 0.15625 Z M 8.640625 -1.578125 C 9.710938 -1.578125 10.675781 -1.828125 11.53125 -2.328125 C 12.394531 -2.828125 13.070312 -3.539062 13.5625 -4.46875 C 14.050781 -5.394531 14.296875 -6.460938 14.296875 -7.671875 C 14.296875 -8.910156 14.050781 -9.988281 13.5625 -10.90625 C 13.070312 -11.820312 12.398438 -12.523438 11.546875 -13.015625 C 10.703125 -13.515625 9.734375 -13.765625 8.640625 -13.765625 C 7.554688 -13.765625 6.585938 -13.515625 5.734375 -13.015625 C 4.890625 -12.523438 4.21875 -11.820312 3.71875 -10.90625 C 3.226562 -9.988281 2.984375 -8.910156 2.984375 -7.671875 C 2.984375 -6.460938 3.226562 -5.394531 3.71875 -4.46875 C 4.21875 -3.539062 4.894531 -2.828125 5.75 -2.328125 C 6.613281 -1.828125 7.578125 -1.578125 8.640625 -1.578125 Z M 8.640625 -1.578125 "/></g></g></g><g fill="#000000" fill-opacity="1"><g transform="translate(599.088335, 510.876983)"><g><path d="M 3.703125 -9.828125 C 4.097656 -10.523438 4.6875 -11.101562 5.46875 -11.5625 C 6.25 -12.019531 7.160156 -12.25 8.203125 -12.25 C 9.273438 -12.25 10.25 -11.992188 11.125 -11.484375 C 12 -10.972656 12.679688 -10.25 13.171875 -9.3125 C 13.671875 -8.382812 13.921875 -7.304688 13.921875 -6.078125 C 13.921875 -4.859375 13.671875 -3.769531 13.171875 -2.8125 C 12.679688 -1.863281 12 -1.125 11.125 -0.59375 C 10.25 -0.0625 9.273438 0.203125 8.203125 0.203125 C 7.179688 0.203125 6.273438 -0.0234375 5.484375 -0.484375 C 4.703125 -0.953125 4.109375 -1.53125 3.703125 -2.21875 L 3.703125 5.71875 L 1.6875 5.71875 L 1.6875 -12.0625 L 3.703125 -12.0625 Z M 11.875 -6.078125 C 11.875 -6.984375 11.691406 -7.769531 11.328125 -8.4375 C 10.960938 -9.113281 10.46875 -9.628906 9.84375 -9.984375 C 9.21875 -10.335938 8.53125 -10.515625 7.78125 -10.515625 C 7.050781 -10.515625 6.375 -10.332031 5.75 -9.96875 C 5.125 -9.613281 4.625 -9.09375 4.25 -8.40625 C 3.882812 -7.726562 3.703125 -6.941406 3.703125 -6.046875 C 3.703125 -5.140625 3.882812 -4.34375 4.25 -3.65625 C 4.625 -2.976562 5.125 -2.457031 5.75 -2.09375 C 6.375 -1.738281 7.050781 -1.5625 7.78125 -1.5625 C 8.53125 -1.5625 9.21875 -1.738281 9.84375 -2.09375 C 10.46875 -2.457031 10.960938 -2.976562 11.328125 -3.65625 C 11.691406 -4.34375 11.875 -5.148438 11.875 -6.078125 Z M 11.875 -6.078125 "/></g></g></g><g fill="#000000" fill-opacity="1"><g transform="translate(613.957689, 510.876983)"><g><path d="M 4.140625 -10.40625 L 4.140625 -3.296875 C 4.140625 -2.710938 4.265625 -2.296875 4.515625 -2.046875 C 4.765625 -1.804688 5.195312 -1.6875 5.8125 -1.6875 L 7.28125 -1.6875 L 7.28125 0 L 5.484375 0 C 4.367188 0 3.53125 -0.253906 2.96875 -0.765625 C 2.414062 -1.285156 2.140625 -2.128906 2.140625 -3.296875 L 2.140625 -10.40625 L 0.578125 -10.40625 L 0.578125 -12.0625 L 2.140625 -12.0625 L 2.140625 -15.09375 L 4.140625 -15.09375 L 4.140625 -12.0625 L 7.28125 -12.0625 L 7.28125 -10.40625 Z M 4.140625 -10.40625 "/></g></g></g><g fill="#000000" fill-opacity="1"><g transform="translate(621.964261, 510.876983)"><g><path d="M 2.734375 -14.015625 C 2.347656 -14.015625 2.019531 -14.144531 1.75 -14.40625 C 1.488281 -14.675781 1.359375 -15 1.359375 -15.375 C 1.359375 -15.757812 1.488281 -16.082031 1.75 -16.34375 C 2.019531 -16.601562 2.347656 -16.734375 2.734375 -16.734375 C 3.097656 -16.734375 3.40625 -16.601562 3.65625 -16.34375 C 3.914062 -16.082031 4.046875 -15.757812 4.046875 -15.375 C 4.046875 -15 3.914062 -14.675781 3.65625 -14.40625 C 3.40625 -14.144531 3.097656 -14.015625 2.734375 -14.015625 Z M 3.703125 -12.0625 L 3.703125 0 L 1.6875 0 L 1.6875 -12.0625 Z M 3.703125 -12.0625 "/></g></g></g><g fill="#000000" fill-opacity="1"><g transform="translate(627.375302, 510.876983)"><g><path d="M 6.953125 0.203125 C 5.828125 0.203125 4.804688 -0.0507812 3.890625 -0.5625 C 2.972656 -1.082031 2.253906 -1.816406 1.734375 -2.765625 C 1.210938 -3.710938 0.953125 -4.804688 0.953125 -6.046875 C 0.953125 -7.273438 1.21875 -8.363281 1.75 -9.3125 C 2.28125 -10.257812 3.007812 -10.984375 3.9375 -11.484375 C 4.863281 -11.992188 5.898438 -12.25 7.046875 -12.25 C 8.179688 -12.25 9.210938 -11.992188 10.140625 -11.484375 C 11.066406 -10.984375 11.796875 -10.265625 12.328125 -9.328125 C 12.867188 -8.390625 13.140625 -7.296875 13.140625 -6.046875 C 13.140625 -4.804688 12.863281 -3.710938 12.3125 -2.765625 C 11.757812 -1.816406 11.015625 -1.082031 10.078125 -0.5625 C 9.140625 -0.0507812 8.097656 0.203125 6.953125 0.203125 Z M 6.953125 -1.5625 C 7.671875 -1.5625 8.34375 -1.726562 8.96875 -2.0625 C 9.601562 -2.40625 10.113281 -2.910156 10.5 -3.578125 C 10.894531 -4.253906 11.09375 -5.078125 11.09375 -6.046875 C 11.09375 -7.015625 10.898438 -7.835938 10.515625 -8.515625 C 10.128906 -9.191406 9.628906 -9.691406 9.015625 -10.015625 C 8.398438 -10.347656 7.734375 -10.515625 7.015625 -10.515625 C 6.285156 -10.515625 5.613281 -10.347656 5 -10.015625 C 4.394531 -9.691406 3.90625 -9.191406 3.53125 -8.515625 C 3.164062 -7.835938 2.984375 -7.015625 2.984375 -6.046875 C 2.984375 -5.066406 3.160156 -4.238281 3.515625 -3.5625 C 3.878906 -2.882812 4.363281 -2.378906 4.96875 -2.046875 C 5.570312 -1.722656 6.234375 -1.5625 6.953125 -1.5625 Z M 6.953125 -1.5625 "/></g></g></g><g fill="#000000" fill-opacity="1"><g transform="translate(641.452794, 510.876983)"><g><path d="M 7.5625 -12.28125 C 9.03125 -12.28125 10.21875 -11.832031 11.125 -10.9375 C 12.039062 -10.050781 12.5 -8.773438 12.5 -7.109375 L 12.5 0 L 10.515625 0 L 10.515625 -6.8125 C 10.515625 -8.019531 10.210938 -8.941406 9.609375 -9.578125 C 9.015625 -10.210938 8.195312 -10.53125 7.15625 -10.53125 C 6.09375 -10.53125 5.25 -10.203125 4.625 -9.546875 C 4.007812 -8.890625 3.703125 -7.929688 3.703125 -6.671875 L 3.703125 0 L 1.6875 0 L 1.6875 -12.0625 L 3.703125 -12.0625 L 3.703125 -10.34375 C 4.097656 -10.957031 4.632812 -11.429688 5.3125 -11.765625 C 6 -12.109375 6.75 -12.28125 7.5625 -12.28125 Z M 7.5625 -12.28125 "/></g></g></g><g fill="#000000" fill-opacity="1"><g transform="translate(655.530285, 510.876983)"><g/></g></g><g fill="#000000" fill-opacity="1"><g transform="translate(661.403244, 510.876983)"><g><path d="M 1.3125 -11.90625 C 1.414062 -13.25 1.9375 -14.300781 2.875 -15.0625 C 3.820312 -15.832031 5.039062 -16.21875 6.53125 -16.21875 C 7.53125 -16.21875 8.390625 -16.035156 9.109375 -15.671875 C 9.835938 -15.316406 10.390625 -14.828125 10.765625 -14.203125 C 11.140625 -13.585938 11.328125 -12.894531 11.328125 -12.125 C 11.328125 -11.21875 11.066406 -10.429688 10.546875 -9.765625 C 10.023438 -9.109375 9.347656 -8.679688 8.515625 -8.484375 L 8.515625 -8.375 C 9.460938 -8.144531 10.210938 -7.6875 10.765625 -7 C 11.328125 -6.3125 11.609375 -5.410156 11.609375 -4.296875 C 11.609375 -3.453125 11.414062 -2.695312 11.03125 -2.03125 C 10.65625 -1.363281 10.085938 -0.835938 9.328125 -0.453125 C 8.566406 -0.078125 7.648438 0.109375 6.578125 0.109375 C 5.023438 0.109375 3.75 -0.296875 2.75 -1.109375 C 1.75 -1.921875 1.191406 -3.078125 1.078125 -4.578125 L 3.015625 -4.578125 C 3.117188 -3.691406 3.476562 -2.96875 4.09375 -2.40625 C 4.707031 -1.851562 5.53125 -1.578125 6.5625 -1.578125 C 7.582031 -1.578125 8.359375 -1.84375 8.890625 -2.375 C 9.429688 -2.914062 9.703125 -3.613281 9.703125 -4.46875 C 9.703125 -5.5625 9.332031 -6.347656 8.59375 -6.828125 C 7.863281 -7.316406 6.757812 -7.5625 5.28125 -7.5625 L 4.78125 -7.5625 L 4.78125 -9.234375 L 5.296875 -9.234375 C 6.648438 -9.253906 7.671875 -9.476562 8.359375 -9.90625 C 9.046875 -10.34375 9.390625 -11.015625 9.390625 -11.921875 C 9.390625 -12.703125 9.132812 -13.328125 8.625 -13.796875 C 8.125 -14.265625 7.40625 -14.5 6.46875 -14.5 C 5.5625 -14.5 4.828125 -14.265625 4.265625 -13.796875 C 3.710938 -13.328125 3.382812 -12.695312 3.28125 -11.90625 Z M 1.3125 -11.90625 "/></g></g></g><g fill="#000000" fill-opacity="1"><g transform="translate(78.653142, 384.073157)"><g><path d="M -7.890625 -9.375 C -7.804688 -9.925781 -7.582031 -10.429688 -7.21875 -10.890625 C -6.851562 -11.359375 -6.394531 -11.726562 -5.84375 -12 C -5.300781 -12.269531 -4.722656 -12.40625 -4.109375 -12.40625 C -3.335938 -12.40625 -2.640625 -12.207031 -2.015625 -11.8125 C -1.390625 -11.414062 -0.894531 -10.835938 -0.53125 -10.078125 C -0.175781 -9.328125 0 -8.4375 0 -7.40625 L 0 -1.6875 L -15.328125 -1.6875 L -15.328125 -7.1875 C -15.328125 -8.226562 -15.15625 -9.113281 -14.8125 -9.84375 C -14.46875 -10.582031 -14.003906 -11.132812 -13.421875 -11.5 C -12.835938 -11.875 -12.175781 -12.0625 -11.4375 -12.0625 C -10.53125 -12.0625 -9.78125 -11.8125 -9.1875 -11.3125 C -8.59375 -10.820312 -8.160156 -10.175781 -7.890625 -9.375 Z M -8.71875 -3.703125 L -8.71875 -7.0625 C -8.71875 -8 -8.9375 -8.722656 -9.375 -9.234375 C -9.8125 -9.753906 -10.421875 -10.015625 -11.203125 -10.015625 C -11.972656 -10.015625 -12.578125 -9.753906 -13.015625 -9.234375 C -13.460938 -8.722656 -13.6875 -7.984375 -13.6875 -7.015625 L -13.6875 -3.703125 Z M -1.65625 -7.234375 C -1.65625 -8.234375 -1.890625 -9.007812 -2.359375 -9.5625 C -2.828125 -10.125 -3.476562 -10.40625 -4.3125 -10.40625 C -5.164062 -10.40625 -5.835938 -10.109375 -6.328125 -9.515625 C -6.816406 -8.929688 -7.0625 -8.148438 -7.0625 -7.171875 L -7.0625 -3.703125 L -1.65625 -3.703125 Z M -1.65625 -7.234375 "/></g></g></g><g fill="#000000" fill-opacity="1"><g transform="translate(78.653142, 370.589558)"><g><path d="M -10.09375 -3.703125 C -10.78125 -4.046875 -11.316406 -4.546875 -11.703125 -5.203125 C -12.085938 -5.859375 -12.28125 -6.65625 -12.28125 -7.59375 L -10.203125 -7.59375 L -10.203125 -7.0625 C -10.203125 -4.820312 -8.988281 -3.703125 -6.5625 -3.703125 L 0 -3.703125 L 0 -1.6875 L -12.0625 -1.6875 L -12.0625 -3.703125 Z M -10.09375 -3.703125 "/></g></g></g><g fill="#000000" fill-opacity="1"><g transform="translate(78.653142, 362.385025)"><g><path d="M -6.484375 -12.6875 C -6.109375 -12.6875 -5.707031 -12.664062 -5.28125 -12.625 L -5.28125 -2.984375 C -4.09375 -3.066406 -3.164062 -3.476562 -2.5 -4.21875 C -1.832031 -4.957031 -1.5 -5.851562 -1.5 -6.90625 C -1.5 -7.769531 -1.695312 -8.488281 -2.09375 -9.0625 C -2.5 -9.644531 -3.039062 -10.054688 -3.71875 -10.296875 L -3.71875 -12.453125 C -2.5625 -12.128906 -1.617188 -11.484375 -0.890625 -10.515625 C -0.160156 -9.546875 0.203125 -8.34375 0.203125 -6.90625 C 0.203125 -5.757812 -0.0507812 -4.734375 -0.5625 -3.828125 C -1.082031 -2.929688 -1.816406 -2.226562 -2.765625 -1.71875 C -3.710938 -1.207031 -4.804688 -0.953125 -6.046875 -0.953125 C -7.296875 -0.953125 -8.390625 -1.195312 -9.328125 -1.6875 C -10.265625 -2.1875 -10.984375 -2.882812 -11.484375 -3.78125 C -11.992188 -4.6875 -12.25 -5.726562 -12.25 -6.90625 C -12.25 -8.050781 -12 -9.0625 -11.5 -9.9375 C -11.007812 -10.820312 -10.328125 -11.5 -9.453125 -11.96875 C -8.578125 -12.445312 -7.585938 -12.6875 -6.484375 -12.6875 Z M -6.90625 -10.625 C -7.664062 -10.625 -8.320312 -10.453125 -8.875 -10.109375 C -9.425781 -9.773438 -9.84375 -9.316406 -10.125 -8.734375 C -10.414062 -8.160156 -10.5625 -7.519531 -10.5625 -6.8125 C -10.5625 -5.800781 -10.238281 -4.941406 -9.59375 -4.234375 C -8.945312 -3.523438 -8.050781 -3.117188 -6.90625 -3.015625 Z M -6.90625 -10.625 "/></g></g></g><g fill="#000000" fill-opacity="1"><g transform="translate(78.653142, 348.747456)"><g><path d="M -6.078125 -0.953125 C -7.304688 -0.953125 -8.382812 -1.195312 -9.3125 -1.6875 C -10.25 -2.1875 -10.972656 -2.875 -11.484375 -3.75 C -11.992188 -4.625 -12.25 -5.597656 -12.25 -6.671875 C -12.25 -7.722656 -12.019531 -8.632812 -11.5625 -9.40625 C -11.113281 -10.1875 -10.546875 -10.769531 -9.859375 -11.15625 L -12.0625 -11.15625 L -12.0625 -13.171875 L 0 -13.171875 L 0 -11.15625 L -2.25 -11.15625 C -1.539062 -10.757812 -0.953125 -10.164062 -0.484375 -9.375 C -0.0234375 -8.59375 0.203125 -7.679688 0.203125 -6.640625 C 0.203125 -5.566406 -0.0625 -4.597656 -0.59375 -3.734375 C -1.125 -2.867188 -1.863281 -2.1875 -2.8125 -1.6875 C -3.769531 -1.195312 -4.859375 -0.953125 -6.078125 -0.953125 Z M -6.046875 -11.15625 C -6.953125 -11.15625 -7.742188 -10.96875 -8.421875 -10.59375 C -9.097656 -10.226562 -9.613281 -9.734375 -9.96875 -9.109375 C -10.332031 -8.492188 -10.515625 -7.8125 -10.515625 -7.0625 C -10.515625 -6.3125 -10.335938 -5.628906 -9.984375 -5.015625 C -9.628906 -4.398438 -9.113281 -3.90625 -8.4375 -3.53125 C -7.769531 -3.164062 -6.984375 -2.984375 -6.078125 -2.984375 C -5.148438 -2.984375 -4.34375 -3.164062 -3.65625 -3.53125 C -2.976562 -3.90625 -2.457031 -4.398438 -2.09375 -5.015625 C -1.738281 -5.628906 -1.5625 -6.3125 -1.5625 -7.0625 C -1.5625 -7.8125 -1.738281 -8.492188 -2.09375 -9.109375 C -2.457031 -9.734375 -2.976562 -10.226562 -3.65625 -10.59375 C -4.34375 -10.96875 -5.140625 -11.15625 -6.046875 -11.15625 Z M -6.046875 -11.15625 "/></g></g></g><g fill="#000000" fill-opacity="1"><g transform="translate(78.653142, 333.878102)"><g><path d="M 0 -8.421875 L -5.328125 -3.703125 L 0 -3.703125 L 0 -1.6875 L -16.28125 -1.6875 L -16.28125 -3.703125 L -6.703125 -3.703125 L -12.0625 -8.34375 L -12.0625 -11.125 L -6.046875 -5.453125 L 0 -11.15625 Z M 0 -8.421875 "/></g></g></g><g fill="#000000" fill-opacity="1"><g transform="translate(78.653142, 322.550123)"><g><path d="M -8.90625 -10.0625 L -7.21875 -10.0625 L -7.21875 -1.28125 L -8.90625 -1.28125 Z M -8.90625 -10.0625 "/></g></g></g><g fill="#000000" fill-opacity="1"><g transform="translate(78.653142, 310.430281)"><g><path d="M -13.703125 -3.703125 L -8.578125 -3.703125 L -8.578125 -9.28125 L -6.9375 -9.28125 L -6.9375 -3.703125 L -1.65625 -3.703125 L -1.65625 -9.9375 L 0 -9.9375 L 0 -1.6875 L -15.359375 -1.6875 L -15.359375 -9.9375 L -13.703125 -9.9375 Z M -13.703125 -3.703125 "/></g></g></g><g fill="#000000" fill-opacity="1"><g transform="translate(78.653142, 299.146292)"><g><path d="M -1.84375 -6.1875 L -12.0625 -9.921875 L -12.0625 -12.0625 L 0 -7.328125 L 0 -5 L -12.0625 -0.265625 L -12.0625 -2.421875 Z M -1.84375 -6.1875 "/></g></g></g><g fill="#000000" fill-opacity="1"><g transform="translate(78.653142, 286.806495)"><g><path d="M -6.484375 -12.6875 C -6.109375 -12.6875 -5.707031 -12.664062 -5.28125 -12.625 L -5.28125 -2.984375 C -4.09375 -3.066406 -3.164062 -3.476562 -2.5 -4.21875 C -1.832031 -4.957031 -1.5 -5.851562 -1.5 -6.90625 C -1.5 -7.769531 -1.695312 -8.488281 -2.09375 -9.0625 C -2.5 -9.644531 -3.039062 -10.054688 -3.71875 -10.296875 L -3.71875 -12.453125 C -2.5625 -12.128906 -1.617188 -11.484375 -0.890625 -10.515625 C -0.160156 -9.546875 0.203125 -8.34375 0.203125 -6.90625 C 0.203125 -5.757812 -0.0507812 -4.734375 -0.5625 -3.828125 C -1.082031 -2.929688 -1.816406 -2.226562 -2.765625 -1.71875 C -3.710938 -1.207031 -4.804688 -0.953125 -6.046875 -0.953125 C -7.296875 -0.953125 -8.390625 -1.195312 -9.328125 -1.6875 C -10.265625 -2.1875 -10.984375 -2.882812 -11.484375 -3.78125 C -11.992188 -4.6875 -12.25 -5.726562 -12.25 -6.90625 C -12.25 -8.050781 -12 -9.0625 -11.5 -9.9375 C -11.007812 -10.820312 -10.328125 -11.5 -9.453125 -11.96875 C -8.578125 -12.445312 -7.585938 -12.6875 -6.484375 -12.6875 Z M -6.90625 -10.625 C -7.664062 -10.625 -8.320312 -10.453125 -8.875 -10.109375 C -9.425781 -9.773438 -9.84375 -9.316406 -10.125 -8.734375 C -10.414062 -8.160156 -10.5625 -7.519531 -10.5625 -6.8125 C -10.5625 -5.800781 -10.238281 -4.941406 -9.59375 -4.234375 C -8.945312 -3.523438 -8.050781 -3.117188 -6.90625 -3.015625 Z M -6.90625 -10.625 "/></g></g></g><g fill="#000000" fill-opacity="1"><g transform="translate(78.653142, 273.168926)"><g><path d="M -12.28125 -7.5625 C -12.28125 -9.03125 -11.832031 -10.21875 -10.9375 -11.125 C -10.050781 -12.039062 -8.773438 -12.5 -7.109375 -12.5 L 0 -12.5 L 0 -10.515625 L -6.8125 -10.515625 C -8.019531 -10.515625 -8.941406 -10.210938 -9.578125 -9.609375 C -10.210938 -9.015625 -10.53125 -8.195312 -10.53125 -7.15625 C -10.53125 -6.09375 -10.203125 -5.25 -9.546875 -4.625 C -8.890625 -4.007812 -7.929688 -3.703125 -6.671875 -3.703125 L 0 -3.703125 L 0 -1.6875 L -12.0625 -1.6875 L -12.0625 -3.703125 L -10.34375 -3.703125 C -10.957031 -4.097656 -11.429688 -4.632812 -11.765625 -5.3125 C -12.109375 -6 -12.28125 -6.75 -12.28125 -7.5625 Z M -12.28125 -7.5625 "/></g></g></g><g fill="#000000" fill-opacity="1"><g transform="translate(78.653142, 259.091435)"><g/></g></g><g fill="#000000" fill-opacity="1"><g transform="translate(78.653142, 253.218476)"><g><path d="M -15.328125 -3.65625 L -5.625 -3.65625 C -4.269531 -3.65625 -3.257812 -3.988281 -2.59375 -4.65625 C -1.9375 -5.320312 -1.609375 -6.25 -1.609375 -7.4375 C -1.609375 -8.613281 -1.9375 -9.535156 -2.59375 -10.203125 C -3.257812 -10.867188 -4.269531 -11.203125 -5.625 -11.203125 L -15.328125 -11.203125 L -15.328125 -13.203125 L -5.65625 -13.203125 C -4.375 -13.203125 -3.296875 -12.941406 -2.421875 -12.421875 C -1.554688 -11.910156 -0.910156 -11.21875 -0.484375 -10.34375 C -0.0546875 -9.476562 0.15625 -8.5 0.15625 -7.40625 C 0.15625 -6.320312 -0.0546875 -5.34375 -0.484375 -4.46875 C -0.910156 -3.601562 -1.554688 -2.914062 -2.421875 -2.40625 C -3.296875 -1.90625 -4.375 -1.65625 -5.65625 -1.65625 L -15.328125 -1.65625 Z M -15.328125 -3.65625 "/></g></g></g><g fill="#000000" fill-opacity="1"><g transform="translate(78.653142, 238.371118)"><g><path d="M -12.28125 -7.5625 C -12.28125 -9.03125 -11.832031 -10.21875 -10.9375 -11.125 C -10.050781 -12.039062 -8.773438 -12.5 -7.109375 -12.5 L 0 -12.5 L 0 -10.515625 L -6.8125 -10.515625 C -8.019531 -10.515625 -8.941406 -10.210938 -9.578125 -9.609375 C -10.210938 -9.015625 -10.53125 -8.195312 -10.53125 -7.15625 C -10.53125 -6.09375 -10.203125 -5.25 -9.546875 -4.625 C -8.890625 -4.007812 -7.929688 -3.703125 -6.671875 -3.703125 L 0 -3.703125 L 0 -1.6875 L -12.0625 -1.6875 L -12.0625 -3.703125 L -10.34375 -3.703125 C -10.957031 -4.097656 -11.429688 -4.632812 -11.765625 -5.3125 C -12.109375 -6 -12.28125 -6.75 -12.28125 -7.5625 Z M -12.28125 -7.5625 "/></g></g></g><g fill="#000000" fill-opacity="1"><g transform="translate(78.653142, 224.293627)"><g><path d="M -14.015625 -2.734375 C -14.015625 -2.347656 -14.144531 -2.019531 -14.40625 -1.75 C -14.675781 -1.488281 -15 -1.359375 -15.375 -1.359375 C -15.757812 -1.359375 -16.082031 -1.488281 -16.34375 -1.75 C -16.601562 -2.019531 -16.734375 -2.347656 -16.734375 -2.734375 C -16.734375 -3.097656 -16.601562 -3.40625 -16.34375 -3.65625 C -16.082031 -3.914062 -15.757812 -4.046875 -15.375 -4.046875 C -15 -4.046875 -14.675781 -3.914062 -14.40625 -3.65625 C -14.144531 -3.40625 -14.015625 -3.097656 -14.015625 -2.734375 Z M -12.0625 -3.703125 L 0 -3.703125 L 0 -1.6875 L -12.0625 -1.6875 Z M -12.0625 -3.703125 "/></g></g></g><g fill="#000000" fill-opacity="1"><g transform="translate(78.653142, 218.882586)"><g><path d="M -10.40625 -4.140625 L -3.296875 -4.140625 C -2.710938 -4.140625 -2.296875 -4.265625 -2.046875 -4.515625 C -1.804688 -4.765625 -1.6875 -5.195312 -1.6875 -5.8125 L -1.6875 -7.28125 L 0 -7.28125 L 0 -5.484375 C 0 -4.367188 -0.253906 -3.53125 -0.765625 -2.96875 C -1.285156 -2.414062 -2.128906 -2.140625 -3.296875 -2.140625 L -10.40625 -2.140625 L -10.40625 -0.578125 L -12.0625 -0.578125 L -12.0625 -2.140625 L -15.09375 -2.140625 L -15.09375 -4.140625 L -12.0625 -4.140625 L -12.0625 -7.28125 L -10.40625 -7.28125 Z M -10.40625 -4.140625 "/></g></g></g><g fill="#000000" fill-opacity="1"><g transform="translate(78.653142, 210.876013)"><g/></g></g><g fill="#000000" fill-opacity="1"><g transform="translate(78.653142, 205.003055)"><g><path d="M -7.671875 -0.953125 C -9.171875 -0.953125 -10.519531 -1.285156 -11.71875 -1.953125 C -12.914062 -2.628906 -13.847656 -3.550781 -14.515625 -4.71875 C -15.191406 -5.882812 -15.53125 -7.179688 -15.53125 -8.609375 C -15.53125 -10.273438 -15.125 -11.726562 -14.3125 -12.96875 C -13.507812 -14.21875 -12.367188 -15.128906 -10.890625 -15.703125 L -10.890625 -13.3125 C -11.816406 -12.882812 -12.523438 -12.269531 -13.015625 -11.46875 C -13.515625 -10.675781 -13.765625 -9.722656 -13.765625 -8.609375 C -13.765625 -7.535156 -13.515625 -6.570312 -13.015625 -5.71875 C -12.523438 -4.863281 -11.820312 -4.191406 -10.90625 -3.703125 C -9.988281 -3.222656 -8.910156 -2.984375 -7.671875 -2.984375 C -6.460938 -2.984375 -5.398438 -3.222656 -4.484375 -3.703125 C -3.566406 -4.191406 -2.859375 -4.863281 -2.359375 -5.71875 C -1.859375 -6.570312 -1.609375 -7.535156 -1.609375 -8.609375 C -1.609375 -9.722656 -1.851562 -10.675781 -2.34375 -11.46875 C -2.832031 -12.269531 -3.539062 -12.882812 -4.46875 -13.3125 L -4.46875 -15.703125 C -3 -15.128906 -1.863281 -14.21875 -1.0625 -12.96875 C -0.269531 -11.726562 0.125 -10.273438 0.125 -8.609375 C 0.125 -7.179688 -0.207031 -5.882812 -0.875 -4.71875 C -1.539062 -3.550781 -2.46875 -2.628906 -3.65625 -1.953125 C -4.84375 -1.285156 -6.179688 -0.953125 -7.671875 -0.953125 Z M -7.671875 -0.953125 "/></g></g></g><g fill="#000000" fill-opacity="1"><g transform="translate(78.653142, 188.022095)"><g><path d="M 0.203125 -6.953125 C 0.203125 -5.828125 -0.0507812 -4.804688 -0.5625 -3.890625 C -1.082031 -2.972656 -1.816406 -2.253906 -2.765625 -1.734375 C -3.710938 -1.210938 -4.804688 -0.953125 -6.046875 -0.953125 C -7.273438 -0.953125 -8.363281 -1.21875 -9.3125 -1.75 C -10.257812 -2.28125 -10.984375 -3.007812 -11.484375 -3.9375 C -11.992188 -4.863281 -12.25 -5.898438 -12.25 -7.046875 C -12.25 -8.179688 -11.992188 -9.210938 -11.484375 -10.140625 C -10.984375 -11.066406 -10.265625 -11.796875 -9.328125 -12.328125 C -8.390625 -12.867188 -7.296875 -13.140625 -6.046875 -13.140625 C -4.804688 -13.140625 -3.710938 -12.863281 -2.765625 -12.3125 C -1.816406 -11.757812 -1.082031 -11.015625 -0.5625 -10.078125 C -0.0507812 -9.140625 0.203125 -8.097656 0.203125 -6.953125 Z M -1.5625 -6.953125 C -1.5625 -7.671875 -1.726562 -8.34375 -2.0625 -8.96875 C -2.40625 -9.601562 -2.910156 -10.113281 -3.578125 -10.5 C -4.253906 -10.894531 -5.078125 -11.09375 -6.046875 -11.09375 C -7.015625 -11.09375 -7.835938 -10.898438 -8.515625 -10.515625 C -9.191406 -10.128906 -9.691406 -9.628906 -10.015625 -9.015625 C -10.347656 -8.398438 -10.515625 -7.734375 -10.515625 -7.015625 C -10.515625 -6.285156 -10.347656 -5.613281 -10.015625 -5 C -9.691406 -4.394531 -9.191406 -3.90625 -8.515625 -3.53125 C -7.835938 -3.164062 -7.015625 -2.984375 -6.046875 -2.984375 C -5.066406 -2.984375 -4.238281 -3.160156 -3.5625 -3.515625 C -2.882812 -3.878906 -2.378906 -4.363281 -2.046875 -4.96875 C -1.722656 -5.570312 -1.5625 -6.234375 -1.5625 -6.953125 Z M -1.5625 -6.953125 "/></g></g></g><g fill="#000000" fill-opacity="1"><g transform="translate(78.653142, 173.944603)"><g><path d="M 0.203125 -5.96875 C 0.203125 -5.039062 0.046875 -4.207031 -0.265625 -3.46875 C -0.585938 -2.738281 -1.03125 -2.160156 -1.59375 -1.734375 C -2.15625 -1.304688 -2.804688 -1.070312 -3.546875 -1.03125 L -3.546875 -3.109375 C -2.941406 -3.160156 -2.445312 -3.4375 -2.0625 -3.9375 C -1.6875 -4.445312 -1.5 -5.113281 -1.5 -5.9375 C -1.5 -6.695312 -1.664062 -7.296875 -2 -7.734375 C -2.34375 -8.179688 -2.769531 -8.40625 -3.28125 -8.40625 C -3.800781 -8.40625 -4.191406 -8.171875 -4.453125 -7.703125 C -4.710938 -7.234375 -4.96875 -6.503906 -5.21875 -5.515625 C -5.445312 -4.628906 -5.679688 -3.898438 -5.921875 -3.328125 C -6.171875 -2.765625 -6.53125 -2.28125 -7 -1.875 C -7.476562 -1.476562 -8.109375 -1.28125 -8.890625 -1.28125 C -9.503906 -1.28125 -10.066406 -1.460938 -10.578125 -1.828125 C -11.097656 -2.191406 -11.503906 -2.710938 -11.796875 -3.390625 C -12.097656 -4.066406 -12.25 -4.835938 -12.25 -5.703125 C -12.25 -7.035156 -11.910156 -8.109375 -11.234375 -8.921875 C -10.566406 -9.742188 -9.644531 -10.1875 -8.46875 -10.25 L -8.46875 -8.25 C -9.101562 -8.207031 -9.609375 -7.953125 -9.984375 -7.484375 C -10.367188 -7.023438 -10.5625 -6.40625 -10.5625 -5.625 C -10.5625 -4.90625 -10.40625 -4.332031 -10.09375 -3.90625 C -9.789062 -3.488281 -9.390625 -3.28125 -8.890625 -3.28125 C -8.492188 -3.28125 -8.164062 -3.40625 -7.90625 -3.65625 C -7.65625 -3.914062 -7.453125 -4.238281 -7.296875 -4.625 C -7.140625 -5.019531 -6.96875 -5.5625 -6.78125 -6.25 C -6.539062 -7.113281 -6.304688 -7.816406 -6.078125 -8.359375 C -5.847656 -8.898438 -5.503906 -9.363281 -5.046875 -9.75 C -4.597656 -10.144531 -4.007812 -10.347656 -3.28125 -10.359375 C -2.613281 -10.359375 -2.015625 -10.175781 -1.484375 -9.8125 C -0.960938 -9.445312 -0.550781 -8.929688 -0.25 -8.265625 C 0.0507812 -7.597656 0.203125 -6.832031 0.203125 -5.96875 Z M 0.203125 -5.96875 "/></g></g></g><g fill="#000000" fill-opacity="1"><g transform="translate(78.653142, 162.462655)"><g><path d="M -10.40625 -4.140625 L -3.296875 -4.140625 C -2.710938 -4.140625 -2.296875 -4.265625 -2.046875 -4.515625 C -1.804688 -4.765625 -1.6875 -5.195312 -1.6875 -5.8125 L -1.6875 -7.28125 L 0 -7.28125 L 0 -5.484375 C 0 -4.367188 -0.253906 -3.53125 -0.765625 -2.96875 C -1.285156 -2.414062 -2.128906 -2.140625 -3.296875 -2.140625 L -10.40625 -2.140625 L -10.40625 -0.578125 L -12.0625 -0.578125 L -12.0625 -2.140625 L -15.09375 -2.140625 L -15.09375 -4.140625 L -12.0625 -4.140625 L -12.0625 -7.28125 L -10.40625 -7.28125 Z M -10.40625 -4.140625 "/></g></g></g></svg>