<svg xmlns="http://www.w3.org/2000/svg" xmlns:xlink="http://www.w3.org/1999/xlink" width="1024" zoomAndPan="magnify" viewBox="0 0 768 576" height="768" preserveAspectRatio="xMidYMid meet" version="1.0"><defs><g/><clipPath id="id1"><path d="M 234.425781 96 L 533.675781 96 L 533.675781 411 L 234.425781 411 Z M 234.425781 96 " clip-rule="nonzero"/></clipPath></defs><path stroke-linecap="butt" transform="matrix(0.00000000000000023, -3.752085, 3.75, 0.00000000000000023, 100.207517, 436.88957)" fill="none" stroke-linejoin="miter" d="M -0.000281231 -0.000129647 L 101.144519 -0.000129647 " stroke="#000000" stroke-width="1" stroke-opacity="1" stroke-miterlimit="4"/><path stroke-linecap="butt" transform="matrix(3.75131, 0, 0, 3.75, 100.208002, 435.015002)" fill="none" stroke-linejoin="miter" d="M -0.000258836 0.000166167 L 134.153911 0.000166167 " stroke="#000000" stroke-width="1" stroke-opacity="1" stroke-miterlimit="4"/><g clip-path="url(#id1)"><path fill="#2a4365" d="M 528.9375 410.988281 C 528.707031 410.988281 528.476562 410.96875 528.246094 410.9375 C 387.003906 390.273438 260.921875 257.617188 234.960938 102.363281 C 234.914062 102.058594 234.894531 101.75 234.902344 101.441406 C 234.914062 101.132812 234.957031 100.828125 235.027344 100.527344 C 235.097656 100.226562 235.195312 99.933594 235.324219 99.652344 C 235.453125 99.371094 235.609375 99.105469 235.789062 98.855469 C 235.96875 98.605469 236.171875 98.375 236.398438 98.160156 C 236.625 97.949219 236.867188 97.761719 237.128906 97.601562 C 237.390625 97.4375 237.667969 97.300781 237.957031 97.191406 C 238.246094 97.082031 238.542969 97.003906 238.851562 96.949219 C 239.15625 96.898438 239.460938 96.878906 239.769531 96.890625 C 240.082031 96.898438 240.386719 96.9375 240.6875 97.007812 C 240.988281 97.074219 241.28125 97.171875 241.5625 97.300781 C 241.84375 97.425781 242.113281 97.578125 242.363281 97.757812 C 242.617188 97.9375 242.851562 98.136719 243.0625 98.363281 C 243.273438 98.585938 243.464844 98.832031 243.628906 99.09375 C 243.792969 99.355469 243.929688 99.628906 244.042969 99.917969 C 244.152344 100.207031 244.234375 100.503906 244.289062 100.808594 C 269.597656 252.1875 392.261719 381.496094 529.617188 401.589844 C 530.207031 401.679688 530.761719 401.871094 531.28125 402.164062 C 531.796875 402.460938 532.246094 402.84375 532.617188 403.308594 C 532.992188 403.773438 533.269531 404.289062 533.445312 404.859375 C 533.621094 405.429688 533.691406 406.011719 533.648438 406.605469 C 533.605469 407.199219 533.453125 407.765625 533.195312 408.304688 C 532.9375 408.839844 532.589844 409.3125 532.152344 409.71875 C 531.71875 410.125 531.222656 410.4375 530.664062 410.65625 C 530.109375 410.875 529.535156 410.988281 528.9375 410.988281 Z M 528.9375 410.988281 " fill-opacity="1" fill-rule="nonzero"/></g><g fill="#000000" fill-opacity="1"><g transform="translate(192.19322, 475.585632)"><g><path d="M 6.5625 0.15625 C 5.539062 0.15625 4.628906 -0.0195312 3.828125 -0.375 C 3.035156 -0.738281 2.410156 -1.238281 1.953125 -1.875 C 1.503906 -2.519531 1.269531 -3.257812 1.25 -4.09375 L 3.390625 -4.09375 C 3.460938 -3.375 3.757812 -2.769531 4.28125 -2.28125 C 4.800781 -1.789062 5.5625 -1.546875 6.5625 -1.546875 C 7.507812 -1.546875 8.257812 -1.78125 8.8125 -2.25 C 9.363281 -2.726562 9.640625 -3.34375 9.640625 -4.09375 C 9.640625 -4.675781 9.476562 -5.148438 9.15625 -5.515625 C 8.832031 -5.890625 8.425781 -6.171875 7.9375 -6.359375 C 7.457031 -6.546875 6.804688 -6.75 5.984375 -6.96875 C 4.972656 -7.238281 4.160156 -7.503906 3.546875 -7.765625 C 2.941406 -8.023438 2.421875 -8.4375 1.984375 -9 C 1.554688 -9.570312 1.34375 -10.332031 1.34375 -11.28125 C 1.34375 -12.125 1.554688 -12.863281 1.984375 -13.5 C 2.410156 -14.144531 3.003906 -14.644531 3.765625 -15 C 4.535156 -15.351562 5.421875 -15.53125 6.421875 -15.53125 C 7.859375 -15.53125 9.035156 -15.171875 9.953125 -14.453125 C 10.867188 -13.734375 11.382812 -12.78125 11.5 -11.59375 L 9.3125 -11.59375 C 9.238281 -12.175781 8.925781 -12.691406 8.375 -13.140625 C 7.832031 -13.585938 7.113281 -13.8125 6.21875 -13.8125 C 5.382812 -13.8125 4.703125 -13.59375 4.171875 -13.15625 C 3.648438 -12.726562 3.390625 -12.128906 3.390625 -11.359375 C 3.390625 -10.796875 3.546875 -10.335938 3.859375 -9.984375 C 4.171875 -9.628906 4.554688 -9.359375 5.015625 -9.171875 C 5.484375 -8.992188 6.132812 -8.789062 6.96875 -8.5625 C 7.976562 -8.28125 8.789062 -8.003906 9.40625 -7.734375 C 10.03125 -7.460938 10.5625 -7.039062 11 -6.46875 C 11.4375 -5.90625 11.65625 -5.144531 11.65625 -4.1875 C 11.65625 -3.4375 11.457031 -2.726562 11.0625 -2.0625 C 10.664062 -1.40625 10.078125 -0.867188 9.296875 -0.453125 C 8.523438 -0.046875 7.613281 0.15625 6.5625 0.15625 Z M 6.5625 0.15625 "/></g></g></g><g fill="#000000" fill-opacity="1"><g transform="translate(205.104925, 475.585632)"><g><path d="M 4.140625 -10.40625 L 4.140625 -3.296875 C 4.140625 -2.710938 4.265625 -2.296875 4.515625 -2.046875 C 4.765625 -1.804688 5.195312 -1.6875 5.8125 -1.6875 L 7.28125 -1.6875 L 7.28125 0 L 5.484375 0 C 4.367188 0 3.53125 -0.253906 2.96875 -0.765625 C 2.414062 -1.285156 2.140625 -2.128906 2.140625 -3.296875 L 2.140625 -10.40625 L 0.578125 -10.40625 L 0.578125 -12.0625 L 2.140625 -12.0625 L 2.140625 -15.09375 L 4.140625 -15.09375 L 4.140625 -12.0625 L 7.28125 -12.0625 L 7.28125 -10.40625 Z M 4.140625 -10.40625 "/></g></g></g><g fill="#000000" fill-opacity="1"><g transform="translate(213.111497, 475.585632)"><g><path d="M 0.953125 -6.078125 C 0.953125 -7.304688 1.195312 -8.382812 1.6875 -9.3125 C 2.1875 -10.25 2.875 -10.972656 3.75 -11.484375 C 4.625 -11.992188 5.597656 -12.25 6.671875 -12.25 C 7.722656 -12.25 8.632812 -12.019531 9.40625 -11.5625 C 10.1875 -11.113281 10.769531 -10.546875 11.15625 -9.859375 L 11.15625 -12.0625 L 13.171875 -12.0625 L 13.171875 0 L 11.15625 0 L 11.15625 -2.25 C 10.757812 -1.539062 10.164062 -0.953125 9.375 -0.484375 C 8.59375 -0.0234375 7.679688 0.203125 6.640625 0.203125 C 5.566406 0.203125 4.597656 -0.0625 3.734375 -0.59375 C 2.867188 -1.125 2.1875 -1.863281 1.6875 -2.8125 C 1.195312 -3.769531 0.953125 -4.859375 0.953125 -6.078125 Z M 11.15625 -6.046875 C 11.15625 -6.953125 10.96875 -7.742188 10.59375 -8.421875 C 10.226562 -9.097656 9.734375 -9.613281 9.109375 -9.96875 C 8.492188 -10.332031 7.8125 -10.515625 7.0625 -10.515625 C 6.3125 -10.515625 5.628906 -10.335938 5.015625 -9.984375 C 4.398438 -9.628906 3.90625 -9.113281 3.53125 -8.4375 C 3.164062 -7.769531 2.984375 -6.984375 2.984375 -6.078125 C 2.984375 -5.148438 3.164062 -4.34375 3.53125 -3.65625 C 3.90625 -2.976562 4.398438 -2.457031 5.015625 -2.09375 C 5.628906 -1.738281 6.3125 -1.5625 7.0625 -1.5625 C 7.8125 -1.5625 8.492188 -1.738281 9.109375 -2.09375 C 9.734375 -2.457031 10.226562 -2.976562 10.59375 -3.65625 C 10.96875 -4.34375 11.15625 -5.140625 11.15625 -6.046875 Z M 11.15625 -6.046875 "/></g></g></g><g fill="#000000" fill-opacity="1"><g transform="translate(227.980851, 475.585632)"><g><path d="M 4.140625 -10.40625 L 4.140625 -3.296875 C 4.140625 -2.710938 4.265625 -2.296875 4.515625 -2.046875 C 4.765625 -1.804688 5.195312 -1.6875 5.8125 -1.6875 L 7.28125 -1.6875 L 7.28125 0 L 5.484375 0 C 4.367188 0 3.53125 -0.253906 2.96875 -0.765625 C 2.414062 -1.285156 2.140625 -2.128906 2.140625 -3.296875 L 2.140625 -10.40625 L 0.578125 -10.40625 L 0.578125 -12.0625 L 2.140625 -12.0625 L 2.140625 -15.09375 L 4.140625 -15.09375 L 4.140625 -12.0625 L 7.28125 -12.0625 L 7.28125 -10.40625 Z M 4.140625 -10.40625 "/></g></g></g><g fill="#000000" fill-opacity="1"><g transform="translate(235.987423, 475.585632)"><g><path d="M 2.734375 -14.015625 C 2.347656 -14.015625 2.019531 -14.144531 1.75 -14.40625 C 1.488281 -14.675781 1.359375 -15 1.359375 -15.375 C 1.359375 -15.757812 1.488281 -16.082031 1.75 -16.34375 C 2.019531 -16.601562 2.347656 -16.734375 2.734375 -16.734375 C 3.097656 -16.734375 3.40625 -16.601562 3.65625 -16.34375 C 3.914062 -16.082031 4.046875 -15.757812 4.046875 -15.375 C 4.046875 -15 3.914062 -14.675781 3.65625 -14.40625 C 3.40625 -14.144531 3.097656 -14.015625 2.734375 -14.015625 Z M 3.703125 -12.0625 L 3.703125 0 L 1.6875 0 L 1.6875 -12.0625 Z M 3.703125 -12.0625 "/></g></g></g><g fill="#000000" fill-opacity="1"><g transform="translate(241.398464, 475.585632)"><g><path d="M 6.953125 0.203125 C 5.828125 0.203125 4.804688 -0.0507812 3.890625 -0.5625 C 2.972656 -1.082031 2.253906 -1.816406 1.734375 -2.765625 C 1.210938 -3.710938 0.953125 -4.804688 0.953125 -6.046875 C 0.953125 -7.273438 1.21875 -8.363281 1.75 -9.3125 C 2.28125 -10.257812 3.007812 -10.984375 3.9375 -11.484375 C 4.863281 -11.992188 5.898438 -12.25 7.046875 -12.25 C 8.179688 -12.25 9.210938 -11.992188 10.140625 -11.484375 C 11.066406 -10.984375 11.796875 -10.265625 12.328125 -9.328125 C 12.867188 -8.390625 13.140625 -7.296875 13.140625 -6.046875 C 13.140625 -4.804688 12.863281 -3.710938 12.3125 -2.765625 C 11.757812 -1.816406 11.015625 -1.082031 10.078125 -0.5625 C 9.140625 -0.0507812 8.097656 0.203125 6.953125 0.203125 Z M 6.953125 -1.5625 C 7.671875 -1.5625 8.34375 -1.726562 8.96875 -2.0625 C 9.601562 -2.40625 10.113281 -2.910156 10.5 -3.578125 C 10.894531 -4.253906 11.09375 -5.078125 11.09375 -6.046875 C 11.09375 -7.015625 10.898438 -7.835938 10.515625 -8.515625 C 10.128906 -9.191406 9.628906 -9.691406 9.015625 -10.015625 C 8.398438 -10.347656 7.734375 -10.515625 7.015625 -10.515625 C 6.285156 -10.515625 5.613281 -10.347656 5 -10.015625 C 4.394531 -9.691406 3.90625 -9.191406 3.53125 -8.515625 C 3.164062 -7.835938 2.984375 -7.015625 2.984375 -6.046875 C 2.984375 -5.066406 3.160156 -4.238281 3.515625 -3.5625 C 3.878906 -2.882812 4.363281 -2.378906 4.96875 -2.046875 C 5.570312 -1.722656 6.234375 -1.5625 6.953125 -1.5625 Z M 6.953125 -1.5625 "/></g></g></g><g fill="#000000" fill-opacity="1"><g transform="translate(255.475955, 475.585632)"><g><path d="M 7.5625 -12.28125 C 9.03125 -12.28125 10.21875 -11.832031 11.125 -10.9375 C 12.039062 -10.050781 12.5 -8.773438 12.5 -7.109375 L 12.5 0 L 10.515625 0 L 10.515625 -6.8125 C 10.515625 -8.019531 10.210938 -8.941406 9.609375 -9.578125 C 9.015625 -10.210938 8.195312 -10.53125 7.15625 -10.53125 C 6.09375 -10.53125 5.25 -10.203125 4.625 -9.546875 C 4.007812 -8.890625 3.703125 -7.929688 3.703125 -6.671875 L 3.703125 0 L 1.6875 0 L 1.6875 -12.0625 L 3.703125 -12.0625 L 3.703125 -10.34375 C 4.097656 -10.957031 4.632812 -11.429688 5.3125 -11.765625 C 6 -12.109375 6.75 -12.28125 7.5625 -12.28125 Z M 7.5625 -12.28125 "/></g></g></g><g fill="#000000" fill-opacity="1"><g transform="translate(269.553447, 475.585632)"><g/></g></g><g fill="#000000" fill-opacity="1"><g transform="translate(275.426406, 475.585632)"><g><path d="M 0.84375 -14.078125 L 0.84375 -15.90625 L 4.96875 -15.90625 L 4.96875 0 L 2.953125 0 L 2.953125 -14.078125 Z M 0.84375 -14.078125 "/></g></g></g><g fill="#000000" fill-opacity="1"><g transform="translate(65.478124, 272.519247)"><g><path d="M -7.671875 -0.953125 C -9.171875 -0.953125 -10.519531 -1.285156 -11.71875 -1.953125 C -12.914062 -2.628906 -13.847656 -3.550781 -14.515625 -4.71875 C -15.191406 -5.882812 -15.53125 -7.179688 -15.53125 -8.609375 C -15.53125 -10.273438 -15.125 -11.726562 -14.3125 -12.96875 C -13.507812 -14.21875 -12.367188 -15.128906 -10.890625 -15.703125 L -10.890625 -13.3125 C -11.816406 -12.882812 -12.523438 -12.269531 -13.015625 -11.46875 C -13.515625 -10.675781 -13.765625 -9.722656 -13.765625 -8.609375 C -13.765625 -7.535156 -13.515625 -6.570312 -13.015625 -5.71875 C -12.523438 -4.863281 -11.820312 -4.191406 -10.90625 -3.703125 C -9.988281 -3.222656 -8.910156 -2.984375 -7.671875 -2.984375 C -6.460938 -2.984375 -5.398438 -3.222656 -4.484375 -3.703125 C -3.566406 -4.191406 -2.859375 -4.863281 -2.359375 -5.71875 C -1.859375 -6.570312 -1.609375 -7.535156 -1.609375 -8.609375 C -1.609375 -9.722656 -1.851562 -10.675781 -2.34375 -11.46875 C -2.832031 -12.269531 -3.539062 -12.882812 -4.46875 -13.3125 L -4.46875 -15.703125 C -3 -15.128906 -1.863281 -14.21875 -1.0625 -12.96875 C -0.269531 -11.726562 0.125 -10.273438 0.125 -8.609375 C 0.125 -7.179688 -0.207031 -5.882812 -0.875 -4.71875 C -1.539062 -3.550781 -2.46875 -2.628906 -3.65625 -1.953125 C -4.84375 -1.285156 -6.179688 -0.953125 -7.671875 -0.953125 Z M -7.671875 -0.953125 "/></g></g></g><g fill="#000000" fill-opacity="1"><g transform="translate(65.478124, 255.538276)"><g><path d="M 0.203125 -6.953125 C 0.203125 -5.828125 -0.0507812 -4.804688 -0.5625 -3.890625 C -1.082031 -2.972656 -1.816406 -2.253906 -2.765625 -1.734375 C -3.710938 -1.210938 -4.804688 -0.953125 -6.046875 -0.953125 C -7.273438 -0.953125 -8.363281 -1.21875 -9.3125 -1.75 C -10.257812 -2.28125 -10.984375 -3.007812 -11.484375 -3.9375 C -11.992188 -4.863281 -12.25 -5.898438 -12.25 -7.046875 C -12.25 -8.179688 -11.992188 -9.210938 -11.484375 -10.140625 C -10.984375 -11.066406 -10.265625 -11.796875 -9.328125 -12.328125 C -8.390625 -12.867188 -7.296875 -13.140625 -6.046875 -13.140625 C -4.804688 -13.140625 -3.710938 -12.863281 -2.765625 -12.3125 C -1.816406 -11.757812 -1.082031 -11.015625 -0.5625 -10.078125 C -0.0507812 -9.140625 0.203125 -8.097656 0.203125 -6.953125 Z M -1.5625 -6.953125 C -1.5625 -7.671875 -1.726562 -8.34375 -2.0625 -8.96875 C -2.40625 -9.601562 -2.910156 -10.113281 -3.578125 -10.5 C -4.253906 -10.894531 -5.078125 -11.09375 -6.046875 -11.09375 C -7.015625 -11.09375 -7.835938 -10.898438 -8.515625 -10.515625 C -9.191406 -10.128906 -9.691406 -9.628906 -10.015625 -9.015625 C -10.347656 -8.398438 -10.515625 -7.734375 -10.515625 -7.015625 C -10.515625 -6.285156 -10.347656 -5.613281 -10.015625 -5 C -9.691406 -4.394531 -9.191406 -3.90625 -8.515625 -3.53125 C -7.835938 -3.164062 -7.015625 -2.984375 -6.046875 -2.984375 C -5.066406 -2.984375 -4.238281 -3.160156 -3.5625 -3.515625 C -2.882812 -3.878906 -2.378906 -4.363281 -2.046875 -4.96875 C -1.722656 -5.570312 -1.5625 -6.234375 -1.5625 -6.953125 Z M -1.5625 -6.953125 "/></g></g></g><g fill="#000000" fill-opacity="1"><g transform="translate(65.478124, 241.460784)"><g><path d="M 0.203125 -5.96875 C 0.203125 -5.039062 0.046875 -4.207031 -0.265625 -3.46875 C -0.585938 -2.738281 -1.03125 -2.160156 -1.59375 -1.734375 C -2.15625 -1.304688 -2.804688 -1.070312 -3.546875 -1.03125 L -3.546875 -3.109375 C -2.941406 -3.160156 -2.445312 -3.4375 -2.0625 -3.9375 C -1.6875 -4.445312 -1.5 -5.113281 -1.5 -5.9375 C -1.5 -6.695312 -1.664062 -7.296875 -2 -7.734375 C -2.34375 -8.179688 -2.769531 -8.40625 -3.28125 -8.40625 C -3.800781 -8.40625 -4.191406 -8.171875 -4.453125 -7.703125 C -4.710938 -7.234375 -4.96875 -6.503906 -5.21875 -5.515625 C -5.445312 -4.628906 -5.679688 -3.898438 -5.921875 -3.328125 C -6.171875 -2.765625 -6.53125 -2.28125 -7 -1.875 C -7.476562 -1.476562 -8.109375 -1.28125 -8.890625 -1.28125 C -9.503906 -1.28125 -10.066406 -1.460938 -10.578125 -1.828125 C -11.097656 -2.191406 -11.503906 -2.710938 -11.796875 -3.390625 C -12.097656 -4.066406 -12.25 -4.835938 -12.25 -5.703125 C -12.25 -7.035156 -11.910156 -8.109375 -11.234375 -8.921875 C -10.566406 -9.742188 -9.644531 -10.1875 -8.46875 -10.25 L -8.46875 -8.25 C -9.101562 -8.207031 -9.609375 -7.953125 -9.984375 -7.484375 C -10.367188 -7.023438 -10.5625 -6.40625 -10.5625 -5.625 C -10.5625 -4.90625 -10.40625 -4.332031 -10.09375 -3.90625 C -9.789062 -3.488281 -9.390625 -3.28125 -8.890625 -3.28125 C -8.492188 -3.28125 -8.164062 -3.40625 -7.90625 -3.65625 C -7.65625 -3.914062 -7.453125 -4.238281 -7.296875 -4.625 C -7.140625 -5.019531 -6.96875 -5.5625 -6.78125 -6.25 C -6.539062 -7.113281 -6.304688 -7.816406 -6.078125 -8.359375 C -5.847656 -8.898438 -5.503906 -9.363281 -5.046875 -9.75 C -4.597656 -10.144531 -4.007812 -10.347656 -3.28125 -10.359375 C -2.613281 -10.359375 -2.015625 -10.175781 -1.484375 -9.8125 C -0.960938 -9.445312 -0.550781 -8.929688 -0.25 -8.265625 C 0.0507812 -7.597656 0.203125 -6.832031 0.203125 -5.96875 Z M 0.203125 -5.96875 "/></g></g></g><g fill="#000000" fill-opacity="1"><g transform="translate(65.478124, 229.978836)"><g><path d="M -10.40625 -4.140625 L -3.296875 -4.140625 C -2.710938 -4.140625 -2.296875 -4.265625 -2.046875 -4.515625 C -1.804688 -4.765625 -1.6875 -5.195312 -1.6875 -5.8125 L -1.6875 -7.28125 L 0 -7.28125 L 0 -5.484375 C 0 -4.367188 -0.253906 -3.53125 -0.765625 -2.96875 C -1.285156 -2.414062 -2.128906 -2.140625 -3.296875 -2.140625 L -10.40625 -2.140625 L -10.40625 -0.578125 L -12.0625 -0.578125 L -12.0625 -2.140625 L -15.09375 -2.140625 L -15.09375 -4.140625 L -12.0625 -4.140625 L -12.0625 -7.28125 L -10.40625 -7.28125 Z M -10.40625 -4.140625 "/></g></g></g><g fill="#000000" fill-opacity="1"><g transform="translate(395.343734, 475.585632)"><g><path d="M 6.5625 0.15625 C 5.539062 0.15625 4.628906 -0.0195312 3.828125 -0.375 C 3.035156 -0.738281 2.410156 -1.238281 1.953125 -1.875 C 1.503906 -2.519531 1.269531 -3.257812 1.25 -4.09375 L 3.390625 -4.09375 C 3.460938 -3.375 3.757812 -2.769531 4.28125 -2.28125 C 4.800781 -1.789062 5.5625 -1.546875 6.5625 -1.546875 C 7.507812 -1.546875 8.257812 -1.78125 8.8125 -2.25 C 9.363281 -2.726562 9.640625 -3.34375 9.640625 -4.09375 C 9.640625 -4.675781 9.476562 -5.148438 9.15625 -5.515625 C 8.832031 -5.890625 8.425781 -6.171875 7.9375 -6.359375 C 7.457031 -6.546875 6.804688 -6.75 5.984375 -6.96875 C 4.972656 -7.238281 4.160156 -7.503906 3.546875 -7.765625 C 2.941406 -8.023438 2.421875 -8.4375 1.984375 -9 C 1.554688 -9.570312 1.34375 -10.332031 1.34375 -11.28125 C 1.34375 -12.125 1.554688 -12.863281 1.984375 -13.5 C 2.410156 -14.144531 3.003906 -14.644531 3.765625 -15 C 4.535156 -15.351562 5.421875 -15.53125 6.421875 -15.53125 C 7.859375 -15.53125 9.035156 -15.171875 9.953125 -14.453125 C 10.867188 -13.734375 11.382812 -12.78125 11.5 -11.59375 L 9.3125 -11.59375 C 9.238281 -12.175781 8.925781 -12.691406 8.375 -13.140625 C 7.832031 -13.585938 7.113281 -13.8125 6.21875 -13.8125 C 5.382812 -13.8125 4.703125 -13.59375 4.171875 -13.15625 C 3.648438 -12.726562 3.390625 -12.128906 3.390625 -11.359375 C 3.390625 -10.796875 3.546875 -10.335938 3.859375 -9.984375 C 4.171875 -9.628906 4.554688 -9.359375 5.015625 -9.171875 C 5.484375 -8.992188 6.132812 -8.789062 6.96875 -8.5625 C 7.976562 -8.28125 8.789062 -8.003906 9.40625 -7.734375 C 10.03125 -7.460938 10.5625 -7.039062 11 -6.46875 C 11.4375 -5.90625 11.65625 -5.144531 11.65625 -4.1875 C 11.65625 -3.4375 11.457031 -2.726562 11.0625 -2.0625 C 10.664062 -1.40625 10.078125 -0.867188 9.296875 -0.453125 C 8.523438 -0.046875 7.613281 0.15625 6.5625 0.15625 Z M 6.5625 0.15625 "/></g></g></g><g fill="#000000" fill-opacity="1"><g transform="translate(408.255438, 475.585632)"><g><path d="M 4.140625 -10.40625 L 4.140625 -3.296875 C 4.140625 -2.710938 4.265625 -2.296875 4.515625 -2.046875 C 4.765625 -1.804688 5.195312 -1.6875 5.8125 -1.6875 L 7.28125 -1.6875 L 7.28125 0 L 5.484375 0 C 4.367188 0 3.53125 -0.253906 2.96875 -0.765625 C 2.414062 -1.285156 2.140625 -2.128906 2.140625 -3.296875 L 2.140625 -10.40625 L 0.578125 -10.40625 L 0.578125 -12.0625 L 2.140625 -12.0625 L 2.140625 -15.09375 L 4.140625 -15.09375 L 4.140625 -12.0625 L 7.28125 -12.0625 L 7.28125 -10.40625 Z M 4.140625 -10.40625 "/></g></g></g><g fill="#000000" fill-opacity="1"><g transform="translate(416.262011, 475.585632)"><g><path d="M 0.953125 -6.078125 C 0.953125 -7.304688 1.195312 -8.382812 1.6875 -9.3125 C 2.1875 -10.25 2.875 -10.972656 3.75 -11.484375 C 4.625 -11.992188 5.597656 -12.25 6.671875 -12.25 C 7.722656 -12.25 8.632812 -12.019531 9.40625 -11.5625 C 10.1875 -11.113281 10.769531 -10.546875 11.15625 -9.859375 L 11.15625 -12.0625 L 13.171875 -12.0625 L 13.171875 0 L 11.15625 0 L 11.15625 -2.25 C 10.757812 -1.539062 10.164062 -0.953125 9.375 -0.484375 C 8.59375 -0.0234375 7.679688 0.203125 6.640625 0.203125 C 5.566406 0.203125 4.597656 -0.0625 3.734375 -0.59375 C 2.867188 -1.125 2.1875 -1.863281 1.6875 -2.8125 C 1.195312 -3.769531 0.953125 -4.859375 0.953125 -6.078125 Z M 11.15625 -6.046875 C 11.15625 -6.953125 10.96875 -7.742188 10.59375 -8.421875 C 10.226562 -9.097656 9.734375 -9.613281 9.109375 -9.96875 C 8.492188 -10.332031 7.8125 -10.515625 7.0625 -10.515625 C 6.3125 -10.515625 5.628906 -10.335938 5.015625 -9.984375 C 4.398438 -9.628906 3.90625 -9.113281 3.53125 -8.4375 C 3.164062 -7.769531 2.984375 -6.984375 2.984375 -6.078125 C 2.984375 -5.148438 3.164062 -4.34375 3.53125 -3.65625 C 3.90625 -2.976562 4.398438 -2.457031 5.015625 -2.09375 C 5.628906 -1.738281 6.3125 -1.5625 7.0625 -1.5625 C 7.8125 -1.5625 8.492188 -1.738281 9.109375 -2.09375 C 9.734375 -2.457031 10.226562 -2.976562 10.59375 -3.65625 C 10.96875 -4.34375 11.15625 -5.140625 11.15625 -6.046875 Z M 11.15625 -6.046875 "/></g></g></g><g fill="#000000" fill-opacity="1"><g transform="translate(431.131365, 475.585632)"><g><path d="M 4.140625 -10.40625 L 4.140625 -3.296875 C 4.140625 -2.710938 4.265625 -2.296875 4.515625 -2.046875 C 4.765625 -1.804688 5.195312 -1.6875 5.8125 -1.6875 L 7.28125 -1.6875 L 7.28125 0 L 5.484375 0 C 4.367188 0 3.53125 -0.253906 2.96875 -0.765625 C 2.414062 -1.285156 2.140625 -2.128906 2.140625 -3.296875 L 2.140625 -10.40625 L 0.578125 -10.40625 L 0.578125 -12.0625 L 2.140625 -12.0625 L 2.140625 -15.09375 L 4.140625 -15.09375 L 4.140625 -12.0625 L 7.28125 -12.0625 L 7.28125 -10.40625 Z M 4.140625 -10.40625 "/></g></g></g><g fill="#000000" fill-opacity="1"><g transform="translate(439.137937, 475.585632)"><g><path d="M 2.734375 -14.015625 C 2.347656 -14.015625 2.019531 -14.144531 1.75 -14.40625 C 1.488281 -14.675781 1.359375 -15 1.359375 -15.375 C 1.359375 -15.757812 1.488281 -16.082031 1.75 -16.34375 C 2.019531 -16.601562 2.347656 -16.734375 2.734375 -16.734375 C 3.097656 -16.734375 3.40625 -16.601562 3.65625 -16.34375 C 3.914062 -16.082031 4.046875 -15.757812 4.046875 -15.375 C 4.046875 -15 3.914062 -14.675781 3.65625 -14.40625 C 3.40625 -14.144531 3.097656 -14.015625 2.734375 -14.015625 Z M 3.703125 -12.0625 L 3.703125 0 L 1.6875 0 L 1.6875 -12.0625 Z M 3.703125 -12.0625 "/></g></g></g><g fill="#000000" fill-opacity="1"><g transform="translate(444.548978, 475.585632)"><g><path d="M 6.953125 0.203125 C 5.828125 0.203125 4.804688 -0.0507812 3.890625 -0.5625 C 2.972656 -1.082031 2.253906 -1.816406 1.734375 -2.765625 C 1.210938 -3.710938 0.953125 -4.804688 0.953125 -6.046875 C 0.953125 -7.273438 1.21875 -8.363281 1.75 -9.3125 C 2.28125 -10.257812 3.007812 -10.984375 3.9375 -11.484375 C 4.863281 -11.992188 5.898438 -12.25 7.046875 -12.25 C 8.179688 -12.25 9.210938 -11.992188 10.140625 -11.484375 C 11.066406 -10.984375 11.796875 -10.265625 12.328125 -9.328125 C 12.867188 -8.390625 13.140625 -7.296875 13.140625 -6.046875 C 13.140625 -4.804688 12.863281 -3.710938 12.3125 -2.765625 C 11.757812 -1.816406 11.015625 -1.082031 10.078125 -0.5625 C 9.140625 -0.0507812 8.097656 0.203125 6.953125 0.203125 Z M 6.953125 -1.5625 C 7.671875 -1.5625 8.34375 -1.726562 8.96875 -2.0625 C 9.601562 -2.40625 10.113281 -2.910156 10.5 -3.578125 C 10.894531 -4.253906 11.09375 -5.078125 11.09375 -6.046875 C 11.09375 -7.015625 10.898438 -7.835938 10.515625 -8.515625 C 10.128906 -9.191406 9.628906 -9.691406 9.015625 -10.015625 C 8.398438 -10.347656 7.734375 -10.515625 7.015625 -10.515625 C 6.285156 -10.515625 5.613281 -10.347656 5 -10.015625 C 4.394531 -9.691406 3.90625 -9.191406 3.53125 -8.515625 C 3.164062 -7.835938 2.984375 -7.015625 2.984375 -6.046875 C 2.984375 -5.066406 3.160156 -4.238281 3.515625 -3.5625 C 3.878906 -2.882812 4.363281 -2.378906 4.96875 -2.046875 C 5.570312 -1.722656 6.234375 -1.5625 6.953125 -1.5625 Z M 6.953125 -1.5625 "/></g></g></g><g fill="#000000" fill-opacity="1"><g transform="translate(458.626469, 475.585632)"><g><path d="M 7.5625 -12.28125 C 9.03125 -12.28125 10.21875 -11.832031 11.125 -10.9375 C 12.039062 -10.050781 12.5 -8.773438 12.5 -7.109375 L 12.5 0 L 10.515625 0 L 10.515625 -6.8125 C 10.515625 -8.019531 10.210938 -8.941406 9.609375 -9.578125 C 9.015625 -10.210938 8.195312 -10.53125 7.15625 -10.53125 C 6.09375 -10.53125 5.25 -10.203125 4.625 -9.546875 C 4.007812 -8.890625 3.703125 -7.929688 3.703125 -6.671875 L 3.703125 0 L 1.6875 0 L 1.6875 -12.0625 L 3.703125 -12.0625 L 3.703125 -10.34375 C 4.097656 -10.957031 4.632812 -11.429688 5.3125 -11.765625 C 6 -12.109375 6.75 -12.28125 7.5625 -12.28125 Z M 7.5625 -12.28125 "/></g></g></g><g fill="#000000" fill-opacity="1"><g transform="translate(472.70396, 475.585632)"><g/></g></g><g fill="#000000" fill-opacity="1"><g transform="translate(478.576919, 475.585632)"><g><path d="M 0.84375 -14.078125 L 0.84375 -15.90625 L 4.96875 -15.90625 L 4.96875 0 L 2.953125 0 L 2.953125 -14.078125 Z M 0.84375 -14.078125 "/></g></g></g><g fill="#000000" fill-opacity="1"><g transform="translate(485.615665, 475.585632)"><g><path d="M 1.359375 -8.125 C 1.359375 -10.644531 1.769531 -12.609375 2.59375 -14.015625 C 3.414062 -15.429688 4.851562 -16.140625 6.90625 -16.140625 C 8.945312 -16.140625 10.378906 -15.429688 11.203125 -14.015625 C 12.023438 -12.609375 12.4375 -10.644531 12.4375 -8.125 C 12.4375 -5.550781 12.023438 -3.550781 11.203125 -2.125 C 10.378906 -0.707031 8.945312 0 6.90625 0 C 4.851562 0 3.414062 -0.707031 2.59375 -2.125 C 1.769531 -3.550781 1.359375 -5.550781 1.359375 -8.125 Z M 10.453125 -8.125 C 10.453125 -9.394531 10.363281 -10.472656 10.1875 -11.359375 C 10.019531 -12.242188 9.675781 -12.957031 9.15625 -13.5 C 8.632812 -14.050781 7.882812 -14.328125 6.90625 -14.328125 C 5.90625 -14.328125 5.144531 -14.050781 4.625 -13.5 C 4.101562 -12.957031 3.757812 -12.242188 3.59375 -11.359375 C 3.425781 -10.472656 3.34375 -9.394531 3.34375 -8.125 C 3.34375 -6.800781 3.425781 -5.691406 3.59375 -4.796875 C 3.757812 -3.898438 4.101562 -3.179688 4.625 -2.640625 C 5.144531 -2.097656 5.90625 -1.828125 6.90625 -1.828125 C 7.882812 -1.828125 8.632812 -2.097656 9.15625 -2.640625 C 9.675781 -3.179688 10.019531 -3.898438 10.1875 -4.796875 C 10.363281 -5.691406 10.453125 -6.800781 10.453125 -8.125 Z M 10.453125 -8.125 "/></g></g></g><g fill="#000000" fill-opacity="1"><g transform="translate(499.429198, 475.585632)"><g><path d="M 1.359375 -8.125 C 1.359375 -10.644531 1.769531 -12.609375 2.59375 -14.015625 C 3.414062 -15.429688 4.851562 -16.140625 6.90625 -16.140625 C 8.945312 -16.140625 10.378906 -15.429688 11.203125 -14.015625 C 12.023438 -12.609375 12.4375 -10.644531 12.4375 -8.125 C 12.4375 -5.550781 12.023438 -3.550781 11.203125 -2.125 C 10.378906 -0.707031 8.945312 0 6.90625 0 C 4.851562 0 3.414062 -0.707031 2.59375 -2.125 C 1.769531 -3.550781 1.359375 -5.550781 1.359375 -8.125 Z M 10.453125 -8.125 C 10.453125 -9.394531 10.363281 -10.472656 10.1875 -11.359375 C 10.019531 -12.242188 9.675781 -12.957031 9.15625 -13.5 C 8.632812 -14.050781 7.882812 -14.328125 6.90625 -14.328125 C 5.90625 -14.328125 5.144531 -14.050781 4.625 -13.5 C 4.101562 -12.957031 3.757812 -12.242188 3.59375 -11.359375 C 3.425781 -10.472656 3.34375 -9.394531 3.34375 -8.125 C 3.34375 -6.800781 3.425781 -5.691406 3.59375 -4.796875 C 3.757812 -3.898438 4.101562 -3.179688 4.625 -2.640625 C 5.144531 -2.097656 5.90625 -1.828125 6.90625 -1.828125 C 7.882812 -1.828125 8.632812 -2.097656 9.15625 -2.640625 C 9.675781 -3.179688 10.019531 -3.898438 10.1875 -4.796875 C 10.363281 -5.691406 10.453125 -6.800781 10.453125 -8.125 Z M 10.453125 -8.125 "/></g></g></g></svg>